<svg xmlns="http://www.w3.org/2000/svg" viewBox="0 0 24 32"><path d="M12 0C5.4 0 0 5.25 0 11.68c0 2.57 1.38 5.65 3.06 8.95a117 117 0 0 0 5.28 9.15A4.44 4.44 0 0 0 12 32c1.47 0 2.82-.89 3.66-2.22a117.2 117.2 0 0 0 5.29-9.15c1.67-3.3 3.05-6.38 3.05-8.95C24 5.25 18.61 0 12 0zm0 2.96a8.82 8.82 0 0 1 8.96 8.72c0 1.34-1.13 4.48-2.74 7.64-1.6 3.16-3.61 6.49-5.15 8.91-.43.69-.81.8-1.07.8s-.64-.11-1.07-.8a115.06 115.06 0 0 1-5.15-8.91c-1.6-3.16-2.74-6.3-2.74-7.64 0-4.83 4-8.72 8.96-8.72zm0 3.54A1.5 1.5 0 0 0 10.5 8v2.97h-3a1.5 1.5 0 0 0-1.5 1.5 1.5 1.5 0 0 0 1.5 1.5h3V17a1.5 1.5 0 0 0 1.5 1.5 1.5 1.5 0 0 0 1.5-1.5v-3.03h3a1.5 1.5 0 0 0 1.5-1.5 1.5 1.5 0 0 0-1.5-1.5h-3V8A1.5 1.5 0 0 0 12 6.5z" style="-inkscape-stroke:none"/></svg>