<svg xmlns="http://www.w3.org/2000/svg" viewBox="0 0 32 32"><path d="M8.5 0A1.5 1.5 0 0 0 7 1.5V8H5.5C2.48 8 0 10.48 0 13.5v7C0 26.833 5.167 32 11.5 32h9C26.833 32 32 26.833 32 20.5v-7c0-3.02-2.48-5.5-5.5-5.5H25V1.5A1.5 1.5 0 0 0 23.5 0 1.5 1.5 0 0 0 22 1.5V8H10V1.5A1.5 1.5 0 0 0 8.5 0zm-3 11h21c1.398 0 2.5 1.102 2.5 2.5v7c0 4.712-3.788 8.5-8.5 8.5h-9A8.477 8.477 0 0 1 3 20.5v-7C3 12.102 4.102 11 5.5 11zm6 3a1.5 1.5 0 0 0-1.5 1.5 1.5 1.5 0 0 0 1.5 1.5h9a1.5 1.5 0 0 0 1.5-1.5 1.5 1.5 0 0 0-1.5-1.5h-9z" color="#000" style="-inkscape-stroke:none"/></svg>