<svg xmlns="http://www.w3.org/2000/svg" viewBox="0 0 32 32"><path d="M5.5 0a1.5 1.5 0 0 0-1.06.44l-4 4a1.5 1.5 0 0 0 0 2.12 1.5 1.5 0 0 0 2.12 0l4-4a1.5 1.5 0 0 0 0-2.12A1.5 1.5 0 0 0 5.5 0zm21 0a1.5 1.5 0 0 0-1.06.44 1.5 1.5 0 0 0 0 2.12l4 4a1.5 1.5 0 0 0 2.12 0 1.5 1.5 0 0 0 0-2.12l-4-4A1.5 1.5 0 0 0 26.5 0zM16 2C7.734 2 1 8.734 1 17s6.734 15 15 15 15-6.734 15-15S24.266 2 16 2zm0 3c6.645 0 12 5.355 12 12s-5.355 12-12 12S4 23.645 4 17 9.355 5 16 5zm0 3a1.5 1.5 0 0 0-1.5 1.5V17a1.5 1.5 0 0 0 .988 1.41l5.5 2a1.5 1.5 0 0 0 1.922-.898 1.5 1.5 0 0 0-.898-1.922L17.5 15.95V9.5A1.5 1.5 0 0 0 16 8z"/></svg>