<svg xmlns="http://www.w3.org/2000/svg" viewBox="0 0 32 32"><path d="M22.805-.59a3.678 3.678 0 0 0-1.95.47l-7.17 4.018H9.078c-4.953 0-9 4.047-9 9 0 4.11 2.79 7.597 6.57 8.664l.996 8.628A1.5 1.5 0 0 0 9.14 31.52l5.945-.024a1.5 1.5 0 0 0 1.486-1.654l-.7-6.71 4.987 2.811c2.496 1.408 5.721-.476 5.721-3.341v-4.203c3.02 0 5.5-2.48 5.5-5.5s-2.48-5.5-5.5-5.5V3.233c0-2.15-1.812-3.75-3.773-3.824zm3.773 10.988c1.398 0 2.5 1.101 2.5 2.5 0 1.398-1.102 2.5-2.5 2.5zm-16.871 11.5h3.02l.687 6.603-2.943.012z" transform="translate(-.078 .602)"/></svg>