<svg xmlns="http://www.w3.org/2000/svg" xml:space="preserve" viewBox="0 0 32 32"><path d="M8 2C4.704 2 2 4.704 2 8s2.704 6 6 6 6-2.704 6-6-2.704-6-6-6zm16 0c-3.296 0-6 2.704-6 6s2.704 6 6 6 6-2.704 6-6-2.704-6-6-6zM8 5c1.675 0 3 1.325 3 3s-1.325 3-3 3-3-1.325-3-3 1.325-3 3-3zm16 0c1.675 0 3 1.325 3 3s-1.325 3-3 3-3-1.325-3-3 1.325-3 3-3zM8 18c-3.296 0-6 2.704-6 6s2.704 6 6 6 6-2.704 6-6-2.704-6-6-6zm16 0c-3.296 0-6 2.704-6 6s2.704 6 6 6 6-2.704 6-6-2.704-6-6-6zM8 21c1.675 0 3 1.325 3 3s-1.325 3-3 3-3-1.325-3-3 1.325-3 3-3zm16 0c1.675 0 3 1.325 3 3s-1.325 3-3 3-3-1.325-3-3 1.325-3 3-3z"/></svg>