<svg xmlns="http://www.w3.org/2000/svg" viewBox="0 0 26 32"><path d="M19.363 0c-1.61.07-3.547 1.072-4.707 2.422C13.618 3.616 12.73 5.166 12.973 7c1.782.138 3.603-.545 4.728-1.895 1.125-1.35 1.87-3.236 1.662-5.105Zm-.384 7.623c-2.971-.013-5.258.943-6.024 1.283-.768-.322-2.956-1.175-5.768-1.002-1.679.104-3.54.67-4.939 2.162C.848 11.56.033 13.84.002 16.984c-.058 5.823 1.832 9.622 3.816 11.881 1.985 2.26 4.155 3.05 4.155 3.05a1.5 1.5 0 0 0 1.277-.132s4.229-2.615 8.994.03a1.5 1.5 0 0 0 1.002.162c2.225-.413 3.592-2.235 4.715-3.78 1.123-1.544 1.873-3.008 1.873-3.008a1.5 1.5 0 0 0-.412-1.869S21.97 20.43 22 17.014c.024-2.82 2.064-4.957 2.064-4.957a1.5 1.5 0 0 0 .25-1.782s-.451-.778-1.31-1.414c-.859-.635-2.216-1.23-4.025-1.238z"/></svg>