<svg xmlns="http://www.w3.org/2000/svg" viewBox="0 0 32 26"><path d="M11.5 0A5.73 5.73 0 0 0 7.07 2.096L1.442 8.957a6.388 6.388 0 0 0 0 8.086l5.63 6.861A5.73 5.73 0 0 0 11.498 26h15C29.52 26 32 23.52 32 20.5v-15C32 2.48 29.52 0 26.5 0Zm0 3h15C27.898 3 29 4.102 29 5.5v15c0 1.398-1.102 2.5-2.5 2.5h-15c-.819 0-1.592-.366-2.11-.998l-5.627-6.861a3.36 3.36 0 0 1 0-4.282L9.39 3.998A2.726 2.726 0 0 1 11.5 3Zm3 4a1.5 1.5 0 0 0-1.061.44 1.5 1.5 0 0 0 0 2.12l3.44 3.44-3.44 3.44a1.5 1.5 0 0 0 0 2.12 1.5 1.5 0 0 0 2.12 0L19 15.122l3.44 3.44a1.5 1.5 0 0 0 2.121 0 1.5 1.5 0 0 0 0-2.122L21.12 13l3.44-3.44a1.5 1.5 0 0 0 0-2.12A1.5 1.5 0 0 0 23.5 7a1.5 1.5 0 0 0-1.06.44L19 10.878l-3.44-3.44A1.5 1.5 0 0 0 14.5 7Z" color="#000" style="-inkscape-stroke:none"/></svg>