<svg xmlns="http://www.w3.org/2000/svg" viewBox="0 0 32 32"><path d="M16 0C7.18 0 0 7.182 0 16c0 8.82 7.18 16 16 16 8.818 0 16-7.18 16-16 0-8.818-7.182-16-16-16Zm0 3c1.976 0 3.846.44 5.521 1.223-1.336 2.29-3.119 4.135-5.242 5.775a78.233 78.233 0 0 0-6.043-5.658A12.975 12.975 0 0 1 16 3Zm8.072 2.801a12.974 12.974 0 0 1 4.322 6.258c-3.305.212-6.117 1.003-8.48 2.129-.521-.674-1.068-1.407-1.61-2.04 2.293-1.804 4.274-3.835 5.768-6.347zm-16.465.264c2.466 2.038 4.438 3.855 6.23 5.678-2.925 1.742-6.45 3.207-10.83 4.566C3.005 16.206 3 16.104 3 16c0-3.992 1.788-7.553 4.607-9.935Zm8.334 7.902c.458.531.94 1.136 1.38 1.697-.053.037-.12.065-.173.102a1.5 1.5 0 0 0-.002 0c-3.247 2.242-6.328 5.663-8.514 10.953a12.978 12.978 0 0 1-5.207-7.402c4.95-1.507 9.09-3.208 12.516-5.35zm13.02 1.067a12.95 12.95 0 0 1-2.691 8.947 95.08 95.08 0 0 0-4.454-7.178c2.014-.897 4.278-1.61 7.144-1.77zm-9.866 3.084c1.574 2.268 3.165 4.802 4.979 8.08A12.956 12.956 0 0 1 16 29c-1.661 0-3.245-.313-4.704-.877 1.984-4.953 4.685-7.905 7.553-9.886l.002-.002c.069-.047.174-.07.244-.117z"/></svg>