<svg xmlns="http://www.w3.org/2000/svg" viewBox="0 0 32 32"><path d="M16 0C7.18 0 0 7.182 0 16c0 8.82 7.18 16 16 16 8.818 0 16-7.18 16-16 0-8.818-7.182-16-16-16Zm5.521 4.224c.914.428 1.769.96 2.55 1.578-1.493 2.512-3.474 4.543-5.767 6.348.542.632 1.089 1.365 1.61 2.039 2.363-1.126 5.175-1.917 8.48-2.129a13 13 0 0 1 .566 2.975c-2.866.159-5.13.872-7.144 1.77a95.08 95.08 0 0 1 4.453 7.177 13.018 13.018 0 0 1-2.195 2.217c-1.814-3.278-3.405-5.812-4.979-8.08-.07.046-.175.07-.244.117l-.002.002c-2.868 1.98-5.569 4.933-7.553 9.886a12.94 12.94 0 0 1-2.664-1.404c2.186-5.29 5.267-8.71 8.514-10.953a1.5 1.5 0 0 0 .002 0c.053-.037.12-.065.174-.102a48.337 48.337 0 0 0-1.381-1.697c-3.426 2.142-7.567 3.843-12.516 5.35a13.064 13.064 0 0 1-.418-3.008c4.38-1.359 7.905-2.824 10.83-4.566-1.792-1.823-3.764-3.64-6.23-5.678a12.98 12.98 0 0 1 2.629-1.725 78.233 78.233 0 0 1 6.043 5.658c2.123-1.64 3.906-3.484 5.242-5.775z"/></svg>