<svg xmlns="http://www.w3.org/2000/svg" viewBox="0 0 32 32"><path d="M5.5 0C2.48 0 0 2.48 0 5.5v21C0 29.52 2.48 32 5.5 32h21c3.02 0 5.5-2.48 5.5-5.5v-21C32 2.48 29.52 0 26.5 0h-21zm0 3h21C27.898 3 29 4.102 29 5.5v21c0 1.398-1.102 2.5-2.5 2.5h-21A2.478 2.478 0 0 1 3 26.5v-21C3 4.102 4.102 3 5.5 3zM16 6a1.5 1.5 0 0 0-1.5 1.5v17A1.5 1.5 0 0 0 16 26a1.5 1.5 0 0 0 1.5-1.5v-17A1.5 1.5 0 0 0 16 6zm-7.5 6A1.5 1.5 0 0 0 7 13.5v11A1.5 1.5 0 0 0 8.5 26a1.5 1.5 0 0 0 1.5-1.5v-11A1.5 1.5 0 0 0 8.5 12zm15 4a1.5 1.5 0 0 0-1.5 1.5v7a1.5 1.5 0 0 0 1.5 1.5 1.5 1.5 0 0 0 1.5-1.5v-7a1.5 1.5 0 0 0-1.5-1.5z" color="#000" style="-inkscape-stroke:none"/></svg>