<svg xmlns="http://www.w3.org/2000/svg" viewBox="0 0 32 28"><path d="M30.788.028a1.5 1.505 0 0 0-1.154.248c-.931.66-1.987 1.104-3.058 1.495-2.159-1.802-4.97-2.193-7.31-1.297-2.673 1.023-4.809 3.656-4.762 7.041l-.003-.021v.28c-3.738-.415-7.65-2.594-8.995-5.569a1.5 1.505 0 0 0-2.736.01S1.305 5.47 1.488 9.507c.157 3.46 1.877 7.548 6.335 10.462-2.098 1.238-4.264 2.272-6.26 2.193a1.5 1.505 0 0 0-.865 2.774c6.134 3.913 13.332 3.94 18.969.876 5.636-3.064 9.697-9.255 9.697-17.353a1.5 1.505 0 0 0 0-.005c0-.256-.047-.508-.075-.763 1.413-1.766 2.24-4.067 2.668-5.828a1.5 1.505 0 0 0-1.17-1.834Zm-7.922 3.037c.847.184 1.666.646 2.365 1.45a1.5 1.505 0 0 0 1.562.452c.35-.105.64-.349.983-.48-.353.726-.721 1.458-1.07 1.803a1.5 1.505 0 0 0-.42 1.354c.052.27.076.544.077.818-.001 7.106-3.427 12.151-8.125 14.703-3.562 1.938-7.861 2.402-12.021 1.062 1.97-.778 3.783-1.893 5.354-2.965a1.5 1.505 0 0 0-.23-2.619c-5.475-2.44-6.71-6.035-6.856-9.271-.053-1.158.155-2.07.326-2.99 2.795 3.01 7.132 4.684 11.23 4.577A1.5 1.505 0 0 0 17.5 9.456l.002-1.96a1.5 1.505 0 0 0-.002-.02c-.03-2.134 1.21-3.567 2.834-4.19a4.442 4.444 0 0 1 2.533-.221z"/></svg>