<svg xmlns="http://www.w3.org/2000/svg" viewBox="0 0 32 28"><path d="M30.788.028a1.496 1.496 0 0 0-1.154.248c-.931.66-1.987 1.104-3.058 1.495-2.159-1.802-4.97-2.193-7.31-1.297-2.673 1.023-4.809 3.656-4.762 7.041l-.003-.021v.28c-3.738-.415-7.65-2.594-8.995-5.569-.535-1.182-2.21-1.175-2.736.01 0 0-1.465 3.254-1.282 7.291.157 3.46 1.877 7.548 6.335 10.462-2.098 1.238-4.264 2.272-6.26 2.193-1.535-.064-2.162 1.95-.865 2.774 6.134 3.913 13.332 3.94 18.969.876 5.636-3.064 9.697-9.255 9.697-17.353v-.005c0-.256-.047-.508-.075-.763 1.413-1.766 2.24-4.067 2.668-5.828a1.505 1.505 0 0 0-1.17-1.834Z"/></svg>