<svg xmlns="http://www.w3.org/2000/svg" viewBox="0 0 22 32"><path d="M15.408-.12c-1.21-.073-2.443.86-2.443 2.188v7.468l-5.72-4.49a1.14 1.134 0 0 0-1.6.188 1.14 1.134 0 0 0 .189 1.59l6.606 5.185-6.608 5.193a1.14 1.134 0 0 0-.187 1.593 1.14 1.134 0 0 0 1.602.185l5.718-4.493v7.472c0 1.77 2.19 2.837 3.598 1.754l4.396-3.382c1.458-1.121 1.468-3.37.021-4.506l-4.863-3.816 4.865-3.822C22.43 7.05 22.416 4.8 20.956 3.68L16.563.311a2.086 2.086 0 0 0-1.155-.432Zm-.161 2.283 4.316 3.313c.328.252.332.676.006.932l-4.322 3.395zm0 12.047 4.322 3.393c.326.256.322.684-.006.937l-4.316 3.317z" transform="matrix(1.32052 0 0 1.31831 -7.13 .164)"/></svg>