<svg xmlns="http://www.w3.org/2000/svg" viewBox="0 0 24 32"><path d="M5.5 0A5.52 5.52 0 0 0 0 5.5v23.33c0 1.35.87 2.48 1.95 2.93 1.08.45 2.5.28 3.45-.67l6.23-6.12a.51.51 0 0 1 .74 0l6.23 6.12a3.21 3.21 0 0 0 3.45.67A3.22 3.22 0 0 0 24 28.83V5.5C24 2.48 21.52 0 18.5 0Zm0 3h13C19.9 3 21 4.1 21 5.5v23.33c0 .14-.03.13-.1.16-.09.04-.1.07-.2-.03l-6.22-6.13a3.56 3.56 0 0 0-4.96 0L3.3 28.96c-.1.1-.11.07-.2.03-.07-.03-.1-.02-.1-.16V5.5C3 4.1 4.1 3 5.5 3Z" color="#000" style="-inkscape-stroke:none"/></svg>