<svg xmlns="http://www.w3.org/2000/svg" aria-hidden="true" class="octicon octicon-package UnderlineNav-octicon" data-view-component="true" viewBox="0 0 28 32"><path d="M14 0c-1.46 0-2.91.4-4.2 1.16L1.42 6.17C.67 6.62 0 7.43.01 8.44L0 8.48V22c0 1.77.92 3.41 2.43 4.33l7.37 4.5a8.06 8.06 0 0 0 8.4 0l7.37-4.5A5.07 5.07 0 0 0 28 21.99V8.5c0-.1 0-.18-.03-.27-.08-.81-.5-1.6-1.27-2.05l-8.5-5.02A8.22 8.22 0 0 0 14 0Zm0 3c.93 0 1.85.24 2.68.73l8.09 4.79L14 14.99c-3.4-2.06-6.8-4.42-10.5-6.56l7.84-4.69C12.16 3.25 13.08 3 14 3zM3 11.59c3.12 1.9 6.22 3.92 9.5 5.9v11.28c-.4-.12-.77-.3-1.13-.51l-7.38-4.5A2.06 2.06 0 0 1 3 21.99Zm22 .32v10.08c0 .73-.37 1.39-.99 1.77l-7.38 4.5c-.36.22-.74.39-1.13.51V17.49Z" color="#000" style="-inkscape-stroke:none"/></svg>