<svg xmlns="http://www.w3.org/2000/svg" viewBox="0 0 29 32"><path d="M12 .964a3.03 3.03 0 0 0-1.516.406l-7 4.015a1.039 1.043 0 0 0-.004.003 3.053 3.053 0 0 0-1.518 2.637 1.039 1.043 0 0 0 0 .001v8.033a1.039 1.043 0 0 0 0 .002 3.053 3.053 0 0 0 1.518 2.637 1.039 1.043 0 0 0 .004.002l7 4.017c.938.542 2.098.54 3.036-.003l6.996-4.014a1.039 1.043 0 0 0 .004-.002 3.053 3.053 0 0 0 1.519-2.637 1.039 1.043 0 0 0 0-.002V8.026a1.039 1.043 0 0 0 0-.001 3.053 3.053 0 0 0-1.519-2.637 1.039 1.043 0 0 0-.004-.003L13.52 1.371A3.03 3.03 0 0 0 12 .964Zm0 2.083c.166 0 .33.044.48.13a1.039 1.043 0 0 0 .004.002l6.466 3.71L12 10.856 5.05 6.89l6.466-3.711a1.039 1.043 0 0 0 .004-.002.956.956 0 0 1 .48-.13ZM4.038 8.709l6.924 3.95v7.93L4.52 16.892a.961.961 0 0 1-.482-.833Zm15.924 0v7.348a.963.963 0 0 1-.482.835l-6.442 3.697v-7.93z" transform="matrix(1.44444 0 0 1.44414 -2.833 -1.392)"/></svg>