<svg xmlns="http://www.w3.org/2000/svg" xml:space="preserve" viewBox="0 0 29 32"><path d="M12 .964c-.524 0-1.047.135-1.516.406l-7 4.015a1.039 1.043 0 0 0-.004.003 3.054 3.054 0 0 0-1.518 2.637 1.039 1.043 0 0 0 0 .001v8.033a1.039 1.043 0 0 0 0 .001 3.054 3.054 0 0 0 1.518 2.637 1.039 1.043 0 0 0 .004.003l7 4.017c.938.542 2.098.54 3.036-.003l6.996-4.014a1.039 1.043 0 0 0 .004-.003 3.054 3.054 0 0 0 1.518-2.637 1.039 1.043 0 0 0 0-.001V8.026a3.054 3.054 0 0 0-1.518-2.638 1.039 1.043 0 0 0-.004-.003L13.52 1.371A3.029 3.029 0 0 0 12 .964zm0 2.083c.166 0 .33.044.48.131a1.039 1.043 0 0 0 .004.001l6.466 3.71-2.276 1.298L9.511 4.33l2.005-1.15a1.039 1.043 0 0 0 .004-.002.957.957 0 0 1 .48-.131zm-4.61 2.5L14.547 9.4 12 10.854 5.05 6.89l2.34-1.343zM4.038 8.708l6.924 3.95v7.93L4.52 16.892a.963.963 0 0 1-.482-.833v-7.35zm15.924 0v7.347a.964.964 0 0 1-.482.836l-6.442 3.697v-7.93l6.924-3.95z" color="#000" style="-inkscape-stroke:none" transform="matrix(1.44444 0 0 1.44414 -2.833 -1.392)"/></svg>