<svg xmlns="http://www.w3.org/2000/svg" viewBox="0 0 32 30"><path d="M13.447 0C10.98 0 8.95 2.038 8.96 4.506L8.965 6H5.5C2.48 6 0 8.48 0 11.5v13C0 27.52 2.48 30 5.5 30h21c3.02 0 5.5-2.48 5.5-5.5v-13C32 8.48 29.52 6 26.5 6h-3.523l-.004-1.504C22.966 2.03 20.933 0 18.465 0Zm0 3h5.018c.849 0 1.505.655 1.508 1.504L19.977 6h-8.012l-.006-1.506A1.466 1.466 0 0 1 13.447 3ZM5.5 9h3.477l.07 18H5.5A2.478 2.478 0 0 1 3 24.5v-13C3 10.102 4.102 9 5.5 9Zm6.477 0h8.007l.047 18h-7.984Zm11.007 0H26.5c1.398 0 2.5 1.102 2.5 2.5v13c0 1.398-1.102 2.5-2.5 2.5h-3.469z"/></svg>