<svg xmlns="http://www.w3.org/2000/svg" viewBox="0 0 32 32"><path d="M15.998 0C12.426.005 9.5 2.935 9.5 6.508c0 1.915 1.586 3.5 3.502 3.498l7-.012c1.915-.003 3.498-1.587 3.498-3.502 0-3.571-2.93-6.497-6.502-6.492ZM4 7a1.5 1.5 0 0 0-1.06 2.56l3.662 3.663A5.45 5.45 0 0 0 5.5 16.5V18H2a1.5 1.5 0 0 0 0 3h3.55a9.936 9.936 0 0 0 1.907 4.922l-3.518 3.517a1.5 1.5 0 0 0 2.122 2.122l3.515-3.516a9.93 9.93 0 0 0 5.924 1.96h2c2.2 0 4.236-.72 5.89-1.933l3.489 3.489A1.5 1.5 0 0 0 29 29.439l-3.479-3.478A9.94 9.94 0 0 0 27.45 21H31a1.5 1.5 0 0 0 0-3h-3.5v-1.5a5.45 5.45 0 0 0-1.102-3.277l3.663-3.662a1.5 1.5 0 0 0-2.122-2.122l-3.945 3.946A5.423 5.423 0 0 0 22 11H11c-.703 0-1.374.14-1.994.385L5.06 7.439A1.5 1.5 0 0 0 4 7Z" color="#000" style="-inkscape-stroke:none" transform="translate(-.5)"/></svg>