<svg xmlns="http://www.w3.org/2000/svg" viewBox="0 0 32 32"><path d="M15.998 0C12.426.005 9.5 2.935 9.5 6.508c0 1.915 1.586 3.5 3.502 3.498l7-.012c1.915-.003 3.498-1.587 3.498-3.502 0-3.571-2.93-6.497-6.502-6.492h-1zm.004 3h1A3.47 3.47 0 0 1 20.5 6.492a.48.48 0 0 1-.502.502l-7 .012a.477.477 0 0 1-.498-.498A3.485 3.485 0 0 1 16.002 3zM4 7a1.5 1.5 0 0 0-1.06.44 1.5 1.5 0 0 0 0 2.12l3.662 3.663A5.45 5.45 0 0 0 5.5 16.5V18H2a1.5 1.5 0 0 0-1.5 1.5A1.5 1.5 0 0 0 2 21h3.55a9.936 9.936 0 0 0 1.907 4.922l-3.518 3.517a1.5 1.5 0 0 0 0 2.122 1.5 1.5 0 0 0 2.122 0l3.515-3.516a9.93 9.93 0 0 0 5.924 1.96h2c2.2 0 4.236-.72 5.89-1.933l3.489 3.489a1.5 1.5 0 0 0 2.121 0 1.5 1.5 0 0 0 0-2.122l-3.479-3.478A9.94 9.94 0 0 0 27.45 21H31a1.5 1.5 0 0 0 1.5-1.5A1.5 1.5 0 0 0 31 18h-3.5v-1.5a5.45 5.45 0 0 0-1.102-3.277l3.663-3.662a1.5 1.5 0 0 0 0-2.122A1.5 1.5 0 0 0 29 7a1.5 1.5 0 0 0-1.06.44l-3.946 3.945A5.423 5.423 0 0 0 22 11H11c-.703 0-1.374.14-1.994.385L5.06 7.439A1.5 1.5 0 0 0 4 7zm7 7h11c1.398 0 2.5 1.102 2.5 2.5v3.506c0 3.884-3.116 7-7 7h-2c-3.884 0-7-3.116-7-7V16.5c0-1.398 1.102-2.5 2.5-2.5z" transform="translate(-.5)"/></svg>