<svg xmlns="http://www.w3.org/2000/svg" viewBox="0 0 32 32"><path d="M16 0c-3.848 0-7 3.152-7 7 0 1.49.473 2.873 1.275 4.012a5.436 5.436 0 0 0-1.77.373L4.562 7.439a1.502 1.502 0 0 0-2.122 0 1.501 1.501 0 0 0 0 2.122l3.663 3.662A5.45 5.45 0 0 0 5 16.5V18H1.5a1.5 1.5 0 0 0 0 3h3.55a9.935 9.935 0 0 0 1.907 4.922l-3.518 3.517a1.499 1.499 0 1 0 2.122 2.122l3.515-3.516A9.93 9.93 0 0 0 15 30.005h2c2.2 0 4.237-.72 5.89-1.933l3.489 3.489a1.5 1.5 0 0 0 2.121-2.122l-3.479-3.478A9.938 9.938 0 0 0 26.95 21H30.5a1.5 1.5 0 0 0 0-3H27v-1.5a5.45 5.45 0 0 0-1.102-3.277l3.663-3.662a1.499 1.499 0 1 0-2.122-2.122l-3.945 3.946a5.42 5.42 0 0 0-1.77-.373A6.946 6.946 0 0 0 23 7c0-3.848-3.152-7-7-7zm0 3c2.227 0 4 1.773 4 4 0 2.227-1.773 4-4 4-2.227 0-4-1.773-4-4 0-2.227 1.773-4 4-4zm-5.5 11h11c1.398 0 2.5 1.102 2.5 2.5v3.506c0 3.884-3.116 7-7 7h-2c-3.884 0-7-3.116-7-7V16.5c0-1.398 1.102-2.5 2.5-2.5z"/></svg>