<svg xmlns="http://www.w3.org/2000/svg" viewBox="0 0 32 32"><path d="M10 0c-.83 0-1.5.67-1.5 1.5V4h-3A5.52 5.52 0 0 0 0 9.5v17C0 29.52 2.48 32 5.5 32h21c3.02 0 5.5-2.48 5.5-5.5v-17C32 6.48 29.52 4 26.5 4h-3V1.5a1.5 1.5 0 0 0-3 0V4h-9V1.5C11.5.67 10.83 0 10 0zM5.5 11h21c1.4 0 2.5 1.1 2.5 2.5v13c0 1.4-1.1 2.5-2.5 2.5h-21A2.48 2.48 0 0 1 3 26.5v-13C3 12.1 4.1 11 5.5 11zm10.83 4A1.33 1.33 0 0 0 15 16.33v1.34A1.33 1.33 0 0 0 16.33 19h1.34A1.33 1.33 0 0 0 19 17.67v-1.34A1.33 1.33 0 0 0 17.67 15h-1.34zm7 0A1.33 1.33 0 0 0 22 16.33v1.34A1.33 1.33 0 0 0 23.33 19h1.34A1.33 1.33 0 0 0 26 17.67v-1.34A1.33 1.33 0 0 0 24.67 15h-1.34zm-14 7A1.33 1.33 0 0 0 8 23.33v1.34A1.33 1.33 0 0 0 9.33 26h1.34A1.33 1.33 0 0 0 12 24.67v-1.34A1.33 1.33 0 0 0 10.67 22H9.33zm7 0A1.33 1.33 0 0 0 15 23.33v1.34A1.33 1.33 0 0 0 16.33 26h1.34A1.33 1.33 0 0 0 19 24.67v-1.34A1.33 1.33 0 0 0 17.67 22h-1.34zm7 0A1.33 1.33 0 0 0 22 23.33v1.34A1.33 1.33 0 0 0 23.33 26h1.34A1.33 1.33 0 0 0 26 24.67v-1.34A1.33 1.33 0 0 0 24.67 22h-1.34z"/></svg>