<svg xmlns="http://www.w3.org/2000/svg" viewBox="0 0 32 32"><path d="M10 0c-.83 0-1.5.67-1.5 1.5V4h-3A5.52 5.52 0 0 0 0 9.5v17C0 29.52 2.48 32 5.5 32h21c3.02 0 5.5-2.48 5.5-5.5v-17C32 6.48 29.52 4 26.5 4h-3V1.5a1.5 1.5 0 0 0-3 0V4h-9V1.5C11.5.67 10.83 0 10 0zm6.33 15h1.34A1.33 1.33 0 0 1 19 16.33v1.34A1.33 1.33 0 0 1 17.67 19h-1.34A1.33 1.33 0 0 1 15 17.67v-1.34A1.33 1.33 0 0 1 16.33 15zm7 0h1.34A1.33 1.33 0 0 1 26 16.33v1.34A1.33 1.33 0 0 1 24.67 19h-1.34A1.33 1.33 0 0 1 22 17.67v-1.34A1.33 1.33 0 0 1 23.33 15zm-14 7h1.34A1.33 1.33 0 0 1 12 23.33v1.34A1.33 1.33 0 0 1 10.67 26H9.33A1.33 1.33 0 0 1 8 24.67v-1.34A1.33 1.33 0 0 1 9.33 22zm7 0h1.34A1.33 1.33 0 0 1 19 23.33v1.34A1.33 1.33 0 0 1 17.67 26h-1.34A1.33 1.33 0 0 1 15 24.67v-1.34A1.33 1.33 0 0 1 16.33 22zm7 0h1.34A1.33 1.33 0 0 1 26 23.33v1.34A1.33 1.33 0 0 1 24.67 26h-1.34A1.33 1.33 0 0 1 22 24.67v-1.34A1.33 1.33 0 0 1 23.33 22z"/></svg>