<svg xmlns="http://www.w3.org/2000/svg" viewBox="0 0 32 32"><path d="M10.184.002a10.076 10.076 0 0 0-7.178 2.812L3 2.822l-.01.008C-.99 6.784-.998 13.25 2.973 17.213L14.734 28.95c3.86 3.972 10.27 4.078 14.26.235l.006-.008.01-.008c3.98-3.954 3.988-10.42.017-14.383L17.266 3.05A10.075 10.075 0 0 0 10.184.002zm-.043 2.975c1.805.03 3.599.75 4.963 2.154l.007.008 4.819 4.81-9.983 9.983-4.843-4.834a7.131 7.131 0 0 1 .003-10.139 7.07 7.07 0 0 1 5.034-1.982zm11.912 9.091 4.843 4.834a7.131 7.131 0 0 1-.003 10.139 7.075 7.075 0 0 1-9.998-.17l-.006-.01-4.819-4.81 9.983-9.983z"/></svg>