<svg xmlns="http://www.w3.org/2000/svg" viewBox="0 0 32 26"><path d="M5.5 0C2.48 0 0 2.48 0 5.5v1.797a1.5 1.5 0 0 0 1.5 1.5 1.5 1.5 0 0 0 1.5-1.5V5.5C3 4.102 4.102 3 5.5 3h21C27.898 3 29 4.102 29 5.5v15c0 1.398-1.102 2.5-2.5 2.5h-7.6a1.5 1.5 0 0 0-1.5 1.5 1.5 1.5 0 0 0 1.5 1.5h7.6c3.02 0 5.5-2.48 5.5-5.5v-15C32 2.48 29.52 0 26.5 0h-21zM1.666 11.51A1.5 1.5 0 0 0 .01 12.834a1.5 1.5 0 0 0 1.324 1.656A11.48 11.48 0 0 1 11.51 24.666a1.5 1.5 0 0 0 1.656 1.324 1.5 1.5 0 0 0 1.324-1.656A14.516 14.516 0 0 0 1.666 11.51zm-.336 5.998A1.5 1.5 0 0 0 .03 18.7a1.5 1.5 0 0 0 1.171 1.77c2.303.469 3.86 2.028 4.33 4.33a1.5 1.5 0 0 0 1.77 1.168 1.5 1.5 0 0 0 1.168-1.77 8.482 8.482 0 0 0-6.67-6.67 1.5 1.5 0 0 0-.469-.021zM1.5 23A1.5 1.5 0 0 0 0 24.5 1.5 1.5 0 0 0 1.5 26h.014a1.5 1.5 0 0 0 1.5-1.5 1.5 1.5 0 0 0-1.5-1.5H1.5z"/></svg>