<svg xmlns="http://www.w3.org/2000/svg" viewBox="0 0 32 32"><path d="M16 0C7.18 0 0 7.18 0 16c0 2.79.83 5.48 2.2 7.9L.18 28.83c-.37.9-.08 1.93.53 2.52.62.6 1.66.84 2.54.44l4.7-2.12a15.93 15.93 0 0 0 7.075 2.281C12.56 29.751 11 26.552 11 23c0-6.61 5.39-12 12-12 3.561 0 6.768 1.567 8.969 4.045C31.473 6.668 24.499 0 16 0zm7 14.004c-4.953 0-9 4.047-9 9s4.047 9 9 9h.008c1.263-.007 2.49-.332 3.637-.85l3.517.81a1.5 1.5 0 0 0 1.799-1.798l-.81-3.518c.517-1.147.842-2.373.849-3.636v-.008c0-4.953-4.047-9-9-9z"/></svg>