<svg xmlns="http://www.w3.org/2000/svg" viewBox="0 0 32 32"><path d="M16 0C7.18 0 0 7.18 0 16c0 2.79.83 5.48 2.2 7.9L.18 28.83c-.37.9-.08 1.93.53 2.52.62.6 1.66.84 2.54.44l4.7-2.12a15.93 15.93 0 0 0 7.075 2.281c-1.099-.98-2.016-2.16-2.697-3.48a13.153 13.153 0 0 1-3.558-1.692l-.7-.459-4.45 2 1.9-4.6-.43-.65C-.516 14.42 5.693 3 16 3a12.972 12.972 0 0 1 12.475 9.328c1.327.685 2.51 1.61 3.494 2.717C31.473 6.668 24.499 0 16 0zm7 14c-4.953 0-9 4.047-9 9s4.047 9 9 9a1.5 1.5 0 0 0 .008 0c1.263-.007 2.49-.332 3.637-.85l3.517.81a1.5 1.5 0 0 0 1.799-1.798l-.81-3.517c.517-1.148.842-2.374.849-3.637a1.5 1.5 0 0 0 0-.002 1.5 1.5 0 0 0 0-.002 1.5 1.5 0 0 0 0-.002A1.5 1.5 0 0 0 32 23c0-4.953-4.047-9-9-9zm0 3a5.977 5.977 0 0 1 6 5.996 6 6 0 0 1-.73 2.832 1.5 1.5 0 0 0-.143 1.055L28.5 28.5l-1.617-.373a1.5 1.5 0 0 0-1.055.143 6 6 0 0 1-2.832.73A5.977 5.977 0 0 1 17 23c0-3.331 2.669-6 6-6z"/></svg>