<svg xmlns="http://www.w3.org/2000/svg" viewBox="0 0 32 32"><path d="M16 0C7.18 0 0 7.18 0 16c0 2.79.83 5.48 2.2 7.9L.18 28.83c-.37.9-.08 1.93.53 2.52.62.6 1.66.84 2.54.44l4.7-2.12A15.93 15.93 0 0 0 16 32c8.82 0 16-7.18 16-16S24.82 0 16 0zm0 3c7.2 0 13 5.8 13 13A12.98 12.98 0 0 1 8.77 26.78l-.7-.46-4.45 2 1.9-4.6-.43-.65A13 13 0 0 1 16 3zM9 14a2 2 0 0 0-2 2 2 2 0 0 0 2 2 2 2 0 0 0 2-2 2 2 0 0 0-2-2zm7 0a2 2 0 0 0-2 2 2 2 0 0 0 2 2 2 2 0 0 0 2-2 2 2 0 0 0-2-2zm7 0a2 2 0 0 0-2 2 2 2 0 0 0 2 2 2 2 0 0 0 2-2 2 2 0 0 0-2-2z"/></svg>