<svg xmlns="http://www.w3.org/2000/svg" viewBox="0 0 24 32"><path d="M12 0C5.4 0 0 5.25 0 11.68c0 2.57 1.38 5.65 3.06 8.95a116.962 116.962 0 0 0 5.28 9.15A4.441 4.441 0 0 0 12 32c1.47 0 2.82-.89 3.66-2.22a117.16 117.16 0 0 0 5.29-9.15c1.67-3.3 3.05-6.38 3.05-8.95C24 5.25 18.61 0 12 0zm0 2.96c4.887-.077 8.906 3.833 8.96 8.72 0 1.34-1.13 4.48-2.74 7.64-1.6 3.16-3.61 6.49-5.15 8.91-.43.69-.81.8-1.07.8s-.64-.11-1.07-.8a115.067 115.067 0 0 1-5.15-8.91c-1.6-3.16-2.74-6.3-2.74-7.64 0-4.83 4-8.72 8.96-8.72zM16.502 8a1.5 1.5 0 0 0-1.191.586l-3.895 5.062-2.795-3.144a1.5 1.5 0 0 0-2.117-.125 1.5 1.5 0 0 0-.125 2.117l4 4.5a1.5 1.5 0 0 0 2.31-.082l5-6.5a1.5 1.5 0 0 0-.275-2.103A1.5 1.5 0 0 0 16.502 8z"/></svg>