<svg xmlns="http://www.w3.org/2000/svg" viewBox="0 0 28 32"><path d="M13.47 21a1.5 1.5 0 0 0 0 3h7.03a1.5 1.5 0 0 0 0-3ZM9 22.5a1.5 1.5 0 1 1-3 0 1.5 1.5 0 0 1 3 0Zm4.47-8a1.5 1.5 0 0 0 0 3h7.03a1.5 1.5 0 0 0 0-3zM9 16a1.5 1.5 0 1 1-3 0 1.5 1.5 0 0 1 3 0Zm4.47-8a1.5 1.5 0 0 0 0 3h7.03a1.5 1.5 0 0 0 0-3ZM9 9.5a1.5 1.5 0 1 1-3 0 1.5 1.5 0 0 1 3 0ZM5.5 0A5.52 5.52 0 0 0 0 5.5v21C0 29.52 2.48 32 5.5 32h17c3.02 0 5.5-2.48 5.5-5.5v-21C28 2.48 25.52 0 22.5 0Zm0 3h17C23.9 3 25 4.1 25 5.5v21c0 1.4-1.1 2.5-2.5 2.5h-17C4.1 29 3 27.9 3 26.5v-21C3 4.1 4.1 3 5.5 3Z"/></svg>