<svg xmlns="http://www.w3.org/2000/svg" viewBox="0 0 28 32"><path d="M5.5 0A5.52 5.52 0 0 0 0 5.5v21C0 29.52 2.48 32 5.5 32h17c3.02 0 5.5-2.48 5.5-5.5v-21C28 2.48 25.52 0 22.5 0h-17zm2 8C8.25 8 9 8.5 9 9.5c0 2-3 2-3 0C6 8.5 6.75 8 7.5 8zm5.97 0h7.03c2 0 2 3 0 3h-7.03c-2 0-2-3 0-3zM7.5 14.5c.75 0 1.5.5 1.5 1.5 0 2-3 2-3 0 0-1 .75-1.5 1.5-1.5zm5.97 0h7.03c2 0 2 3 0 3h-7.03c-2 0-2-3 0-3zM7.5 21c.75 0 1.5.5 1.5 1.5 0 2-3 2-3 0 0-1 .75-1.5 1.5-1.5zm5.97 0h7.03c2 0 2 3 0 3h-7.03c-2 0-2-3 0-3z"/></svg>