<svg xmlns="http://www.w3.org/2000/svg" viewBox="0 0 28 32"><path d="M14 0c-2.468 0-4.5 2.032-4.5 4.5V15h-2C3.376 15 0 18.376 0 22.5v6C0 30.415 1.585 32 3.5 32h21c1.915 0 3.5-1.585 3.5-3.5v-6c0-4.124-3.376-7.5-7.5-7.5h-2V4.5C18.5 2.032 16.468 0 14 0Zm0 3c.846 0 1.5.654 1.5 1.5V15h-3V4.5c0-.846.654-1.5 1.5-1.5ZM7.5 18h13c2.503 0 4.5 1.997 4.5 4.5v6c0 .294-.206.5-.5.5h-3v-4.5a1.5 1.5 0 0 0-3 0V29h-3v-4.5a1.5 1.5 0 0 0-3 0V29h-3v-4.5a1.5 1.5 0 0 0-3 0V29h-3a.479.479 0 0 1-.5-.5v-6C3 19.997 4.997 18 7.5 18Z"/></svg>