<svg xmlns="http://www.w3.org/2000/svg" viewBox="0 0 31 32"><path d="M21.184.01c-1.82-.107-3.78.584-5.371 2.17a1.5 1.5 0 0 0-.002 0L2.899 15.074c-3.866 3.862-3.865 10.17.002 14.03 3.867 3.862 10.179 3.863 14.047.003L29.86 16.214a1.5 1.5 0 0 0 .002-2.121 1.5 1.5 0 0 0-2.121-.002L14.829 26.983a6.924 6.924 0 0 1-9.809-.002 6.888 6.888 0 0 1 0-9.785L17.93 4.304c1.06-1.057 2.08-1.356 3.076-1.297.996.059 2 .545 2.758 1.303.758.757 1.242 1.754 1.3 2.746.06.99-.24 2.007-1.3 3.064L10.838 23.012c-.397.396-.673.45-.965.432-.291-.017-.63-.173-.892-.434-.261-.26-.415-.598-.432-.886-.017-.29.035-.561.432-.957L20.909 9.27a1.5 1.5 0 0 0 .004-2.12 1.5 1.5 0 0 0-2.122-.005L6.861 19.042c-.928.926-1.374 2.14-1.308 3.257.066 1.117.576 2.103 1.309 2.834.733.732 1.717 1.239 2.834 1.305 1.116.066 2.333-.377 3.261-1.303l12.926-12.89c1.591-1.587 2.285-3.546 2.178-5.365-.107-1.82-.948-3.466-2.178-4.693C24.653.959 23.004.119 21.184.01Z"/></svg>