<svg xmlns="http://www.w3.org/2000/svg" viewBox="0 0 24 32"><path d="M12 0C5.4 0 0 5.25 0 11.68c0 2.57 1.38 5.65 3.06 8.95a117 117 0 0 0 5.28 9.15A4.44 4.44 0 0 0 12 32c1.47 0 2.82-.89 3.66-2.22a117.2 117.2 0 0 0 5.29-9.15c1.67-3.3 3.05-6.38 3.05-8.95C24 5.25 18.61 0 12 0zm3.16 7.8c.38 0 .77.14 1.06.43a1.5 1.5 0 0 1 0 2.13l-2.12 2.12 2.14 2.14a1.5 1.5 0 1 1-2.12 2.12l-2.14-2.14-2.12 2.12a1.5 1.5 0 0 1-2.13-2.12l2.13-2.12-2.1-2.1a1.5 1.5 0 1 1 2.12-2.12l2.1 2.1 2.12-2.13c.3-.29.68-.43 1.06-.43z"/></svg>