<svg xmlns="http://www.w3.org/2000/svg" viewBox="0 0 32 26"><path d="M5.5 0A5.52 5.52 0 0 0 0 5.5v15C0 23.52 2.48 26 5.5 26h21c3.02 0 5.5-2.48 5.5-5.5v-15C32 2.48 29.52 0 26.5 0Zm0 3h21C27.9 3 29 4.1 29 5.5v15c0 1.4-1.1 2.5-2.5 2.5h-21C4.1 23 3 21.9 3 20.5v-15C3 4.1 4.1 3 5.5 3Zm1 10a1.5 1.5 0 0 0 0 3h3a1.5 1.5 0 0 0 0-3Zm9 0a1.5 1.5 0 0 0 0 3h10a1.5 1.5 0 0 0 0-3Zm-9 5a1.5 1.5 0 0 0 0 3h10a1.5 1.5 0 0 0 0-3Zm16 0a1.5 1.5 0 0 0 0 3h3a1.5 1.5 0 0 0 0-3Z" color="#000" style="-inkscape-stroke:none"/></svg>