<svg xmlns="http://www.w3.org/2000/svg" xml:space="preserve" viewBox="0 0 32 30"><path d="M15.5 0A11.95 11.95 0 0 0 4 9.09 8 8 0 0 0 0 16c0 4.27 3.3 7.84 7.46 8l2.23-6.04a3 3 0 0 1 3.85-1.77A3 3 0 0 1 15 17.35 3 3 0 0 1 17.38 16a3 3 0 0 1 1.16.18A3 3 0 0 1 20 17.35a3 3 0 0 1 3.53-1.16 3 3 0 0 1 1.77 3.85L23.85 24h.65c4.12 0 7.5-3.38 7.5-7.5a7.44 7.44 0 0 0-4.89-6.92A11.93 11.93 0 0 0 15.5 0zm-2.86 17.5a1.5 1.5 0 0 0-1.55.98l-3.5 9.5a1.5 1.5 0 0 0 .89 1.93 1.5 1.5 0 0 0 1.93-.89l3.5-9.5a1.5 1.5 0 0 0-.89-1.93 1.5 1.5 0 0 0-.38-.08zm5 0a1.5 1.5 0 0 0-1.55.98L12.6 28a1.5 1.5 0 0 0 .9 1.93 1.5 1.5 0 0 0 1.92-.9l3.5-9.51a1.5 1.5 0 0 0-.9-1.93 1.5 1.5 0 0 0-.38-.08zm5 0a1.5 1.5 0 0 0-1.55.98l-3.5 9.5a1.5 1.5 0 0 0 .89 1.93 1.5 1.5 0 0 0 1.93-.89l3.5-9.5a1.5 1.5 0 0 0-.89-1.93 1.5 1.5 0 0 0-.38-.08z"/></svg>