<svg xmlns="http://www.w3.org/2000/svg" viewBox="0 0 32 24"><path d="M15.496 0C10 .013 5.334 3.822 3.994 9.088A7.996 7.996 0 0 0 0 16c0 4.37 3.455 8 7.75 8H24.5c4.124 0 7.5-3.376 7.5-7.5 0-3.138-2.012-5.832-4.889-6.924C25.952 4.083 21.2.002 15.5 0h-.002Zm.004 3h.004a8.981 8.981 0 0 1 8.92 7.86l.13 1.025 1.005.242A4.488 4.488 0 0 1 29 16.5c0 2.503-1.997 4.5-4.5 4.5H7.75C5.141 21 3 18.81 3 16c.001-1.972 1.101-3.731 2.768-4.537a4.816 4.816 0 0 1 2.275-.086c1.246.262 2.631.94 3.516 4.035a1.5 1.5 0 0 0 1.853 1.03 1.5 1.5 0 0 0 1.03-1.854c-1.116-3.906-3.63-5.693-5.782-6.147a7.402 7.402 0 0 0-1.33-.152A8.98 8.98 0 0 1 15.5 3Z"/></svg>