<svg xmlns="http://www.w3.org/2000/svg" viewBox="0 0 32 30"><path d="M15.5 0A11.95 11.95 0 0 0 4 9.09 8 8 0 0 0 0 16a7.97 7.97 0 0 0 6.26 7.85c.8.16 1.49-.52 1.49-1.35 0-.83-.7-1.48-1.48-1.74A4.95 4.95 0 0 1 3 16c0-1.97 1.1-3.73 2.77-4.54a4.82 4.82 0 0 1 2.27-.08c1.25.26 2.63.94 3.52 4.03a1.5 1.5 0 0 0 2.88-.82c-1.11-3.9-3.63-5.7-5.78-6.15a7.4 7.4 0 0 0-1.33-.15 8.98 8.98 0 0 1 17.1 2.57l.12 1.02 1 .25a4.49 4.49 0 0 1 .43 8.63c-.78.26-1.48.92-1.48 1.75 0 .82.68 1.5 1.5 1.34 3.41-.7 6-3.74 6-7.35a7.44 7.44 0 0 0-4.89-6.92A11.93 11.93 0 0 0 15.5 0zm-2.86 17.5a1.5 1.5 0 0 0-1.55.98l-3.5 9.5a1.5 1.5 0 0 0 .89 1.93 1.5 1.5 0 0 0 1.93-.89l3.5-9.5a1.5 1.5 0 0 0-.89-1.93 1.5 1.5 0 0 0-.38-.08zm5 0a1.5 1.5 0 0 0-1.55.98l-3.5 9.5a1.5 1.5 0 0 0 .89 1.93 1.5 1.5 0 0 0 1.93-.89l3.5-9.5a1.5 1.5 0 0 0-.89-1.93 1.5 1.5 0 0 0-.38-.08zm5 0a1.5 1.5 0 0 0-1.55.98l-3.5 9.5a1.5 1.5 0 0 0 .89 1.93 1.5 1.5 0 0 0 1.93-.89l3.5-9.5a1.5 1.5 0 0 0-.89-1.93 1.5 1.5 0 0 0-.38-.08z" style="-inkscape-stroke:none"/></svg>