<svg xmlns="http://www.w3.org/2000/svg" viewBox="0 0 32 32"><path d="M16 0c-4.293 0-7.755 3.092-8.64 7.13C3.27 7.477 0 10.827 0 15c0 4.4 3.6 8 8 8h2a1.5 1.5 0 0 0 1.5-1.5A1.5 1.5 0 0 0 10 20H8c-2.78 0-5-2.22-5-5a4.977 4.977 0 0 1 5.396-4.984 1.5 1.5 0 0 0 1.618-1.4A5.98 5.98 0 0 1 16 3a5.98 5.98 0 0 1 5.986 5.629 1.5 1.5 0 0 0 1.666 1.398c.12-.013.24-.02.36-.025A4.976 4.976 0 0 1 29 15c0 2.78-2.22 5-5 5h-2a1.5 1.5 0 0 0-1.5 1.5A1.5 1.5 0 0 0 22 23h2c4.4 0 8-3.6 8-8 0-4.173-3.27-7.523-7.357-7.87C23.757 3.093 20.293 0 16 0Zm0 14a1.5 1.5 0 0 0-1.5 1.5v11.879l-2.563-2.05a1.5 1.5 0 0 0-1.103-.32 1.5 1.5 0 0 0-1.006.553 1.5 1.5 0 0 0 .235 2.11l5 4a1.5 1.5 0 0 0 .1.06 1.5 1.5 0 0 0 .167.1 1.5 1.5 0 0 0 .18.074 1.5 1.5 0 0 0 .2.057 1.5 1.5 0 0 0 .185.023A1.5 1.5 0 0 0 16 32a1.5 1.5 0 0 0 .105-.014 1.5 1.5 0 0 0 .184-.023 1.5 1.5 0 0 0 .201-.057 1.5 1.5 0 0 0 .18-.074 1.5 1.5 0 0 0 .168-.1 1.5 1.5 0 0 0 .1-.06l5-4a1.5 1.5 0 0 0 .234-2.11 1.5 1.5 0 0 0-2.11-.234l-2.562 2.05V15.5A1.5 1.5 0 0 0 16 14Z"/></svg>