<svg xmlns="http://www.w3.org/2000/svg" viewBox="0 0 32 28"><path d="M11.7 0a1.5 1.5 0 0 0-1.06.47l-9.08 9.6a5.74 5.74 0 0 0 0 7.87l9.08 9.6a1.5 1.5 0 0 0 2.13.05 1.5 1.5 0 0 0 .05-2.12l-9.08-9.6a2.7 2.7 0 0 1 0-3.74l9.08-9.6a1.5 1.5 0 0 0-.05-2.12 1.5 1.5 0 0 0-1.08-.4Zm8.6 0a1.5 1.5 0 0 0-1.07.41 1.5 1.5 0 0 0-.05 2.12l9.08 9.6c1 1.06 1 2.68 0 3.74l-9.08 9.6a1.5 1.5 0 0 0 .05 2.12 1.5 1.5 0 0 0 2.13-.06l9.08-9.6a5.74 5.74 0 0 0 0-7.87L21.36.46A1.5 1.5 0 0 0 20.3 0Z" color="#000" style="-inkscape-stroke:none"/></svg>