<svg xmlns="http://www.w3.org/2000/svg" viewBox="0 0 32 32"><path d="M16 5.729c-.902 0-1.805.43-2.283 1.29l-3.057 5.504a5.104 5.104 0 0 0 0 4.954l3.057 5.503c.957 1.723 3.61 1.723 4.566 0l3.057-5.503a5.104 5.104 0 0 0 0-4.954L18.283 7.02c-.478-.862-1.381-1.291-2.283-1.291Zm0 3.359 2.717 4.892c.176.318.265.67.265 1.02l-5.964-.003c0-.35.089-.7.265-1.017zM4.686 3.686c-6.236 6.236-6.236 16.392 0 22.628 6.236 6.236 16.392 6.236 22.628 0 6.236-6.236 6.236-16.392 0-22.628-6.236-6.236-16.392-6.236-22.628 0zm2.122 2.122a12.977 12.977 0 0 1 18.384 0 12.977 12.977 0 0 1 0 18.384 12.977 12.977 0 0 1-18.384 0 12.977 12.977 0 0 1 0-18.384z" transform="rotate(45 14.793 15.5)"/></svg>