<svg xmlns="http://www.w3.org/2000/svg" viewBox="0 0 32 32"><path d="M4.686 3.686c-6.236 6.236-6.236 16.392 0 22.628 6.236 6.236 16.392 6.236 22.628 0 6.236-6.236 6.236-16.392 0-22.628-6.236-6.236-16.392-6.236-22.628 0zm9.463 2.768c.498-.484 1.175-.726 1.851-.726.902 0 1.804.43 2.283 1.29l3.058 5.506a5.103 5.103 0 0 1 0 4.952l-3.058 5.505c-.957 1.723-3.609 1.723-4.566 0l-3.058-5.505a5.103 5.103 0 0 1 0-4.952l3.058-5.505c.12-.216.266-.404.432-.565zM16 9.089l-2.717 4.89a2.096 2.096 0 0 0-.265 1.017l5.964.003c0-.351-.089-.702-.265-1.02L16 9.09z" transform="rotate(45 14.793 15.5)"/></svg>