<svg xmlns="http://www.w3.org/2000/svg" viewBox="0 0 32 29"><path d="M7.5 0C6.67 0 6 .67 6 1.5V3H1.5c-2 0-2 3 0 3H6v1.5a1.5 1.5 0 0 0 3 0v-6C9 .67 8.33 0 7.5 0Zm6 3a1.5 1.5 0 0 0 0 3h17c2 0 2-3 0-3zm7 7c-.83 0-1.5.67-1.5 1.5V13H1.5c-2 0-2 3 0 3H19v1.5a1.5 1.5 0 0 0 3 0v-6c0-.83-.67-1.5-1.5-1.5Zm6 3a1.5 1.5 0 0 0 0 3h4c2 0 2-3 0-3zM9 21.5V23H1.5c-2 0-2 3 0 3H9v1.5a1.5 1.5 0 0 0 3 0v-6a1.5 1.5 0 0 0-3 0Zm6 3c0 .83.67 1.5 1.5 1.5h14c2 0 2-3 0-3h-14c-.83 0-1.5.67-1.5 1.5Z" style="-inkscape-stroke:none"/></svg>