<svg xmlns="http://www.w3.org/2000/svg" viewBox="0 0 32 29"><path d="M8.5 0a4.53 4.53 0 0 0-4.24 3H1.5a1.5 1.5 0 0 0 0 3h2.76c.63 1.74 2.3 3 4.24 3a4.53 4.53 0 0 0 4.24-3H30.5a1.5 1.5 0 0 0 0-3H12.74c-.63-1.74-2.3-3-4.24-3Zm0 3c.85 0 1.5.65 1.5 1.5S9.35 6 8.5 6 7 5.35 7 4.5 7.65 3 8.5 3Zm15 7a4.53 4.53 0 0 0-4.24 3H1.5a1.5 1.5 0 0 0 0 3h17.76c.63 1.74 2.3 3 4.24 3a4.53 4.53 0 0 0 4.24-3h2.76a1.5 1.5 0 0 0 0-3h-2.76c-.63-1.74-2.3-3-4.24-3Zm0 3c.85 0 1.5.65 1.5 1.5s-.65 1.5-1.5 1.5-1.5-.65-1.5-1.5.65-1.5 1.5-1.5Zm-10 7a4.53 4.53 0 0 0-4.24 3H1.5a1.5 1.5 0 0 0 0 3h7.76c.63 1.74 2.3 3 4.24 3a4.53 4.53 0 0 0 4.24-3H30.5a1.5 1.5 0 0 0 0-3H17.74c-.63-1.74-2.3-3-4.24-3Zm0 3c.85 0 1.5.65 1.5 1.5s-.65 1.5-1.5 1.5-1.5-.65-1.5-1.5.65-1.5 1.5-1.5Z" style="-inkscape-stroke:none"/></svg>