<svg xmlns="http://www.w3.org/2000/svg" viewBox="0 0 32 32"><path d="M11.5 0A1.5 1.5 0 0 0 10 1.5V4h-.5C6.48 4 4 6.48 4 9.5v.5H1.5a1.5 1.5 0 0 0 0 3H4v6H1.5a1.5 1.5 0 0 0 0 3H4v.5C4 25.52 6.48 28 9.5 28h.5v2.5a1.5 1.5 0 0 0 3 0V28h6v2.5a1.5 1.5 0 0 0 3 0V28h.5c3.02 0 5.5-2.48 5.5-5.5V22h2.5a1.5 1.5 0 0 0 0-3H28v-6h2.5a1.5 1.5 0 0 0 0-3H28v-.5C28 6.48 25.52 4 22.5 4H22V1.5a1.5 1.5 0 0 0-3 0V4h-6V1.5A1.5 1.5 0 0 0 11.5 0Zm-2 7h13C23.898 7 25 8.102 25 9.5v13c0 1.398-1.102 2.5-2.5 2.5h-13A2.478 2.478 0 0 1 7 22.5v-13C7 8.102 8.102 7 9.5 7Zm2 3a1.5 1.5 0 0 0-1.5 1.5v9.002a1.5 1.5 0 0 0 1.5 1.5h9a1.5 1.5 0 0 0 1.5-1.5V11.5a1.5 1.5 0 0 0-1.5-1.5z"/></svg>