<svg xmlns="http://www.w3.org/2000/svg" viewBox="0 0 32 32"><path d="M3.5 21C1.585 21 0 22.585 0 24.5v4C0 30.415 1.585 32 3.5 32h8c1.915 0 3.5-1.585 3.5-3.5v-4c0-1.915-1.585-3.5-3.5-3.5Zm0 3h8c.294 0 .5.206.5.5v4c0 .294-.206.5-.5.5h-8a.479.479 0 0 1-.5-.5v-4c0-.294.206-.5.5-.5Zm17-11c-1.915 0-3.5 1.585-3.5 3.5v12c0 1.915 1.585 3.5 3.5 3.5h8c1.915 0 3.5-1.585 3.5-3.5v-12c0-1.915-1.585-3.5-3.5-3.5Zm0 3h8c.294 0 .5.206.5.5v12c0 .294-.206.5-.5.5h-8a.479.479 0 0 1-.5-.5v-12c0-.294.206-.5.5-.5Zm0-16C18.585 0 17 1.585 17 3.5v4c0 1.915 1.585 3.5 3.5 3.5h8c1.915 0 3.5-1.585 3.5-3.5v-4C32 1.585 30.415 0 28.5 0Zm0 3h8c.294 0 .5.206.5.5v4c0 .294-.206.5-.5.5h-8a.479.479 0 0 1-.5-.5v-4c0-.294.206-.5.5-.5Zm-17-3C1.585 0 0 1.585 0 3.5v12C0 17.415 1.585 19 3.5 19h8c1.915 0 3.5-1.585 3.5-3.5v-12C15 1.585 13.415 0 11.5 0Zm0 3h8c.294 0 .5.206.5.5v12c0 .294-.206.5-.5.5h-8a.479.479 0 0 1-.5-.5v-12c0-.294.206-.5.5-.5Z"/></svg>