<svg xmlns="http://www.w3.org/2000/svg" viewBox="0 0 32 32"><path d="M11 0C9.3 0 7.67.75 6.56 2.04L1 8.51a4.14 4.14 0 0 0-.99 2.88 1.5 1.5 0 0 0-.02.11 1.5 1.5 0 0 0 .06.32c.09.59.3 1.16.65 1.68l10.71 16.08a5.54 5.54 0 0 0 9.16 0L31.3 13.5a4.15 4.15 0 0 0-.3-5l-5.57-6.46A5.86 5.86 0 0 0 21 0H11zm0 3h.79l-2.8 7H3.67l5.16-6c.54-.64 1.33-1 2.16-1zm4.02 0h1.96l2.8 7h-7.57l2.8-7zm5.2 0H21c.83 0 1.62.36 2.17 1l5.17 6h-5.32l-2.8-7zM3.97 13H8.9l4.48 14.1L3.98 13zm8.07 0h7.89l-4 12.29L12.05 13zm11.04 0h4.95L18.4 27.43 23.1 13z"/></svg>