<svg xmlns="http://www.w3.org/2000/svg" viewBox="0 0 32 25"><path d="M12.137.006a1.5 1.5 0 0 0-.573.06l-6.472 2a1.5 1.5 0 0 0-.81.608S-.975 10.542.16 20.176a1.5 1.5 0 0 0 .846 1.18l7.369 3.5a1.5 1.5 0 0 0 1.436-.083c.736-.457.947-.977 1.191-1.488.244-.51.43-1.047.586-1.555.082-.266.068-.269.13-.507 4.214.92 7.334.376 8.802 0l1.033 2.797a1.5 1.5 0 0 0 2.04.84l7.509-3.5a1.5 1.5 0 0 0 .863-1.292c.482-10.476-4.283-17.42-4.283-17.42a1.5 1.5 0 0 0-.793-.582l-6.473-2a1.5 1.5 0 0 0-1.867.961l-.121.366c-1.049-.118-2.656-.128-4.85.068l-.15-.441A1.5 1.5 0 0 0 12.137.006zm-1.084 3.36.039.114a1.5 1.5 0 0 0 1.66 1c3.167-.508 6.486 0 6.486 0a1.5 1.5 0 0 0 1.66-1.007l.036-.106 4.468 1.381c.345.518 3.639 5.779 3.512 14.32l-5.111 2.383-.907-2.455a1.5 1.5 0 0 0-1.859-.91s-5.13 1.553-9.96-.014a1.5 1.5 0 0 0-1.934 1.133s-.163.8-.422 1.645c-.082.266-.176.485-.268.72L3.16 19.057C2.576 11.419 6.22 5.33 6.588 4.744l4.465-1.379zM11.5 9c-.884 0-1.579.543-1.955 1.107C9.169 10.672 9 11.316 9 12c0 .684.169 1.328.545 1.893C9.92 14.457 10.615 15 11.5 15c.884 0 1.579-.543 1.955-1.107.376-.565.545-1.209.545-1.893 0-.684-.169-1.328-.545-1.893C13.08 9.543 12.385 9 11.5 9zm9 0c-.884 0-1.579.543-1.955 1.107C18.169 10.672 18 11.316 18 12c0 .684.169 1.328.545 1.893.376.564 1.07 1.107 1.955 1.107.884 0 1.579-.543 1.955-1.107.376-.565.545-1.209.545-1.893 0-.684-.169-1.328-.545-1.893C22.08 9.543 21.385 9 20.5 9z"/></svg>