<svg xmlns="http://www.w3.org/2000/svg" viewBox="0 0 32 25"><path d="M12.137.006a1.5 1.5 0 0 0-.573.06l-6.472 2a1.5 1.5 0 0 0-.81.608S-.975 10.542.16 20.176c.06.512.38.958.846 1.18l7.369 3.5a1.5 1.5 0 0 0 1.436-.083c.736-.457.947-.977 1.191-1.488.244-.51.43-1.047.586-1.555.082-.266.068-.269.13-.507 4.214.92 7.334.376 8.802 0l1.033 2.797a1.5 1.5 0 0 0 2.04.84l7.509-3.5a1.5 1.5 0 0 0 .863-1.292c.482-10.476-4.283-17.42-4.283-17.42a1.5 1.5 0 0 0-.793-.582l-6.473-2a1.5 1.5 0 0 0-1.867.961l-.121.366c-1.049-.118-2.656-.128-4.85.068l-.15-.441A1.5 1.5 0 0 0 12.137.006zM11.5 9c.884 0 1.579.543 1.955 1.107.376.565.545 1.209.545 1.893 0 .684-.169 1.328-.545 1.893C13.08 14.457 12.385 15 11.5 15c-.884 0-1.579-.543-1.955-1.107C9.169 13.328 9 12.684 9 12c0-.684.169-1.328.545-1.893C9.92 9.543 10.615 9 11.5 9zm9 0c.884 0 1.579.543 1.955 1.107.376.565.545 1.209.545 1.893 0 .684-.169 1.328-.545 1.893C22.08 14.457 21.385 15 20.5 15c-.884 0-1.579-.543-1.955-1.107C18.169 13.328 18 12.684 18 12c0-.684.169-1.328.545-1.893C18.92 9.543 19.615 9 20.5 9z"/></svg>