<svg xmlns="http://www.w3.org/2000/svg" viewBox="0 0 32 28"><path d="M5.5-.02A5.54 5.54 0 0 0-.02 5.5V17a5.54 5.54 0 0 0 5.52 5.52H11v3.07H8.5c-.84 0-1.51.7-1.51 1.54 0 .85.67 1.54 1.5 1.54h15.02c.83 0 1.5-.7 1.5-1.54 0-.85-.67-1.54-1.5-1.54H21v-3.07h5.5A5.54 5.54 0 0 0 32 17V5.5a5.54 5.54 0 0 0-5.5-5.52zm0 3.04h21c1.39 0 2.48 1.1 2.48 2.48V17c0 1.39-1.1 2.48-2.48 2.48h-21A2.46 2.46 0 0 1 3.02 17V5.5c0-1.39 1.1-2.48 2.48-2.48zm8.5 19.5h4v3.07h-4z" transform="matrix(.99881 0 0 .97611 .02 .02)"/></svg>