<svg xmlns="http://www.w3.org/2000/svg" viewBox="0 0 32 32"><path d="M16 0C7.181 0 0 7.181 0 16c0 8.819 7.181 16 16 16 8.819 0 16-7.181 16-16 0-8.819-7.181-16-16-16Zm0 6a1.5 1.5 0 0 1 1.5 1.5v13.379l3.44-3.44a1.5 1.5 0 0 1 2.12 0 1.5 1.5 0 0 1 0 2.122l-6 6a1.5 1.5 0 0 1-.117.09 1.5 1.5 0 0 1-.119.091 1.5 1.5 0 0 1-.281.143 1.5 1.5 0 0 1-.11.045A1.5 1.5 0 0 1 16 26a1.5 1.5 0 0 1-.365-.047 1.5 1.5 0 0 1-.045-.014 1.5 1.5 0 0 1-.34-.14 1.5 1.5 0 0 1-.303-.233 1.5 1.5 0 0 1-.008-.005 1.5 1.5 0 0 1-.054-.057L8.939 19.56a1.5 1.5 0 0 1 0-2.122 1.5 1.5 0 0 1 2.122 0l3.439 3.44V7.5A1.5 1.5 0 0 1 16 6Z"/></svg>