<svg xmlns="http://www.w3.org/2000/svg" viewBox="0 0 32 32"><path d="M16 26a1.5 1.5 0 0 0 .434-.07 1.5 1.5 0 0 0 .109-.045 1.5 1.5 0 0 0 .281-.143 1.5 1.5 0 0 0 .12-.092 1.5 1.5 0 0 0 .117-.09l6-6a1.5 1.5 0 0 0 0-2.12 1.5 1.5 0 0 0-2.122 0L17.5 20.879V7.5A1.5 1.5 0 0 0 16 6a1.5 1.5 0 0 0-1.5 1.5v13.379l-3.44-3.44a1.5 1.5 0 0 0-2.12 0 1.5 1.5 0 0 0 0 2.122l5.945 5.943a1.5 1.5 0 0 0 .054.057 1.5 1.5 0 0 0 .008.005 1.5 1.5 0 0 0 .303.233 1.5 1.5 0 0 0 .34.14 1.5 1.5 0 0 0 .045.014A1.5 1.5 0 0 0 16 26ZM5.5 0C2.48 0 0 2.48 0 5.5v21C0 29.52 2.48 32 5.5 32h21c3.02 0 5.5-2.48 5.5-5.5v-21C32 2.48 29.52 0 26.5 0Zm0 3h21C27.898 3 29 4.102 29 5.5v21c0 1.398-1.102 2.5-2.5 2.5h-21A2.478 2.478 0 0 1 3 26.5v-21C3 4.102 4.102 3 5.5 3Z"/></svg>