<svg xmlns="http://www.w3.org/2000/svg" viewBox="0 0 32 32"><path d="M16 0C7.181 0 0 7.181 0 16c0 8.819 7.181 16 16 16 8.819 0 16-7.181 16-16 0-8.819-7.181-16-16-16Zm0 3c7.197 0 13 5.803 13 13s-5.803 13-13 13S3 23.197 3 16 8.803 3 16 3Z" style="-inkscape-stroke:none"/><path d="M16 26a1.5 1.5 0 0 0 .434-.07 1.5 1.5 0 0 0 .109-.045 1.5 1.5 0 0 0 .281-.143 1.5 1.5 0 0 0 .12-.092 1.5 1.5 0 0 0 .117-.09l6-6a1.5 1.5 0 0 0 0-2.12 1.5 1.5 0 0 0-2.122 0L17.5 20.878V7.5A1.5 1.5 0 0 0 16 6a1.5 1.5 0 0 0-1.5 1.5v13.379l-3.44-3.44a1.5 1.5 0 0 0-2.12 0 1.5 1.5 0 0 0 0 2.122l5.945 5.943a1.5 1.5 0 0 0 .054.057 1.5 1.5 0 0 0 .008.005 1.5 1.5 0 0 0 .303.233 1.5 1.5 0 0 0 .34.14 1.5 1.5 0 0 0 .045.014A1.5 1.5 0 0 0 16 26Z"/></svg>