<svg xmlns="http://www.w3.org/2000/svg" viewBox="0 0 15 32"><path d="M2.5 2C1.25 2 0 2.833 0 4.5c0 3.333 5 3.333 5 0C5 2.833 3.75 2 2.5 2zm10 0c-1.25 0-2.5.833-2.5 2.5 0 3.333 5 3.333 5 0C15 2.833 13.75 2 12.5 2zm-10 11.5c-1.25 0-2.5.834-2.5 2.5 0 3.333 5 3.333 5 0 0-1.666-1.25-2.5-2.5-2.5zm10 0c-1.25 0-2.5.834-2.5 2.5 0 3.333 5 3.333 5 0 0-1.666-1.25-2.5-2.5-2.5zM2.5 25c-1.25 0-2.5.834-2.5 2.5 0 3.333 5 3.333 5 0C5 25.834 3.75 25 2.5 25zm10 0c-1.25 0-2.5.834-2.5 2.5 0 3.333 5 3.333 5 0 0-1.666-1.25-2.5-2.5-2.5z"/></svg>