<svg xmlns="http://www.w3.org/2000/svg" viewBox="0 0 32 32"><path d="M16 0A16 16 0 0 0 0 16a16 16 0 0 0 16 16 16 16 0 0 0 16-16A16 16 0 0 0 16 0zm0 3c1.917 0 3.734.415 5.37 1.154-.931.614-2.458 1.565-2.85 2.102-.217.296-.522 1.81-1.518 1.935-.261.033-.612.01-.982-.013-.995-.065-2.022.64-2.457 1.822-.12 1-.659 1.991.236 3.047.143.169.17.48.072.83-.128.46-.897.759-1.105.516-.503-.584-1.16-1.717-1.97-1.942-.294-.081-.617-.149-.93-.215-.88-.184-1.875-.393-2.106-.886-.169-.362-.169-.86-.168-1.385 0-.666 0-1.42-.326-2.152-.11-.246-.44-.603-.657-.813C8.973 4.534 12.302 3 16 3zm4.96 14.07c1.1-.034 1.465.52 1.948 1.254.061.093.123.184.186.276.525.767.912.943 1.5 1.21.263.12.593.27 1.033.52 1.043.596 1.186 1.282 1.186 2.758v.144a12.998 12.998 0 0 1-5.782 4.762 6.037 6.037 0 0 0-.416-1.75c-.367-.895-1.194-2.67-3.219-4.795-.54-.568-.505-1.002-.312-2.297l.021-.146c.132-.887.352-1.411 3.336-1.885.19-.03.363-.046.52-.05z"/></svg>