<svg xmlns="http://www.w3.org/2000/svg" viewBox="0 0 32 32"><path d="M16 0C7.181 0 0 7.181 0 16c0 8.819 7.181 16 16 16 8.819 0 16-7.181 16-16 0-8.819-7.181-16-16-16Zm5.37 4.154A12.974 12.974 0 0 1 29 16c0 2.68-.805 5.166-2.188 7.232v-.144c0-1.476-.142-2.162-1.185-2.758-.44-.25-.77-.4-1.033-.52-.588-.267-.975-.443-1.5-1.21a17.602 17.602 0 0 1-.186-.276c-.552-.839-.95-1.443-2.467-1.203-2.984.474-3.204.998-3.336 1.885l-.021.146c-.193 1.295-.228 1.73.312 2.297 2.025 2.124 2.852 3.9 3.22 4.795.117.287.354.956.415 1.75A13.008 13.008 0 0 1 16 29C8.803 29 3 23.197 3 16c0-3.499 1.373-6.667 3.61-9 .215.21.546.567.656.813.326.732.326 1.486.326 2.152 0 .526-.001 1.023.168 1.385.231.493 1.227.702 2.105.886.314.066.637.134.932.215.81.225 1.466 1.358 1.969 1.942.208.243.977-.056 1.105-.516.097-.35.071-.661-.072-.83-.895-1.056-.357-2.047-.236-3.047.435-1.182 1.462-1.887 2.457-1.822.37.024.721.046.982.013.996-.125 1.3-1.639 1.518-1.935.392-.537 1.919-1.488 2.85-2.102z"/></g></svg>