<svg xmlns="http://www.w3.org/2000/svg" viewBox="0 0 30 32"><path d="M1.526 30.5H28.5M1.525 29a1.5 1.5 0 0 0-1.5 1.5 1.5 1.5 0 0 0 1.5 1.5H28.5a1.5 1.5 0 0 0 1.5-1.5 1.5 1.5 0 0 0-1.5-1.5ZM25.768.008a4.557 4.557 0 0 0-3.274 1.076L2.044 18.561A5.842 5.842 0 0 0 0 23v2.5A1.5 1.5 0 0 0 1.5 27H4a6.828 6.828 0 0 0 4.492-1.686l19.99-17.46c1.86-1.624 2.035-4.501.39-6.34l-.003-.004A4.557 4.557 0 0 0 25.768.008Zm-.2 2.974c.393.027.775.206 1.065.53l.004.004a1.44 1.44 0 0 1-.127 2.078L6.52 23.054A3.828 3.828 0 0 1 4 24H3v-1c0-.831.362-1.618.994-2.158l20.45-17.477c.33-.282.732-.409 1.124-.383z"/></svg>