<svg xmlns="http://www.w3.org/2000/svg" viewBox="0 0 32 30"><path d="M17.04-.89c-.85 0-1.7.2-2.47.6L2.86 5.81c-2.47 1.28-2.4 5.05.11 6.24l3.06 1.45v8.11c0 1.8 1.02 3.44 2.62 4.24l5.03 2.53a7.47 7.47 0 0 0 6.7 0l5.94-2.98a3.13 3.13 0 0 0 1.71-2.79V13.6l2-.93v8.95c0 2 3 2 3 0V9.15c.09-1.33-.6-2.6-1.78-3.23L19.5-.28c-.76-.4-1.6-.6-2.46-.6zm-.01 3c.37 0 .74.1 1.07.27l11.75 6.2c.2.1.31.26.32.42 0 .11-.03.19-.09.25a.7.7 0 0 1-.25.2l-11.62 5.4c-.74.35-1.6.35-2.34 0L4.26 9.34c-.45-.21-.46-.65-.02-.88l11.71-6.09c.34-.17.71-.26 1.08-.26Zm-8 12.82 5.56 2.63a5.8 5.8 0 0 0 4.9.02l5.55-2.6v7.63c0 .05-.03.09-.07.11l-5.93 2.98a4.46 4.46 0 0 1-4.01 0L10 23.17c-.6-.3-.97-.9-.97-1.56Z" transform="translate(-1.03 .89)"/></svg>