<svg xmlns="http://www.w3.org/2000/svg" viewBox="0 0 32 30"><path d="M17.04-.89c-.85 0-1.7.2-2.47.6L2.86 5.81c-2.47 1.28-2.4 5.05.1 6.24l3.07 1.45 8.7 4.12c1.46.68 3.15.69 4.61.01l8.51-3.96a1.5 1.5 0 0 1 .18-.04v-.03l2-.93v8.95c0 2 3 2 3 0V9.15a3.43 3.43 0 0 0-1.78-3.23L19.5-.28c-.76-.4-1.6-.6-2.46-.6v-.01zM6.03 16.82v4.79c0 1.8 1.01 3.44 2.62 4.24l5.03 2.53a7.47 7.47 0 0 0 6.7 0l5.94-2.98a3.13 3.13 0 0 0 1.71-2.79V16.9l-7.42 3.45a8.43 8.43 0 0 1-7.16-.02l-7.42-3.5z" transform="translate(-1.03 .89)"/></svg>