<svg xmlns="http://www.w3.org/2000/svg" xml:space="preserve" viewBox="0 0 32 32"><path d="M28 0a1.5 1.5 0 0 0-1.06.44L22.3 5.07A13.68 13.68 0 0 0 16 3.5C5.63 3.5.16 15.32.16 15.32c-.21.43-.21.93 0 1.35 0 0 1.47 3.17 4.32 6.23L.44 26.94a1.5 1.5 0 0 0 0 2.12 1.5 1.5 0 0 0 2.12 0l26.5-26.5a1.5 1.5 0 0 0 0-2.12A1.5 1.5 0 0 0 28 0zM16 6.51c1.46 0 2.8.32 4.04.83l-3.22 3.22a5.5 5.5 0 0 0-6.2 6.2l-3.96 3.96A25.03 25.03 0 0 1 3.3 16C3.95 14.83 8.46 6.5 16 6.5zm11.34 2.4-2.17 2.16c2 2.15 3.2 4.36 3.52 4.93-.64 1.17-5.15 9.49-12.7 9.49-1.56 0-3-.36-4.3-.95L9.45 26.8c1.9 1.03 4.1 1.7 6.56 1.7 10.37 0 15.84-11.83 15.84-11.83.21-.42.21-.92 0-1.35 0 0-1.53-3.3-4.5-6.42zm-6 6-6.47 6.47a5.5 5.5 0 0 0 6.47-6.47z" style="-inkscape-stroke:none"/></svg>