<svg xmlns="http://www.w3.org/2000/svg" viewBox="0 0 32 32"><path d="M28 0a1.5 1.5 0 0 0-1.06.44L22.3 5.07a13.68 13.68 0 0 0-6.3-1.57C5.62 3.5.15 15.32.15 15.32c-.21.43-.21.93 0 1.35 0 0 1.47 3.17 4.32 6.23L.44 26.94a1.5 1.5 0 0 0 0 2.12 1.5 1.5 0 0 0 2.12 0l26.5-26.5a1.5 1.5 0 0 0 0-2.12A1.5 1.5 0 0 0 28 0zm-.66 8.9-6 6a5.51 5.51 0 0 1-6.47 6.47L9.44 26.8c1.9 1.03 4.1 1.7 6.56 1.7 10.37 0 15.84-11.83 15.84-11.83.21-.42.21-.92 0-1.35 0 0-1.53-3.3-4.5-6.42zM16 10.5c.28 0 .55.02.81.06l-6.2 6.2a5.5 5.5 0 0 1 5.4-6.28z"/></svg>