<svg xmlns="http://www.w3.org/2000/svg" viewBox="0 0 32 32"><path d="M16 0C7.18 0 0 7.18 0 16s7.18 16 16 16 16-7.18 16-16S24.82 0 16 0zm-5.04 11a2 2 0 0 1 2 2 2 2 0 0 1-2 2 2 2 0 0 1-2-2 2 2 0 0 1 2-2zM21 11a2 2 0 0 1 2 2 2 2 0 0 1-2 2 2 2 0 0 1-2-2 2 2 0 0 1 2-2zm-5 7a9.15 9.15 0 0 1 6.06 2.44 1.5 1.5 0 0 1 0 2.12A1.5 1.5 0 0 1 21 23a1.5 1.5 0 0 1-1.06-.44S18.34 21 16 21c-2.33 0-3.94 1.56-3.94 1.56a1.5 1.5 0 0 1-2.12 0 1.5 1.5 0 0 1 0-2.12S12.34 18 16 18z" color="#000" style="-inkscape-stroke:none"/></svg>