<svg xmlns="http://www.w3.org/2000/svg" viewBox="0 0 32 32"><path d="M16 0C7.18 0 0 7.18 0 16s7.18 16 16 16 16-7.18 16-16S24.82 0 16 0zm0 3c7.2 0 13 5.8 13 13s-5.8 13-13 13S3 23.2 3 16 8.8 3 16 3zm-5.04 8a2 2 0 0 0-2 2 2 2 0 0 0 2 2 2 2 0 0 0 2-2 2 2 0 0 0-2-2zM21 11a2 2 0 0 0-2 2 2 2 0 0 0 2 2 2 2 0 0 0 2-2 2 2 0 0 0-2-2zm-5 7c-3.67 0-6.06 2.44-6.06 2.44a1.5 1.5 0 0 0 0 2.12 1.5 1.5 0 0 0 2.12 0S13.66 21 16 21a6.15 6.15 0 0 1 3.94 1.56A1.5 1.5 0 0 0 21 23a1.5 1.5 0 0 0 1.06-.44 1.5 1.5 0 0 0 0-2.12S19.66 18 16 18z" color="#000" style="-inkscape-stroke:none"/></svg>