<svg xmlns="http://www.w3.org/2000/svg" viewBox="0 0 32 32"><path d="M-20 0c6.61 0 12-5.39 12-12 0-2.772-.95-5.328-2.54-7.363a1.5 1.5 0 0 0 .1-.076l4.538-4.538 3.312 3.506A1.5 1.5 0 0 0-1.543-20a1.5 1.5 0 0 0 1.072-.41 1.5 1.5 0 0 0 .06-2.12l-3.37-3.568 3.342-3.341a1.5 1.5 0 0 0 0-2.122 1.5 1.5 0 0 0-2.122 0l-3.28 3.282-3.07-3.25a1.5 1.5 0 0 0-2.118-.06 1.5 1.5 0 0 0-.06 2.118l3.126 3.313-4.598 4.597a1.5 1.5 0 0 0-.084.094A11.93 11.93 0 0 0-20-24c-6.61 0-12 5.39-12 12s5.39 12 12 12zm0-3c-4.988 0-9-4.012-9-9s4.012-9 9-9 9 4.012 9 9-4.012 9-9 9z" color="#000" style="-inkscape-stroke:none" transform="scale(-1)"/></svg>