<svg xmlns="http://www.w3.org/2000/svg" viewBox="0 0 32 32"><path d="M28.726 0 3.224.047C1.867.049.727.912.258 2c-.47 1.088-.316 2.51.613 3.498l11.36 12.091V30.5a1.5 1.5 0 0 0 2.059 1.393l5.002-2a1.5 1.5 0 0 0 .944-1.394V17.573L31.163 5.468c.913-1.011 1.046-2.437.56-3.526C31.238.853 30.09-.003 28.726 0Zm.006 3c.176 0 .202.055.25.163.048.108.071.164-.047.295L17.62 15.99a1.5 1.5 0 0 0-.385 1.007v10.487l-2 .8V16.998a1.5 1.5 0 0 0-.41-1.028L3.059 3.444c-.111-.118-.085-.157-.043-.254.041-.096.052-.142.215-.142Z"/></svg>