<svg xmlns="http://www.w3.org/2000/svg" viewBox="0 0 26 32"><path d="M8 0C5.637 0 3.84.4 2.616.82c-1.225.42-1.977.93-1.977.93A1.5 1.5 0 0 0 0 2.98V30.5a1.5 1.5 0 0 0 3 0v-9.35a7.4 7.4 0 0 1 .698-.343C4.604 20.415 6.018 20 8 20c1.853 0 3.227.617 4.88 1.367C14.532 22.117 16.464 23 19 23c2.322 0 3.858-.292 4.875-.636a5.847 5.847 0 0 0 1.16-.524c.274-.166.528-.4.528-.4A1.5 1.5 0 0 0 26 20.383V3a1.5 1.5 0 0 0-2.28-1.281S21.497 3.02 19.011 3c-1.859-.015-3.242-.634-4.896-1.38C12.46.872 10.533 0 8 0Zm0 3c1.857 0 3.233.611 4.883 1.356C14.533 5.1 16.456 5.98 18.987 6c1.558.013 2.922-.336 4.013-.715v14.2c-.041.015-.037.02-.086.037-.635.215-1.846.478-3.914.478-1.853 0-3.228-.615-4.88-1.365C12.467 17.885 10.537 17 8 17c-2.15 0-3.773.427-5 .899V3.922c.193-.096.145-.11.59-.264C4.518 3.34 5.974 3 8 3z"/></svg>