<svg xmlns="http://www.w3.org/2000/svg" viewBox="0 0 32 32"><path d="M11.5 0A1.5 1.5 0 0 0 10 1.5v6C10 8.9 8.9 10 7.5 10h-6A1.5 1.5 0 0 0 0 11.5 1.5 1.5 0 0 0 1.5 13h6c3.02 0 5.5-2.48 5.5-5.5v-6A1.5 1.5 0 0 0 11.5 0zm9 0A1.5 1.5 0 0 0 19 1.5v6c0 3.02 2.48 5.5 5.5 5.5h6a1.5 1.5 0 0 0 1.5-1.5 1.5 1.5 0 0 0-1.5-1.5h-6C23.1 10 22 8.9 22 7.5v-6A1.5 1.5 0 0 0 20.5 0zm-19 19A1.5 1.5 0 0 0 0 20.5 1.5 1.5 0 0 0 1.5 22h6c1.4 0 2.5 1.1 2.5 2.5v6a1.5 1.5 0 0 0 1.5 1.5 1.5 1.5 0 0 0 1.5-1.5v-6c0-3.02-2.48-5.5-5.5-5.5h-6zm23 0a5.52 5.52 0 0 0-5.5 5.5v6a1.5 1.5 0 0 0 1.5 1.5 1.5 1.5 0 0 0 1.5-1.5v-6c0-1.4 1.1-2.5 2.5-2.5h6a1.5 1.5 0 0 0 1.5-1.5 1.5 1.5 0 0 0-1.5-1.5h-6z" color="#000" style="-inkscape-stroke:none"/></svg>