<svg xmlns="http://www.w3.org/2000/svg" viewBox="0 0 32 32"><path d="M5.5 0A5.52 5.52 0 0 0 0 5.5v6A1.5 1.5 0 0 0 1.5 13 1.5 1.5 0 0 0 3 11.5v-6C3 4.1 4.1 3 5.5 3h6A1.5 1.5 0 0 0 13 1.5 1.5 1.5 0 0 0 11.5 0h-6zm15 0A1.5 1.5 0 0 0 19 1.5 1.5 1.5 0 0 0 20.5 3h6C27.9 3 29 4.1 29 5.5v6a1.5 1.5 0 0 0 1.5 1.5 1.5 1.5 0 0 0 1.5-1.5v-6C32 2.48 29.52 0 26.5 0h-6zm-19 19A1.5 1.5 0 0 0 0 20.5v6C0 29.52 2.48 32 5.5 32h6a1.5 1.5 0 0 0 1.5-1.5 1.5 1.5 0 0 0-1.5-1.5h-6C4.1 29 3 27.9 3 26.5v-6A1.5 1.5 0 0 0 1.5 19zm29 0a1.5 1.5 0 0 0-1.5 1.5v6c0 1.4-1.1 2.5-2.5 2.5h-6a1.5 1.5 0 0 0-1.5 1.5 1.5 1.5 0 0 0 1.5 1.5h6c3.02 0 5.5-2.48 5.5-5.5v-6a1.5 1.5 0 0 0-1.5-1.5z"/></svg>