<svg xmlns="http://www.w3.org/2000/svg" viewBox="0 0 30 32"><path d="M11.2 0a4.37 4.37 0 0 0-4.1 2.87L5.98 6H1.5a1.5 1.5 0 0 0 0 3h.2l1.47 17.64A5.87 5.87 0 0 0 9 32h12a5.88 5.88 0 0 0 5.84-5.36L28.38 9h.12a1.5 1.5 0 0 0 0-3h-4.47l-.57-1.57-.57-1.56A4.37 4.37 0 0 0 18.8 0Zm0 3h7.6a1.34 1.34 0 0 1 1.27.9l.77 2.1H9.16l.77-2.1c.2-.55.7-.9 1.27-.9ZM4.72 9h20.65l-1.52 17.38A2.85 2.85 0 0 1 21 29H9a2.83 2.83 0 0 1-2.84-2.61Zm6.78 5c-.83 0-1.5.67-1.5 1.5v7c0 2 3 2 3 0v-7c0-.83-.67-1.5-1.5-1.5Zm7 0c-.83 0-1.5.67-1.5 1.5v7c0 2 3 2 3 0v-7c0-.83-.67-1.5-1.5-1.5Z"/></svg>