<svg xmlns="http://www.w3.org/2000/svg" xml:space="preserve" viewBox="0 0 30 32"><path d="M14-.008a5.24 5.24 0 0 0-4.357 2.334L7.752 5.17l-.22.33H1.5a1.5 1.5 0 0 0 0 3h.234L4.35 26.809A6.256 6.256 0 0 0 10.5 32h9a6.25 6.25 0 0 0 6.146-5.193c.772-6.12 1.755-12.154 2.618-18.307h.236A1.5 1.5 0 0 0 30 7a1.5 1.5 0 0 0-1.223-1.47l.006-.03-.21.006A1.47 1.47 0 0 0 28.5 5.5h-6.031l-.221-.33-1.89-2.844A5.238 5.238 0 0 0 16-.008h-2zm0 3h2c.75 0 1.443.373 1.86.996L18.862 5.5h-7.728l1.006-1.512A2.228 2.228 0 0 1 14 2.992zM11.5 13a1.5 1.5 0 0 1 1.5 1.5v7a1.5 1.5 0 0 1-3 0v-7a1.5 1.5 0 0 1 1.5-1.5zm7 0a1.5 1.5 0 0 1 1.5 1.5v7a1.5 1.5 0 0 1-3 0v-7a1.5 1.5 0 0 1 1.5-1.5z" style="-inkscape-stroke:none"/></svg>