<svg xmlns="http://www.w3.org/2000/svg" xml:space="preserve" viewBox="0 0 30 32"><path d="M11.5 13a1.5 1.5 0 0 0-1.5 1.5v7a1.5 1.5 0 0 0 3 0v-7a1.5 1.5 0 0 0-1.5-1.5ZM14-.008c-1.75 0-3.388.878-4.357 2.334L7.752 5.17l-.22.33H1.5a1.5 1.5 0 0 0 0 3h.234L4.35 26.809A6.255 6.255 0 0 0 10.5 32h9a6.25 6.25 0 0 0 6.146-5.193c.771-6.12 1.755-12.154 2.618-18.307h.236A1.5 1.5 0 0 0 30 7a1.5 1.5 0 0 0-1.223-1.47l.006-.03-.21.006A1.5 1.5 0 0 0 28.5 5.5h-6.031l-.221-.33-1.89-2.844A5.239 5.239 0 0 0 16-.008Zm0 3h2c.75 0 1.444.373 1.86.996L18.864 5.5h-7.73l1.006-1.512A2.229 2.229 0 0 1 14 2.992ZM4.777 8.5h20.44c-.848 5.938-1.741 11.864-2.53 17.807A3.216 3.216 0 0 1 19.5 29h-9a3.224 3.224 0 0 1-3.193-2.695ZM18.5 13a1.5 1.5 0 0 0-1.5 1.5v7a1.5 1.5 0 0 0 3 0v-7a1.5 1.5 0 0 0-1.5-1.5Z" color="#000" style="-inkscape-stroke:none"/></svg>