<svg xmlns="http://www.w3.org/2000/svg" viewBox="0 0 32 32"><path d="M12-1a5.52 5.52 0 0 0-4.9 8H3.5A3.52 3.52 0 0 0 0 10.5v5a3.52 3.52 0 0 0 3 3.46v6.54C3 28.52 5.48 31 8.5 31h15c3.02 0 5.5-2.48 5.5-5.5v-6.54c1.68-.25 3-1.71 3-3.46v-5C32 8.58 30.42 7 28.5 7h-3.6A5.52 5.52 0 0 0 20-1c-1.57 0-3 .67-4 1.74A5.49 5.49 0 0 0 12-1zm0 3c1.4 0 2.5 1.1 2.5 2.5V7H12c-1.4 0-2.5-1.1-2.5-2.5S10.6 2 12 2zm8 0c1.4 0 2.5 1.1 2.5 2.5S21.4 7 20 7h-2.5V4.5C17.5 3.1 18.6 2 20 2zM3.5 10h11v6h-11c-.3 0-.5-.2-.5-.5v-5c0-.3.2-.5.5-.5zm14 0h11c.3 0 .5.2.5.5v5c0 .3-.2.5-.5.5h-11v-6zM6 19h8.5v9h-6C7.1 28 6 26.9 6 25.5V19zm11.5 0H26v6.5c0 1.4-1.1 2.5-2.5 2.5h-6v-9z" color="#000" style="-inkscape-stroke:none" transform="translate(0 1)"/></svg>