<svg xmlns="http://www.w3.org/2000/svg" viewBox="0 0 30 32"><path d="M6.052.002c-.342.008-.7.096-.7.096a1.503 1.498 0 0 0-.954.847c-.75 1.741-.77 3.656-.294 5.474-1.25 1.588-2.038 3.497-2.028 5.531v.009c.002 4.036 1.325 6.86 3.363 8.566 1.406 1.18 3.043 1.727 4.68 2.103a6.074 6.074 0 0 0-.39 2.396c-.847.138-1.758.318-2.239.206-.7-.164-1.158-.483-1.637-.96-.48-.477-.928-1.118-1.498-1.785-.57-.668-1.339-1.425-2.488-1.71A1.502 1.497 0 0 0 .045 21.86a1.502 1.497 0 0 0 1.091 1.817c.236.06.505.251.93.746.424.497.93 1.235 1.662 1.965.732.728 1.744 1.444 3.076 1.756.797.184 1.894-.09 2.886-.207v2.564A1.502 1.497 0 0 0 11.19 32a1.502 1.497 0 0 0 1.506-1.498v-5.338a1.503 1.498 0 0 0-.005-.105 3.165 3.153 0 0 1 .882-2.414 1.503 1.498 0 0 0-.894-2.527c-2.052-.254-3.976-.771-5.308-1.887-1.331-1.116-2.29-2.847-2.29-6.282a1.503 1.498 0 0 0 0-.001 1.503 1.498 0 0 0 0-.003 1.503 1.498 0 0 0 0-.002 1.503 1.498 0 0 0 0-.002 6.034 6.013 0 0 1 1.663-4.176 1.503 1.498 0 0 0 .319-1.556c-.37-.986-.346-2.033-.13-3.048.676.165 1.748.538 3.424 1.655a1.503 1.498 0 0 0 1.227.204 17.028 16.967 0 0 1 8.907 0 1.503 1.498 0 0 0 1.228-.203c1.675-1.12 2.748-1.49 3.423-1.656.218 1.015.238 2.062-.131 3.048a1.503 1.498 0 0 0 .32 1.556 5.998 5.998 0 0 1 1.662 4.141c0 3.464-.962 5.213-2.291 6.325-1.328 1.113-3.243 1.616-5.288 1.844a1.503 1.498 0 0 0-.911 2.53c.633.65.954 1.537.882 2.44a1.503 1.498 0 0 0-.006.119v5.338A1.502 1.497 0 0 0 20.883 32a1.502 1.497 0 0 0 1.503-1.498v-5.338l-.005.116a6.131 6.11 0 0 0-.416-2.68c1.635-.362 3.267-.9 4.671-2.075C28.678 18.813 30 15.973 30 11.906c0-2.02-.79-3.912-2.03-5.49.475-1.817.456-3.731-.293-5.472a1.503 1.498 0 0 0-.954-.847s-.36-.088-.7-.097a5.54 5.52 0 0 0-1.343.147c-.96.212-2.39.894-4.029 1.898a19.939 19.868 0 0 0-9.225 0C9.787 1.042 8.354.362 7.393.148A5.54 5.52 0 0 0 6.051.002Z"/></svg>