<svg xmlns="http://www.w3.org/2000/svg" viewBox="0 0 30 32"><path d="M6.052.002c-.342.008-.7.096-.7.096-.428.127-.778.437-.954.847-.75 1.741-.77 3.656-.294 5.474-1.25 1.588-2.038 3.497-2.028 5.531v.009c.002 4.036 1.325 6.86 3.363 8.566 1.406 1.18 3.043 1.727 4.68 2.103a6.074 6.074 0 0 0-.39 2.396c-.847.138-1.758.318-2.239.206-.7-.164-1.158-.483-1.637-.96-.48-.477-.928-1.118-1.498-1.785-.57-.668-1.339-1.425-2.488-1.71a1.496 1.496 0 1 0-.73 2.904c.235.058.504.25.93.745.423.497.928 1.235 1.66 1.965.733.728 1.745 1.444 3.077 1.756.797.184 1.894-.09 2.886-.207v2.564A1.5 1.5 0 0 0 11.19 32h9.693a1.5 1.5 0 0 0 1.503-1.498v-5.338l-.005.116a6.09 6.09 0 0 0-.416-2.68c1.635-.362 3.267-.9 4.671-2.075C28.678 18.813 30 15.973 30 11.906c0-2.02-.79-3.912-2.03-5.49.475-1.817.456-3.731-.293-5.472a1.502 1.502 0 0 0-.954-.847s-.36-.088-.7-.097a5.56 5.56 0 0 0-1.343.147c-.96.212-2.39.894-4.029 1.898a20.008 20.008 0 0 0-9.225 0C9.787 1.042 8.354.362 7.393.148A5.56 5.56 0 0 0 6.051.002Z"/></svg>