<svg xmlns="http://www.w3.org/2000/svg" viewBox="0 0 32 30"><path d="M6.431 0a2.09 2.09 0 0 0-1.955 1.332 1.5 1.5 0 0 0-.028.08L.288 14.343a6.002 6.002 0 0 0 2.043 6.58l10.252 7.916a5.605 5.605 0 0 0 6.831 0l10.266-7.917a6.008 6.008 0 0 0 2.03-6.579l-2.667-8.176-1.092-3.359-.328-1.004-.088-.27-.013-.042a1.5 1.5 0 0 0-.01-.027 2.077 2.077 0 0 0-.541-.893 1.5 1.5 0 0 0-.032-.03 2.117 2.117 0 0 0-2.828 0c-.24.219-.425.488-.541.79a1.5 1.5 0 0 0-.028.074l-3.131 9.598-8.828.041-3.163-9.58a2.081 2.081 0 0 0-.543-.893 1.5 1.5 0 0 0-.032-.03A2.09 2.09 0 0 0 6.431 0Zm.006 5.025 2.637 7.994a1.5 1.5 0 0 0 1.432 1.03l11-.05a1.5 1.5 0 0 0 1.42-1.034l2.591-7.937.674 2.067c.864 2.65 1.913 5.876 2.665 8.18.304.93-.232 2.674-1.008 3.273l-10.266 7.914a2.578 2.578 0 0 1-3.165 0L4.163 18.55a2.987 2.987 0 0 1-1.022-3.289Z"/></svg>