<svg xmlns="http://www.w3.org/2000/svg" viewBox="0 0 32 30"><path d="M8.5 0a5.418 5.418 0 0 0-5.223 4.012L.051 16.113A1.5 1.5 0 0 0 0 16.5v9C0 27.968 2.032 30 4.5 30h23c2.468 0 4.5-2.032 4.5-4.5v-9a1.5 1.5 0 0 0-.05-.387L28.722 4.012A5.418 5.418 0 0 0 23.5 0h-15zm0 3h15c1.097 0 2.042.725 2.324 1.785L28.281 14H3.72l2.457-9.215A2.393 2.393 0 0 1 8.5 3zM3 17h26v8.5c0 .846-.654 1.5-1.5 1.5h-23c-.846 0-1.5-.654-1.5-1.5V17zm5 3a2 2 0 0 0-2 2 2 2 0 0 0 2 2 2 2 0 0 0 2-2 2 2 0 0 0-2-2zm6 0a2 2 0 0 0-2 2 2 2 0 0 0 2 2 2 2 0 0 0 2-2 2 2 0 0 0-2-2z"/></svg>