<svg xmlns="http://www.w3.org/2000/svg" viewBox="0 0 32 32"><path d="M16 0c-5.375 0-8.492 2.159-9.998 4.418a9.083 9.083 0 0 0-1.188 2.627C2.114 7.386 0 9.712 0 12.5v5C0 20.52 2.48 23 5.5 23h1c1.915 0 3.5-1.585 3.5-3.5v-9c0-1.427-.88-2.67-2.121-3.21a6.06 6.06 0 0 1 .619-1.208C9.492 4.592 11.375 3 16 3s6.508 1.591 7.502 3.082c.28.42.474.828.62 1.207C22.88 7.83 22 9.073 22 10.5v9c0 1.915 1.585 3.5 3.5 3.5 0 1.398-1.102 2.5-2.5 2.5h-1.232C21.125 23.48 19.222 22 17 22c-2.744 0-5 2.256-5 5s2.256 5 5 5c2.222 0 4.125-1.48 4.768-3.5H23c3.02 0 5.5-2.48 5.5-5.5v-.115c1.993-.46 3.5-2.26 3.5-4.385v-7C32 9.032 29.968 7 27.5 7h-.326a9.077 9.077 0 0 0-1.176-2.582C24.492 2.159 21.375 0 16 0Z" color="#000" style="-inkscape-stroke:none"/></svg>