<svg xmlns="http://www.w3.org/2000/svg" viewBox="0 0 32 32"><path d="M16 0C10.63 0 7.5 2.16 6 4.42c-.53.8-.93 1.7-1.19 2.62A5.53 5.53 0 0 0 0 12.5v5a5.52 5.52 0 0 0 4.49 5.4L.44 26.93a1.5 1.5 0 0 0 0 2.12 1.5 1.5 0 0 0 2.12 0l26.5-26.5a1.5 1.5 0 0 0 0-2.12A1.5 1.5 0 0 0 28 0a1.5 1.5 0 0 0-1.06.44L24.58 2.8C22.8 1.23 20.05 0 16 0zm0 3c3.4 0 5.3.86 6.47 1.9L10 17.39V10.5c0-1.43-.88-2.67-2.12-3.21.16-.43.37-.83.62-1.2C9.5 4.58 11.38 3 16 3zm12.98 4.26L26.24 10h1.26c.85 0 1.5.65 1.5 1.5v7c0 .85-.65 1.5-1.5 1.5h-2a.48.48 0 0 1-.5-.5v-8.26l-3 3v5.26c0 1.91 1.59 3.5 3.5 3.5 0 1.4-1.1 2.5-2.5 2.5h-1.23A5.03 5.03 0 0 0 17 22c-2.74 0-5 2.26-5 5s2.26 5 5 5a5.03 5.03 0 0 0 4.77-3.5H23c3.02 0 5.5-2.48 5.5-5.5v-.12c2-.46 3.5-2.26 3.5-4.38v-7a4.52 4.52 0 0 0-3.02-4.24zM5.5 10h1c.3 0 .5.2.5.5v9c0 .3-.2.5-.5.5h-1A2.48 2.48 0 0 1 3 17.5v-5C3 11.1 4.1 10 5.5 10zM17 25c1.12 0 2 .88 2 2s-.88 2-2 2-2-.88-2-2 .88-2 2-2z"/></svg>