<svg xmlns="http://www.w3.org/2000/svg" viewBox="0 0 32 32"><path d="M30.5 0a1.5 1.5 0 0 0-1.06.44l-29 29a1.5 1.5 0 0 0 0 2.12 1.5 1.5 0 0 0 2.12 0l29-29a1.5 1.5 0 0 0 0-2.12A1.5 1.5 0 0 0 30.5 0ZM16 0C7.18 0 0 7.18 0 16a15.59 15.59 0 0 0 1.95 8.03l.01.02.64 1.1 7.19-7.18a5.52 5.52 0 0 0-4.8.31l-1.7.97C3.09 18.31 3 17.28 3 16A12.98 12.98 0 0 1 22.83 4.93l2.16-2.16A15.9 15.9 0 0 0 16 0Zm13.23 7.01-2.16 2.16A12.96 12.96 0 0 1 29 16c0 1.3-.09 2.33-.3 3.28l-1.66-.97a5.5 5.5 0 0 0-7.5 1.99l-2 3.46a5.5 5.5 0 0 0 9.5 5.54l3-5.2.01-.03.15-.28A15.9 15.9 0 0 0 32 16a15.9 15.9 0 0 0-2.77-8.99ZM13.76 22.48l-7.9 7.91a5.5 5.5 0 0 0 8.66-6.6z" color="#000" style="-inkscape-stroke:none"/></svg>