<svg xmlns="http://www.w3.org/2000/svg" xml:space="preserve" viewBox="0 0 32 32"><path d="M16 0c-5.375 0-8.492 2.159-9.998 4.418a9.083 9.083 0 0 0-1.188 2.627C2.114 7.385 0 9.712 0 12.5v5c0 2.785 2.112 5.104 4.809 5.45L10 17.757V10.5c0-1.427-.88-2.67-2.121-3.21a6.06 6.06 0 0 1 .619-1.208C9.492 4.592 11.375 3 16 3c3.588 0 5.521.958 6.674 2.084l2.101-2.102C23.025 1.325 20.206 0 16 0zm14.5 0a1.5 1.5 0 0 0-1.06.44l-29 29a1.5 1.5 0 0 0 0 2.12 1.5 1.5 0 0 0 2.12 0l29-29a1.5 1.5 0 0 0 0-2.12A1.5 1.5 0 0 0 30.5 0zm-1.518 7.26L26.242 10H27.5c.846 0 1.5.654 1.5 1.5v7c0 .846-.654 1.5-1.5 1.5h-2a.479.479 0 0 1-.5-.5v-8.258l-3 3V19.5c0 1.915 1.585 3.5 3.5 3.5 0 1.398-1.102 2.5-2.5 2.5h-1.232C21.125 23.48 19.222 22 17 22c-2.744 0-5 2.256-5 5s2.256 5 5 5c2.222 0 4.125-1.48 4.768-3.5H23c3.02 0 5.5-2.48 5.5-5.5v-.115c1.993-.46 3.5-2.26 3.5-4.385v-7c0-1.949-1.27-3.62-3.018-4.24zM5.5 10h1c.294 0 .5.206.5.5v9c0 .294-.206.5-.5.5h-1A2.478 2.478 0 0 1 3 17.5v-5C3 11.102 4.102 10 5.5 10zM17 25c1.122 0 2 .878 2 2 0 1.122-.878 2-2 2-1.122 0-2-.878-2-2 0-1.122.878-2 2-2z" style="-inkscape-stroke:none"/></svg>