<svg xmlns="http://www.w3.org/2000/svg" viewBox="0 0 32 32"><path d="M16 0C7.18 0 0 7.18 0 16c0 3.17.59 5.55 1.94 8.02l.02.03.64 1.1 2.2-2.19-.23-.38v-.02l-.01-.01a.47.47 0 0 1 .18-.67l1.74-1c.2-.11.43-.2.65-.25l2.66-2.66a5.52 5.52 0 0 0-4.8.31l-1.7.97C3.09 18.31 3 17.28 3 16A12.98 12.98 0 0 1 22.83 4.93l2.16-2.16A15.9 15.9 0 0 0 16 0zm14.5 0a1.5 1.5 0 0 0-1.06.44l-29 29a1.5 1.5 0 0 0 0 2.12 1.5 1.5 0 0 0 2.12 0l29-29a1.5 1.5 0 0 0 0-2.12A1.5 1.5 0 0 0 30.5 0zm-1.27 7.01-2.16 2.16A12.96 12.96 0 0 1 29 16c0 1.3-.09 2.33-.3 3.28l-1.66-.97a5.5 5.5 0 0 0-7.5 1.99l-2 3.46a5.5 5.5 0 0 0 9.5 5.54l3-5.2.01-.03.15-.28A15.9 15.9 0 0 0 32 16a15.9 15.9 0 0 0-2.77-8.99zm-4.88 13.54c.4.01.8.13 1.18.35l1.72 1c.25.15.33.42.2.68l-.01.02v.01l-3 5.19c-.7 1.2-2.2 1.6-3.4.9a2.5 2.5 0 0 1-.91-3.44l2-3.46a2.46 2.46 0 0 1 2.22-1.25zm-10.6 1.93-2.19 2.2.35.6c.7 1.2.3 2.7-.92 3.4a2.5 2.5 0 0 1-3.02-.4l-2.12 2.11a5.5 5.5 0 0 0 8.66-6.6l-.75-1.3z" color="#000" style="-inkscape-stroke:none"/></svg>