<svg xmlns="http://www.w3.org/2000/svg" viewBox="0 0 32 32"><path d="M16 0C7.18 0 0 7.18 0 16c0 3.17.59 5.55 1.94 8.02l.02.03.5.87-2.02 2.02a1.5 1.5 0 0 0 2.12 2.12l26.5-26.5A1.5 1.5 0 0 0 26.94.44l-2.18 2.18A15.9 15.9 0 0 0 16 0Zm.07 2.96c2.19 0 4.42.59 6.52 1.83L9.5 17.87a5.51 5.51 0 0 0-4.52.4l-1.7.98C3.09 18.31 3 17.28 3 16A13 13 0 0 1 16.07 2.96ZM29.23 7l-2.16 2.16A12.96 12.96 0 0 1 29 16c0 1.3-.1 2.33-.3 3.28l-1.66-.97a5.5 5.5 0 0 0-7.5 2l-2 3.45c-3.48 6.27 5.75 11.66 9.5 5.54l3-5.2.01-.03.15-.28A15.9 15.9 0 0 0 32 16c0-3.2-.96-6.34-2.77-8.99ZM13.75 22.48l-7.9 7.91c4.53 4.46 11.75-1.05 8.66-6.6l-.75-1.3z"/></svg>