<svg xmlns="http://www.w3.org/2000/svg" viewBox="0 0 32 32"><path d="M16 0C7.18 0 0 7.18 0 16c0 3.17.59 5.55 1.94 8.02l.02.03.5.87-2.02 2.02a1.5 1.5 0 0 0 0 2.12 1.5 1.5 0 0 0 2.12 0l26.5-26.5a1.5 1.5 0 0 0 0-2.12A1.5 1.5 0 0 0 28 0a1.5 1.5 0 0 0-1.06.44l-2.18 2.18A15.9 15.9 0 0 0 16 0zm.07 2.96c2.19 0 4.42.59 6.52 1.83L9.5 17.87a5.51 5.51 0 0 0-4.52.4l-1.7.98C3.09 18.31 3 17.28 3 16A13 13 0 0 1 16.07 2.96zM29.23 7l-2.16 2.16A12.96 12.96 0 0 1 29 16c0 1.3-.1 2.33-.3 3.28l-1.66-.97a5.5 5.5 0 0 0-7.5 2l-2 3.45c-3.48 6.27 5.75 11.66 9.5 5.54l3-5.2.01-.03.15-.28A15.9 15.9 0 0 0 32 16c0-3.2-.96-6.34-2.77-8.99zm-4.88 13.54c.4.01.8.13 1.18.35l1.72 1a.5.5 0 0 1 .2.68l-.01.02-3 5.2c-.7 1.2-2.2 1.6-3.4.9a2.5 2.5 0 0 1-.9-3.44l2-3.46c.44-.8 1.3-1.28 2.21-1.25zm-17.84.32-1.85 1.85-.09-.14v-.02a.47.47 0 0 1 .17-.68l1.74-1 .03-.01zm7.24 1.61-2.19 2.2.35.6c.7 1.2.3 2.7-.92 3.4a2.5 2.5 0 0 1-3.02-.4l-2.12 2.11c4.53 4.46 11.75-1.05 8.66-6.6l-.75-1.3-.01-.01z"/></svg>