<svg xmlns="http://www.w3.org/2000/svg" viewBox="0 0 32 32"><path d="M16 0C7.18 0 0 7.18 0 16c0 3.17.59 5.55 1.94 8.02l.02.03 3 5.2a5.5 5.5 0 0 0 9.55-5.46l-2-3.47a5.54 5.54 0 0 0-7.52-2.04l-1.7.97C3.09 18.31 3 17.28 3 16 3 8.8 8.8 3 16 3s13 5.8 13 13c0 1.3-.09 2.33-.3 3.28l-1.66-.97a5.5 5.5 0 0 0-7.5 1.99l-2 3.46a5.5 5.5 0 0 0 9.5 5.54l3-5.2.01-.03.15-.28A15.9 15.9 0 0 0 32 16c0-8.82-7.18-16-16-16zM7.67 20.55a2.5 2.5 0 0 1 2.24 1.27l2 3.46c.7 1.2.3 2.7-.92 3.4a2.5 2.5 0 0 1-3.43-.93l-2.99-5.17v-.02l-.01-.01a.47.47 0 0 1 .18-.67l1.74-1c.38-.2.79-.32 1.2-.33zm16.68 0c.4.01.8.13 1.18.35l1.72 1c.25.15.33.42.2.68l-.01.02v.01l-3 5.19c-.7 1.2-2.2 1.6-3.4.9a2.5 2.5 0 0 1-.91-3.44l2-3.46a2.46 2.46 0 0 1 2.22-1.25z" color="#000" style="-inkscape-stroke:none"/></svg>