<svg xmlns="http://www.w3.org/2000/svg" xml:space="preserve" viewBox="0 0 32 32"><path d="M16 0C7.181 0 0 7.181 0 16c0 8.819 7.181 16 16 16 8.819 0 16-7.181 16-16 0-8.819-7.181-16-16-16zm0 6c1.258 0 2.763.297 4.1 1.223 1.336.925 2.4 2.615 2.4 4.777 0 3.504-1.712 5.012-3.338 5.797-.604.292-1.15.378-1.662.478v.225c0 2-3 2-3 0v-3h1.576s.916.013 1.781-.404c.865-.418 1.643-.981 1.643-3.096 0-1.29-.441-1.85-1.107-2.31C17.726 9.226 16.73 9 16 9c-.76 0-1.747.232-2.406.693-.66.462-1.094 1.025-1.094 2.307 0 2-3 2-3 0 0-2.145 1.043-3.832 2.373-4.764C13.203 6.306 14.716 6 16 6zm0 16c1 0 2 .667 2 2 0 2.667-4 2.667-4 0 0-1.333 1-2 2-2z" style="-inkscape-stroke:none"/></svg>