<svg xmlns="http://www.w3.org/2000/svg" viewBox="0 0 32 32"><path d="M16 6a1.5 1.5 0 0 0-1.5 1.5v9.607l7.559 2.327a1.5 1.5 0 1 0 .882-2.868L17.5 14.893V7.5A1.5 1.5 0 0 0 16 6Z"/><circle cx="2" cy="14" r="1" fill="none"/><path d="M16 0C10.652 0 5.907 2.636 3 6.682V2.5A1.5 1.5 0 0 0 1.5 1 1.5 1.5 0 0 0 0 2.5v8A1.5 1.5 0 0 0 1.5 12h8a1.5 1.5 0 0 0 1.5-1.5A1.5 1.5 0 0 0 9.5 9H5.045C7.352 5.394 11.387 3 16 3c7.197 0 13 5.803 13 13s-5.803 13-13 13A12.98 12.98 0 0 1 3.008 16.453a1.5 1.5 0 0 0-1.551-1.447A1.5 1.5 0 0 0 .01 16.555C.303 25.122 7.367 32 16 32c8.819 0 16-7.181 16-16 0-8.819-7.181-16-16-16z"/></svg>