<svg xmlns="http://www.w3.org/2000/svg" viewBox="0 0 32 32"><path d="M15.996 0c-1.44 0-2.878.471-4.065 1.414l-8.7 6.917a8.56 8.56 0 0 0-3.156 7.826L1.48 26.731A6.085 6.085 0 0 0 7.495 32h17.002a6.087 6.087 0 0 0 6.016-5.267l1.412-10.574a8.559 8.559 0 0 0-3.157-7.828l-8.707-6.918A6.52 6.52 0 0 0 15.996 0Zm0 2.993c.776 0 1.552.256 2.2.77L26.9 10.68a5.543 5.543 0 0 1 2.049 5.08l-1.41 10.573A3.054 3.054 0 0 1 24.497 29H7.495a3.05 3.05 0 0 1-3.041-2.663L3.048 15.763a5.553 5.553 0 0 1 2.05-5.084l8.7-6.916a3.521 3.521 0 0 1 2.198-.77Zm-6.143 17.01a1.5 1.5 0 0 0-1.014.538 1.5 1.5 0 0 0 .201 2.112s2.874 2.414 6.971 2.376c4.064-.038 6.923-2.36 6.923-2.36a1.5 1.5 0 0 0 .234-2.11 1.5 1.5 0 0 0-2.11-.234s-2.14 1.676-5.074 1.703c-2.906.027-5.033-1.688-5.033-1.688a1.5 1.5 0 0 0-1.098-.338Z"/></svg>