<svg xmlns="http://www.w3.org/2000/svg" viewBox="0 0 32 32"><path d="M15.996 0c-1.44 0-2.878.47-4.064 1.414L3.23 8.33a8.563 8.563 0 0 0-3.156 7.828L1.48 26.73A6.087 6.087 0 0 0 7.496 32h17a6.087 6.087 0 0 0 6.016-5.268l1.412-10.572a8.561 8.561 0 0 0-3.156-7.83L20.06 1.412A6.52 6.52 0 0 0 15.996 0zm-5.994 19.996c.345.002.68.122.95.344 0 0 2.126 1.714 5.032 1.687 2.934-.027 5.075-1.703 5.075-1.703a1.502 1.502 0 0 1 1.875 2.346s-2.86 2.322-6.922 2.36c-4.098.037-6.971-2.376-6.971-2.376a1.502 1.502 0 0 1 .961-2.658z"/></svg>