<svg xmlns="http://www.w3.org/2000/svg" viewBox="0 0 32 32"><path d="M6.332 0A6.357 6.358 0 0 0 0 6.334v19.334A6.36 6.36 0 0 0 6.332 32h19.333A6.36 6.361 0 0 0 32 25.665V6.334A6.36 6.36 0 0 0 25.665 0Zm0 3.002h19.333a3.311 3.311 0 0 1 3.333 3.332v10.772l-5.416-5.644A1.5 1.5 0 0 0 22.517 11a1.5 1.5 0 0 0-1.076.441L4.45 28.428A3.316 3.316 0 0 1 3 25.666V6.334a3.31 3.31 0 0 1 3.332-3.332zm3.665 2.996A4.023 4.023 0 0 0 5.998 10a4.021 4.022 0 0 0 3.999 4 4.02 4.02 0 0 0 3.999-4A4.021 4.022 0 0 0 9.997 6Zm0 3c.57 0 1 .432 1 1.001A.978.978 0 0 1 10 11a.98.98 0 0 1-1.003-.998.983.983 0 0 1 1.001-1.002Zm12.478 5.646 6.522 6.791v4.231A3.312 3.313 0 0 1 25.662 29H8.12Z"/></svg>