<svg xmlns="http://www.w3.org/2000/svg" viewBox="0 0 32 28"><path d="M10.441 0a1.5 1.5 0 0 0-1.5 1.5V3H1.5a1.5 1.5 0 0 0 0 3h12.094c-.13 1.16-.47 3.17-1.364 5.373a17.308 17.308 0 0 1-1.585 3.04C8.1 11.715 7.938 8.4 7.938 8.4a1.5 1.5 0 0 0-2.993.2s.371 4.563 3.823 8.105c-1.44 1.414-3.31 2.613-5.764 3.36a1.5 1.5 0 1 0 .875 2.87c3.07-.934 5.423-2.516 7.215-4.353.839.523 1.791.981 2.873 1.342a1.5 1.5 0 1 0 .949-2.848 11.163 11.163 0 0 1-1.906-.838 19.759 19.759 0 0 0 2.002-3.738A23.74 23.74 0 0 0 16.607 6h2.834a1.5 1.5 0 0 0 0-3h-7.5V1.5a1.5 1.5 0 0 0-1.5-1.5zm13.555 8.912c-.848 0-1.765.558-2.101 1.463L16.09 26a1.5 1.5 0 0 0 2.812 1.043l1.866-5.022h6.228a1.5 1.5 0 0 0 .22-.025l1.874 5.047A1.5 1.5 0 0 0 31.902 26l-5.804-15.625c-.337-.905-1.254-1.463-2.102-1.463Zm0 4.414 2.115 5.695h-4.23z"/></svg>