<svg xmlns="http://www.w3.org/2000/svg" viewBox="0 0 32 32"><path d="M6 16a1.5 1.5 0 0 0 .07.434 1.5 1.5 0 0 0 .045.109 1.5 1.5 0 0 0 .143.281 1.5 1.5 0 0 0 .092.12 1.5 1.5 0 0 0 .09.117l6 6a1.5 1.5 0 0 0 2.12 0 1.5 1.5 0 0 0 0-2.122L11.121 17.5H24.5A1.5 1.5 0 0 0 26 16a1.5 1.5 0 0 0-1.5-1.5H11.121l3.44-3.44a1.5 1.5 0 0 0 0-2.12 1.5 1.5 0 0 0-2.122 0l-5.943 5.945a1.5 1.5 0 0 0-.057.054 1.5 1.5 0 0 0-.005.008 1.5 1.5 0 0 0-.233.303 1.5 1.5 0 0 0-.14.34 1.5 1.5 0 0 0-.014.045A1.5 1.5 0 0 0 6 16zM5.5 0C2.48 0 0 2.48 0 5.5v21C0 29.52 2.48 32 5.5 32h21c3.02 0 5.5-2.48 5.5-5.5v-21C32 2.48 29.52 0 26.5 0Zm0 3h21C27.898 3 29 4.102 29 5.5v21c0 1.398-1.102 2.5-2.5 2.5h-21A2.478 2.478 0 0 1 3 26.5v-21C3 4.102 4.102 3 5.5 3Z"/></svg>