<svg xmlns="http://www.w3.org/2000/svg" viewBox="0 0 32 32"><path d="M16 0C7.181 0 0 7.181 0 16c0 8.819 7.181 16 16 16 8.819 0 16-7.181 16-16 0-8.819-7.181-16-16-16Zm-2.734 8.52a1.5 1.5 0 0 1 1.295.42 1.5 1.5 0 0 1 0 2.12l-3.44 3.44H24.5A1.5 1.5 0 0 1 26 16a1.5 1.5 0 0 1-1.5 1.5H11.121l3.44 3.44a1.5 1.5 0 0 1 0 2.12 1.5 1.5 0 0 1-2.122 0l-6-6a1.5 1.5 0 0 1-.09-.117 1.5 1.5 0 0 1-.091-.119 1.5 1.5 0 0 1-.143-.281 1.5 1.5 0 0 1-.045-.11A1.5 1.5 0 0 1 6 16a1.5 1.5 0 0 1 .047-.365 1.5 1.5 0 0 1 .014-.045 1.5 1.5 0 0 1 .14-.34 1.5 1.5 0 0 1 .233-.303 1.5 1.5 0 0 1 .005-.008 1.5 1.5 0 0 1 .057-.054l5.943-5.946a1.5 1.5 0 0 1 .827-.42z"/></svg>