<svg xmlns="http://www.w3.org/2000/svg" viewBox="0 0 32 32"><path d="M16 0a1.5 1.5 0 0 0-1.5 1.5v3a1.5 1.5 0 0 0 3 0v-3A1.5 1.5 0 0 0 16 0ZM5.5 4a1.5 1.5 0 0 0-1.06 2.56l2.12 2.122A1.499 1.499 0 1 0 8.683 6.56L6.56 4.439A1.502 1.502 0 0 0 5.5 4Zm21 0a1.5 1.5 0 0 0-1.06.44l-2.122 2.12a1.499 1.499 0 1 0 2.121 2.122l2.122-2.121A1.499 1.499 0 0 0 26.5 4ZM16 8.01c-.829 0-1.656.12-2.422.363a8.014 8.014 0 0 0-5.205 5.205 8.185 8.185 0 0 0 .01 4.848 8.004 8.004 0 0 0 1.015 2.072c.576.841 1.332 2.296 1.405 2.8l.426 3.436A3.83 3.83 0 0 0 15 30h2a3.83 3.83 0 0 0 3.771-3.266l.426-3.435c.073-.505.829-1.96 1.405-2.801a8.004 8.004 0 0 0 1.015-2.072 8.185 8.185 0 0 0 .01-4.848 8.014 8.014 0 0 0-5.205-5.205A8.053 8.053 0 0 0 16 8.01ZM1.5 13.5a1.5 1.5 0 0 0 0 3h3a1.5 1.5 0 0 0 0-3Zm26 0a1.5 1.5 0 0 0 0 3h3a1.5 1.5 0 0 0 0-3zm-2.122 8.38a1.5 1.5 0 0 0-1.06 2.56l2.121 2.12a1.499 1.499 0 1 0 2.121-2.12l-2.121-2.121a1.5 1.5 0 0 0-1.06-.44zm-18.757.001c-.384 0-.768.147-1.06.44L3.438 24.44a1.501 1.501 0 0 0 2.121 2.123l2.121-2.123a1.5 1.5 0 0 0-1.06-2.559Z" style="-inkscape-stroke:none"/></svg>