<svg xmlns="http://www.w3.org/2000/svg" viewBox="0 0 32 32"><path d="M5.5 0C2.48 0 0 2.48 0 5.5v21C0 29.52 2.48 32 5.5 32h21c3.02 0 5.5-2.48 5.5-5.5v-21C32 2.48 29.52 0 26.5 0h-21zm0 3h21C27.898 3 29 4.102 29 5.5v21c0 1.398-1.102 2.5-2.5 2.5h-21A2.478 2.478 0 0 1 3 26.5v-21C3 4.102 4.102 3 5.5 3zm18.822 3.01a1.5 1.5 0 0 0-.379.097 1.5 1.5 0 0 0-.822.801l-3.713 8.662c-.118.275-.136.282-.39.135-1.44-.833-2.932-1.69-4.551-2.387-1.844-.794-3.88.172-4.633 1.93l-3.713 8.66a1.5 1.5 0 0 0 .787 1.97 1.5 1.5 0 0 0 1.97-.786l3.714-8.662c.117-.273.503-.435.687-.356 1.413.61 2.81 1.4 4.237 2.227 1.657.96 3.898.206 4.65-1.549l3.713-8.66a1.5 1.5 0 0 0-.787-1.97 1.5 1.5 0 0 0-.77-.112z"/></svg>