<svg xmlns="http://www.w3.org/2000/svg" viewBox="0 0 32 32"><path d="M5.5 0C2.48 0 0 2.48 0 5.5v21C0 29.52 2.48 32 5.5 32h21c3.02 0 5.5-2.48 5.5-5.5v-21C32 2.48 29.52 0 26.5 0h-21zm19.02 6a1.5 1.5 0 0 1 1.36 2.092l-3.714 8.66c-.752 1.755-2.993 2.508-4.65 1.549-1.428-.827-2.824-1.618-4.237-2.227-.184-.08-.57.083-.687.356l-3.713 8.662a1.5 1.5 0 1 1-2.758-1.184l3.713-8.66c.753-1.758 2.79-2.724 4.633-1.93 1.619.698 3.112 1.554 4.55 2.387.255.147.273.14.391-.135l3.713-8.662A1.5 1.5 0 0 1 24.52 6z" color="#000" style="-inkscape-stroke:none"/></svg>