<svg xmlns="http://www.w3.org/2000/svg" viewBox="0 0 32 32"><path d="M4.5 0A4.52 4.52 0 0 0 0 4.5v6C0 12.97 2.03 15 4.5 15h23c2.47 0 4.5-2.03 4.5-4.5v-6C32 2.03 29.97 0 27.5 0h-23zm0 3h23c.85 0 1.5.65 1.5 1.5v6c0 .85-.65 1.5-1.5 1.5h-23c-.85 0-1.5-.65-1.5-1.5v-6C3 3.65 3.65 3 4.5 3zm0 14A4.52 4.52 0 0 0 0 21.5v6C0 29.97 2.03 32 4.5 32h23c2.47 0 4.5-2.03 4.5-4.5v-6c0-2.47-2.03-4.5-4.5-4.5h-23zm0 3h23c.85 0 1.5.65 1.5 1.5v6c0 .85-.65 1.5-1.5 1.5h-23c-.85 0-1.5-.65-1.5-1.5v-6c0-.85.65-1.5 1.5-1.5z" color="#000" style="-inkscape-stroke:none"/></svg>