<svg xmlns="http://www.w3.org/2000/svg" viewBox="0 0 32 32"><path d="M16 0c-4.4 0-8 3.6-8 8v2.03c-2.79.25-5 2.62-5 5.47v11c0 .122.008.243.016.363L.439 29.44a1.5 1.5 0 0 0 0 2.122 1.5 1.5 0 0 0 2.122 0l29-29a1.5 1.5 0 0 0 0-2.122A1.5 1.5 0 0 0 30.5 0a1.5 1.5 0 0 0-1.06.44l-5.676 5.675C22.91 2.618 19.75 0 16 0zm0 3c2.78 0 5 2.22 5 5v.879L19.879 10H11V7.99A4.98 4.98 0 0 1 16 3zm10.896 8.225-2.119 2.119A2.476 2.476 0 0 1 26 15.5v11c0 1.4-1.1 2.5-2.5 2.5H9.121l-2.615 2.615c.62.245 1.29.385 1.994.385h15c3.02 0 5.5-2.48 5.5-5.5v-11a5.53 5.53 0 0 0-2.104-4.275zM8 13.05h8.828L6 23.879V15.5c0-1.23.85-2.23 2-2.45zm10.605 6.465-4.066 4.066A3 3 0 0 0 16 24a3 3 0 0 0 3-3 3 3 0 0 0-.395-1.484z"/></svg>