<svg xmlns="http://www.w3.org/2000/svg" viewBox="0 0 32 32"><path d="M16 0c-4.4 0-8 3.6-8 8v2.03c-2.79.25-5 2.62-5 5.47v11c0 .122.008.243.016.363L.439 29.44a1.5 1.5 0 0 0 0 2.122 1.5 1.5 0 0 0 2.122 0l29-29a1.5 1.5 0 0 0 0-2.122A1.5 1.5 0 0 0 30.5 0a1.5 1.5 0 0 0-1.06.44l-5.676 5.675C22.91 2.618 19.75 0 16 0zm0 3c2.78 0 5 2.22 5 5v.879L19.879 10H11V7.99A4.98 4.98 0 0 1 16 3zm10.91 8.21-8.305 8.306a3 3 0 0 1-4.09 4.09l-8.01 8.01C7.127 31.86 7.798 32 8.5 32h15c3.02 0 5.5-2.48 5.5-5.5v-11a5.52 5.52 0 0 0-2.09-4.29z"/></svg>