<svg xmlns="http://www.w3.org/2000/svg" viewBox="0 0 24 32"><path d="M12 0C5.39 0 0 5.39 0 12c0 3.97 1.945 7.498 4.93 9.685l-1.49 7.15c-.403 1.93 1.578 3.673 3.44 3.028L12 30.09l5.12 1.773c1.862.645 3.843-1.097 3.44-3.027l-1.49-7.151C22.055 19.498 24 15.97 24 12 24 5.39 18.61 0 12 0Zm0 3c4.988 0 9 4.012 9 9 0 4.99-4.012 9.001-9 9.001s-9-4.012-9-9c0-4.989 4.012-9 9-9ZM7.68 23.193c1.341.52 2.798.808 4.32.808 1.522 0 2.979-.287 4.32-.808l1.172 5.623-5.002-1.732a1.5 1.5 0 0 0-.98 0l-5.002 1.732z"/></svg>