<svg xmlns="http://www.w3.org/2000/svg" xml:space="preserve" viewBox="0 0 32 32"><path d="M1.5 4.5A1.5 1.5 0 0 0 0 6a1.5 1.5 0 0 0 1.5 1.5h2A1.5 1.5 0 0 0 5 6a1.5 1.5 0 0 0-1.5-1.5Zm8 0A1.5 1.5 0 0 0 8 6a1.5 1.5 0 0 0 1.5 1.5h21A1.5 1.5 0 0 0 32 6a1.5 1.5 0 0 0-1.5-1.5ZM1.5 14.5A1.5 1.5 0 0 0 0 16a1.5 1.5 0 0 0 1.5 1.5h2A1.5 1.5 0 0 0 5 16a1.5 1.5 0 0 0-1.5-1.5Zm8 0A1.5 1.5 0 0 0 8 16a1.5 1.5 0 0 0 1.5 1.5h21A1.5 1.5 0 0 0 32 16a1.5 1.5 0 0 0-1.5-1.5ZM1.5 24.5A1.5 1.5 0 0 0 0 26a1.5 1.5 0 0 0 1.5 1.5h2A1.5 1.5 0 0 0 5 26a1.5 1.5 0 0 0-1.5-1.5Zm8 0A1.5 1.5 0 0 0 8 26a1.5 1.5 0 0 0 1.5 1.5h21A1.5 1.5 0 0 0 32 26a1.5 1.5 0 0 0-1.5-1.5Z" color="#000" style="-inkscape-stroke:none"/></svg>