<svg xmlns="http://www.w3.org/2000/svg" viewBox="0 0 32 32"><path d="M16.02 0c-3.85 0-7 3.15-7 7v7c0 1.11.28 2.17.75 3.11l-1.5 1.5c-.82-1.4-1.26-3-1.27-4.63v-.5A1.5 1.5 0 0 0 5.5 12c-.83 0-1.5.68-1.5 1.51v.5c.02 2.5.8 4.81 2.13 6.74l-5.7 5.69a1.5 1.5 0 0 0 0 2.12 1.5 1.5 0 0 0 2.13 0l26-26a1.5 1.5 0 0 0 0-2.12A1.5 1.5 0 0 0 27.5 0a1.5 1.5 0 0 0-1.06.44L22.5 4.38A7.02 7.02 0 0 0 16.02 0zm0 3c2.18 0 3.92 1.7 4 3.87l-7.92 7.91a4.52 4.52 0 0 1-.08-.78V7c0-2.23 1.77-4 4-4zm10.48 9c-.83 0-1.5.68-1.5 1.51v.43c.07 5.28-4.28 8.98-9.01 9.02-.62 0-1.23-.06-1.82-.18l-2.4 2.4c.86.34 1.78.57 2.73.68V29h-2c-2 0-2 3 0 3h7c2 0 2-3 0-3h-2v-3.15c5.68-.77 10.58-5.57 10.5-11.94v-.42c0-.83-.67-1.5-1.5-1.49zm-3.48 1.93L15.95 21h.07c3.85 0 7-3.15 7-7v-.07z" style="-inkscape-stroke:none"/></svg>