<svg xmlns="http://www.w3.org/2000/svg" viewBox="0 0 32 32"><path d="M16 0C7.181 0 0 7.181 0 16c0 8.819 7.181 16 16 16 8.819 0 16-7.181 16-16 0-8.819-7.181-16-16-16zm0 3c7.197 0 13 5.803 13 13s-5.803 13-13 13S3 23.197 3 16 8.803 3 16 3zm0 2a1.5 1.5 0 0 0-1.5 1.5v1.525C11.988 8.28 10 10.425 10 13c0 1.372.626 2.624 1.586 3.395.96.77 2.172 1.105 3.414 1.105h2c.69 0 1.228.199 1.535.445.307.247.465.494.465 1.055 0 1.122-.878 2-2 2h-4.5a1.5 1.5 0 0 0-1.5 1.5 1.5 1.5 0 0 0 1.5 1.5h2v1.5A1.5 1.5 0 0 0 16 27a1.5 1.5 0 0 0 1.5-1.5v-1.525c2.512-.255 4.5-2.4 4.5-4.975 0-1.372-.626-2.624-1.586-3.395-.96-.77-2.172-1.105-3.414-1.105h-2c-.69 0-1.228-.199-1.535-.445C13.158 13.808 13 13.56 13 13c0-1.122.878-2 2-2h4.5A1.5 1.5 0 0 0 21 9.5 1.5 1.5 0 0 0 19.5 8h-2V6.5A1.5 1.5 0 0 0 16 5z"/></svg>