<svg xmlns="http://www.w3.org/2000/svg" viewBox="0 0 32 32"><path d="M16 0C7.181 0 0 7.181 0 16c0 8.819 7.181 16 16 16 8.819 0 16-7.181 16-16 0-8.819-7.181-16-16-16zm0 5a1.5 1.5 0 0 1 1.5 1.5V8h2A1.5 1.5 0 0 1 21 9.5a1.5 1.5 0 0 1-1.5 1.5H15c-1.122 0-2 .878-2 2 0 .561.158.808.465 1.055.307.246.845.445 1.535.445h2c1.242 0 2.455.335 3.414 1.105.96.77 1.586 2.023 1.586 3.395 0 2.575-1.988 4.72-4.5 4.975V25.5A1.5 1.5 0 0 1 16 27a1.5 1.5 0 0 1-1.5-1.5V24h-2a1.5 1.5 0 0 1-1.5-1.5 1.5 1.5 0 0 1 1.5-1.5H17c1.122 0 2-.878 2-2 0-.561-.158-.808-.465-1.055-.307-.246-.845-.445-1.535-.445h-2c-1.242 0-2.455-.335-3.414-1.105C10.626 15.625 10 14.372 10 13c0-2.575 1.988-4.72 4.5-4.975V6.5A1.5 1.5 0 0 1 16 5z" color="#000" style="-inkscape-stroke:none"/></svg>