<svg xmlns="http://www.w3.org/2000/svg" viewBox="0 0 32 32"><path d="M14.041.075c-.481-.119-.918-.082-1.341.01C5.387 1.672.02 8.37 0 15.997v.004C0 24.82 7.18 32 15.996 32H16c8-.021 14.863-5.952 15.972-13.794.04-.287.05-.603-.06-.976-.112-.373-.406-.824-.848-1.068-.886-.49-1.645-.123-2.107.185-1.577 1.05-3.578 1.648-5.464 1.654a9.49 9.49 0 0 1-9.343-7.78c-.144-.789-.14-2.634.004-3.447.192-1.089.56-2.178 1.068-3.137.382-.72.703-1.628.125-2.609-.289-.49-.825-.834-1.306-.953Zm-1.906 3.437c-.363.9-.768 1.793-.935 2.74-.24 1.36-.252 3.126 0 4.508C12.264 16.587 17.38 21 23.493 21h.004c1.64-.004 3.242-.44 4.776-1.058-1.742 5.209-6.553 9.041-12.277 9.058C8.8 29 3 23.2 2.999 16.005v-.004c.017-5.76 3.891-10.75 9.136-12.489Z"/></svg>