<svg xmlns="http://www.w3.org/2000/svg" viewBox="0 0 32 28"><path d="M11.5 0C8.48 0 6 2.48 6 5.5v.49l-1.49-.01C2.042 5.965 0 7.993 0 10.46V23.5C0 25.968 2.032 28 4.5 28h22c3.02 0 5.5-2.48 5.5-5.5v-17C32 2.48 29.52 0 26.5 0Zm0 3h15C27.898 3 29 4.102 29 5.5v17c0 1.398-1.102 2.5-2.5 2.5H8.734c.17-.47.266-.974.266-1.5v-18C9 4.102 10.102 3 11.5 3Zm.5 3v6h7V6Zm9 0v2h5V6ZM4.49 8.98 6 8.99V23.5c0 .846-.654 1.5-1.5 1.5S3 24.346 3 23.5V10.46c0-.839.65-1.485 1.49-1.48ZM26 14l-14 .012V16h14zm-14 4v2h14v-2zm9-8v2h5v-2z"/></svg>