<svg xmlns="http://www.w3.org/2000/svg" viewBox="0 0 32 32"><path d="M28 0a1.5 1.5 0 0 0-1.06.44L25.37 2 25.19 2H6.8A4.82 4.82 0 0 0 2 6.8V25.2l.01.18-1.56 1.56a1.5 1.5 0 0 0 0 2.12 1.5 1.5 0 0 0 2.12 0l26.5-26.5a1.5 1.5 0 0 0 0-2.12A1.5 1.5 0 0 0 28 0zM6.8 4.6h15.98l-5.16 5.16a4.4 4.4 0 0 0-4.25-3.38 4.4 4.4 0 0 0-4.38 4.37A4.4 4.4 0 0 0 12.38 15L9.9 17.47a4.3 4.3 0 0 0-3.67 1.31L4.6 20.57V6.8a2.18 2.18 0 0 1 2.2-2.2zm23.17 1.72-2.58 2.57v8.5l-3.34-3.17c-.36-.32-.8-.57-1.26-.72l-8.86 8.85c1.41.2 2.9-.38 3.77-1.62l3.11-4.45c.16-.23.4-.39.68-.42.27-.02.54.06.76.27L27.39 21v4.2a2.18 2.18 0 0 1-2.2 2.21H8.87l-2.58 2.57.5.03h18.4c2.64 0 4.8-2.16 4.8-4.8V6.8c0-.16 0-.32-.02-.48zm-16.6 2.69c.98 0 1.74.76 1.74 1.74s-.76 1.74-1.74 1.74a1.72 1.72 0 0 1-1.74-1.74c0-.98.76-1.74 1.74-1.74z"/></svg>