<svg xmlns="http://www.w3.org/2000/svg" xml:space="preserve" viewBox="0 0 32 32"><path d="M28 0a1.5 1.5 0 0 0-1.06.44L25.37 2 25.19 2H6.8A4.82 4.82 0 0 0 2 6.8v18.4l.01.18-1.56 1.56a1.5 1.5 0 0 0 0 2.12 1.5 1.5 0 0 0 2.12 0l26.5-26.5a1.5 1.5 0 0 0 0-2.12A1.5 1.5 0 0 0 28 0zm1.96 6.27-7.18 7.19c.47.16.9.42 1.27.76l3.23 3.05v7.87a2.12 2.12 0 0 1-2.14 2.14H8.95l-2.68 2.7.52.02h18.4c2.64 0 4.8-2.16 4.8-4.8V6.8c0-.18 0-.35-.03-.53zM13.36 7.7c1.7 0 3.07 1.37 3.07 3.06l-.02.22-2.82 2.82-.22.02a3.06 3.06 0 0 1 0-6.12zm-4.22 9.75c.25-.02.51 0 .77.03l-5.2 5.2v-2.23l1.53-1.66a4.31 4.31 0 0 1 2.9-1.34z" style="-inkscape-stroke:none"/></svg>