<svg xmlns="http://www.w3.org/2000/svg" viewBox="0 0 32 32"><path d="M24.5 0C22.032 0 20 2.032 20 4.5v23c0 2.468 2.032 4.5 4.5 4.5h3c2.468 0 4.5-2.032 4.5-4.5v-23C32 2.032 29.968 0 27.5 0Zm0 3h3c.846 0 1.5.654 1.5 1.5v23c0 .846-.654 1.5-1.5 1.5h-3c-.846 0-1.5-.654-1.5-1.5v-23c0-.846.654-1.5 1.5-1.5Zm-20-3C2.032 0 0 2.032 0 4.5v23C0 29.968 2.032 32 4.5 32h3c2.468 0 4.5-2.032 4.5-4.5v-23C12 2.032 9.968 0 7.5 0Zm0 3h3C8.346 3 9 3.654 9 4.5v23c0 .846-.654 1.5-1.5 1.5h-3c-.846 0-1.5-.654-1.5-1.5v-23C3 3.654 3.654 3 4.5 3Z"/></svg>