<svg xmlns="http://www.w3.org/2000/svg" viewBox="0 0 32 32"><path d="m2.277.156 11.45 11.45a3 3 0 0 1 .773-.106 3 3 0 0 1 3 3 3 3 0 0 1-3 3 3 3 0 0 1-3-3 3 3 0 0 1 .105-.773L.135 2.256 4.82 20.564a6.333 6.333 0 0 0 4.637 4.58l6.951 1.69a4.521 4.521 0 0 0 1.299 3.592l.26.258a4.552 4.552 0 0 0 6.402 0l6.315-6.311a4.547 4.547 0 0 0 0-6.4l-.26-.262a4.513 4.513 0 0 0-3.594-1.295l-1.69-6.951A6.333 6.333 0 0 0 20.56 4.83L2.277.156zm24.946 19.221c.387 0 .775.15 1.08.455l.26.262c.609.609.609 1.549 0 2.158l-6.315 6.31a1.505 1.505 0 0 1-2.16 0l-.26-.26a1.504 1.504 0 0 1 0-2.156l6.315-6.314a1.522 1.522 0 0 1 1.08-.455z"/></svg>