<svg xmlns="http://www.w3.org/2000/svg" viewBox="0 0 32 32"><path d="M1.49 0v.002c-.065.004-.13.01-.195.023A1.498 1.498 0 0 0 .69.238L.641.28a1.496 1.496 0 0 0-.213.162 1.484 1.484 0 0 0-.133.182 1.5 1.5 0 0 0-.08.111 1.498 1.498 0 0 0-.18 1.092c0 .016 0 .032.002.047L4.82 20.564a6.333 6.333 0 0 0 4.637 4.58l6.951 1.69a4.521 4.521 0 0 0 1.299 3.592l.26.258a4.552 4.552 0 0 0 6.402 0l6.315-6.311a4.547 4.547 0 0 0 0-6.4l-.26-.262a4.513 4.513 0 0 0-3.594-1.295l-1.69-6.951A6.333 6.333 0 0 0 20.56 4.83L1.895.06A1.5 1.5 0 0 0 1.49 0zm4.934 4.31 13.392 3.426a3.321 3.321 0 0 1 2.409 2.44l1.828 7.506-.032.033-6.314 6.31-.031.032-7.512-1.827a3.326 3.326 0 0 1-2.44-2.41L4.3 6.434l6.142 6.138A4.44 4.44 0 0 0 10 14.5c0 2.468 2.032 4.5 4.5 4.5s4.5-2.032 4.5-4.5-2.032-4.5-4.5-4.5c-.693 0-1.352.16-1.941.445L6.424 4.311zM14.5 13c.846 0 1.5.654 1.5 1.5s-.654 1.5-1.5 1.5-1.5-.654-1.5-1.5.654-1.5 1.5-1.5zm12.723 6.377c.387 0 .775.15 1.08.455l.26.262c.609.609.609 1.549 0 2.158l-6.315 6.31a1.505 1.505 0 0 1-2.16 0l-.26-.26a1.504 1.504 0 0 1 0-2.156l6.315-6.314a1.522 1.522 0 0 1 1.08-.455z"/></svg>