<svg xmlns="http://www.w3.org/2000/svg" viewBox="0 0 32 32"><path d="m3.76 1.93-.35.35a11.7 11.7 0 0 0 0 16.52l9.79 9.79a11.71 11.71 0 0 0 16.52 0l.36-.35a6.61 6.61 0 0 0 0-9.33l-1.5-1.5a2.95 2.95 0 0 0-3.9-.22l-2.6 2.06c-.56.43-1.32.39-1.82-.1l-7.4-7.4c-.5-.5-.54-1.26-.1-1.82l2.06-2.61a2.95 2.95 0 0 0-.23-3.9l-1.5-1.49a6.6 6.6 0 0 0-9.33 0Zm2.12 2.12a3.6 3.6 0 0 1 5.09 0l1.45 1.46-2.02 2.57a4.38 4.38 0 0 0 .34 5.79l7.4 7.4a4.39 4.39 0 0 0 5.79.33l2.57-2.02 1.46 1.45a3.57 3.57 0 0 1 0 5.09l-.35.35a8.67 8.67 0 0 1-12.29 0l-9.78-9.79a8.66 8.66 0 0 1 0-12.28z"/></svg>