<svg xmlns="http://www.w3.org/2000/svg" viewBox="0 0 32 32"><path d="M4.407 0C1.84.002-.213 2.25.017 4.807a1.5 1.5 0 0 0 .003.023C1.494 18.704 12.557 30.4 27.106 31.98a1.5 1.5 0 0 0 .027.002c2.569.233 4.878-1.8 4.867-4.41v-4.36l-.001.037c.056-2.267-1.652-4.166-3.852-4.476-.946-.15-2.172-.642-3.576-.934-1.412-.294-3.215-.294-4.713.871a1.5 1.5 0 0 0-.111.096l-.643.61a20.864 20.866 0 0 1-6.549-6.56l.62-.703a1.5 1.5 0 0 0 .103-.134c1.08-1.555 1.07-3.306.773-4.669-.297-1.363-.76-2.51-.879-3.522a1.5 1.5 0 0 0-.004-.035A4.428 4.428 0 0 0 8.758 0Zm0 3h4.365a1.5 1.5 0 0 0 .016 0c.72-.007 1.31.5 1.41 1.213l-.004-.037c.18 1.556.711 2.82.928 3.813.214.98.23 1.525-.297 2.293l-1.323 1.506a1.5 1.5 0 0 0-.177 1.73 24.133 24.135 0 0 0 9.156 9.157 1.5 1.5 0 0 0 1.773-.217l1.465-1.387c.648-.495 1.222-.506 2.24-.295 1.029.214 2.293.74 3.749.965a1.5 1.5 0 0 0 .019.002c.727.103 1.29.744 1.273 1.432a1.5 1.5 0 0 0 0 .037v4.366a1.5 1.5 0 0 0 0 .006c.004.818-.746 1.483-1.591 1.41C14.297 27.559 4.34 17.002 3.007 4.537v-.002a1.384 1.384 0 0 1 1.4-1.534Z"/></svg>