<svg xmlns="http://www.w3.org/2000/svg" viewBox="0 0 32 32"><path d="M4.407 0C1.84.002-.213 2.25.017 4.807l.003.023C1.494 18.704 12.557 30.4 27.106 31.98l.027.002c2.569.233 4.878-1.8 4.867-4.41v-4.36l-.001.037c.056-2.267-1.652-4.166-3.852-4.476-.946-.15-2.172-.642-3.576-.934-1.412-.294-3.215-.294-4.713.871-.039.03-.076.062-.111.096l-.643.61a20.865 20.865 0 0 1-6.549-6.56l.62-.703c.037-.043.071-.088.103-.134 1.08-1.555 1.07-3.306.773-4.669-.297-1.363-.76-2.51-.879-3.522A4.428 4.428 0 0 0 8.758 0Z"/></svg>