<svg xmlns="http://www.w3.org/2000/svg" viewBox="0 0 32 30"><path d="M13 0c-1.76 0-3.4.9-4.33 2.4L7.66 4H5.5A5.52 5.52 0 0 0 0 9.5v15C0 27.52 2.48 30 5.5 30h21c3.02 0 5.5-2.48 5.5-5.5v-15C32 6.48 29.52 4 26.5 4h-2.17l-1-1.6A5.11 5.11 0 0 0 19 0h-6zm0 3h6c.73 0 1.4.37 1.79.99l1.44 2.3A1.5 1.5 0 0 0 23.5 7h3C27.9 7 29 8.1 29 9.5v15c0 1.4-1.1 2.5-2.5 2.5h-21C4.1 27 3 25.9 3 24.5v-15C3 8.1 4.1 7 5.5 7h2.99a1.5 1.5 0 0 0 1.27-.7L11.2 4c.39-.63 1.06-1 1.79-1zm3 6a7.52 7.52 0 0 0-7.5 7.5c0 4.12 3.38 7.5 7.5 7.5s7.5-3.38 7.5-7.5S20.12 9 16 9zm0 3c2.5 0 4.5 2 4.5 4.5S18.5 21 16 21s-4.5-2-4.5-4.5 2-4.5 4.5-4.5z" color="#000" style="-inkscape-stroke:none"/></svg>