<svg xmlns="http://www.w3.org/2000/svg" viewBox="0 0 32 32"><path d="M21.85.02h-.6c-1.6.09-3.18.8-4.28 2.1L15.05 4.4a1.52 1.48 0 0 0-.34.94v2.71l-3.46 3.35-4.16-.5a3.27 3.27 0 0 0-3.26 1.72 3.08 3.08 0 0 0 .6 3.55l4.7 4.6-8.69 8.69a1.5 1.5 0 0 0 0 2.12 1.5 1.5 0 0 0 2.12 0l8.72-8.72 4.88 4.77a3.13 3.13 0 0 0 3.54.53 2.95 2.95 0 0 0 1.56-3.13l-.96-4.93 3.41-3.31h2.8a1.52 1.48 0 0 0 .96-.33l2.37-1.88a5.64 5.64 0 0 0 .44-8.48l-4.56-4.42A5.95 5.95 0 0 0 21.85.02Zm-.45 2.93c.77-.04 1.56.23 2.16.82l4.57 4.42a2.68 2.68 0 0 1-.21 4.1l-1.96 1.54h-2.88a1.52 1.48 0 0 0-1.08.44l-4.42 4.3a1.52 1.48 0 0 0-.42 1.32l1.08 5.58L6.59 14.09c-.1-.11-.06-.1-.02-.17.03-.08 0-.1.15-.08l4.9.59a1.52 1.48 0 0 0 1.26-.42l4.43-4.3a1.52 1.48 0 0 0 .44-1.05v-2.8l1.59-1.88c.54-.64 1.3-.99 2.06-1.03z" color="#000" style="-inkscape-stroke:none"/></svg>