<svg xmlns="http://www.w3.org/2000/svg" viewBox="0 0 32 32"><g color="#000"><path d="m1.5 30.5 10-10M22.6-.03a2.84 2.84 0 0 0-2.78 1.69l-1.08 2.48-5.1 5.1a8.96 8.96 0 0 0-7.15.28c-2.14 1-3.55 2.42-3.55 2.42a1.5 1.5 0 0 0 0 2.12l6.44 6.44-8.94 8.94a1.5 1.5 0 0 0 2.12 2.12l8.94-8.94 6.44 6.44a1.5 1.5 0 0 0 2.12 0s1.43-1.41 2.42-3.55a8.96 8.96 0 0 0 .28-7.14l5.1-5.1 2.49-1.1a2.9 2.9 0 0 0 .87-4.64L24.47.78a2.78 2.78 0 0 0-1.87-.81Zm-.1 3.07 6.46 6.47-2.56 1.12a1.5 1.5 0 0 0-.46.3l-6 6a1.5 1.5 0 0 0-.23 1.84c1.2 2 .8 3.86.06 5.47-.4.86-.6.96-.98 1.43L6.33 13.21c.47-.38.57-.58 1.43-.98 1.61-.75 3.47-1.14 5.47.06a1.5 1.5 0 0 0 1.83-.23l6-6c.13-.13.24-.29.32-.46Z" style="-inkscape-stroke:none"/></g></svg>