<svg xmlns="http://www.w3.org/2000/svg" viewBox="0 0 32 32"><path d="M3.79 0A3.74 3.74 0 0 0 0 3.64V28.3c0 2.83 3.3 4.68 5.68 3.14L23 20.16v8.34c0 1.92 1.58 3.5 3.5 3.5h2c1.92 0 3.5-1.58 3.5-3.5v-25C32 1.58 30.42 0 28.5 0h-2A3.52 3.52 0 0 0 23 3.5v8.29L5.68.57A3.5 3.5 0 0 0 3.78 0zm-.13 2.94c.13.01.25.06.38.14l18.49 11.97c.24.16.39.36.47.58v.68c-.08.22-.23.43-.47.58L4.04 28.86c-.51.33-1.03.05-1.03-.56V3.64c0-.3.13-.53.32-.63.1-.06.21-.08.33-.07zM26.5 3h2c.3 0 .5.2.5.5v25c0 .3-.2.5-.5.5h-2c-.3 0-.5-.2-.5-.5v-25c0-.3.2-.5.5-.5z" style="-inkscape-stroke:none"/></svg>