<svg xmlns="http://www.w3.org/2000/svg" viewBox="0 0 32 32"><path d="M28.21 32A3.74 3.74 0 0 0 32 28.36V3.7C32 .87 28.7-.98 26.32.56L9 11.84V3.5C9 1.58 7.42 0 5.5 0h-2A3.52 3.52 0 0 0 0 3.5v25C0 30.42 1.58 32 3.5 32h2C7.42 32 9 30.42 9 28.5v-8.29l17.32 11.22a3.5 3.5 0 0 0 1.9.57zm.13-2.94a.84.84 0 0 1-.38-.14L9.47 16.95c-.24-.16-.39-.36-.47-.58v-.68c.08-.22.23-.43.47-.58L27.96 3.14c.51-.33 1.03-.05 1.03.56v24.66c0 .3-.13.53-.32.63a.59.59 0 0 1-.33.07zM5.5 29h-2c-.3 0-.5-.2-.5-.5v-25c0-.3.2-.5.5-.5h2c.3 0 .5.2.5.5v25c0 .3-.2.5-.5.5z"/></svg>