<svg xmlns="http://www.w3.org/2000/svg" viewBox="0 0 32 32"><path d="M10.5 0C8.032 0 6 2.032 6 4.5V7H4.5C2.032 7 0 9.032 0 11.5v8.898c0 2.468 2.032 4.5 4.5 4.5H6V27.5c0 2.468 2.032 4.5 4.5 4.5h11c2.468 0 4.5-2.032 4.5-4.5v-2.602h1.5c2.468 0 4.5-2.032 4.5-4.5V11.5C32 9.032 29.968 7 27.5 7H26V4.5C26 2.032 23.968 0 21.5 0Zm0 3h11c.846 0 1.5.654 1.5 1.5V7H9V4.5c0-.846.654-1.5 1.5-1.5Zm0 16.031h11c.846 0 1.5.654 1.5 1.5V27.5c0 .846-.654 1.5-1.5 1.5h-11c-.846 0-1.5-.654-1.5-1.5v-6.969c0-.846.654-1.5 1.5-1.5z" /></svg>