<svg xmlns="http://www.w3.org/2000/svg" viewBox="0 0 32 32"><path d="M16 0C7.181 0 0 7.181 0 16c0 8.819 7.181 16 16 16 8.819 0 16-7.181 16-16 0-8.819-7.181-16-16-16Zm0 3c7.197 0 13 5.803 13 13 0 2.716-.827 5.23-2.242 7.313C24.165 20.657 20.268 19 16 19c-4.267 0-8.165 1.658-10.758 4.313A12.955 12.955 0 0 1 3 16C3 8.803 8.803 3 16 3Zm0 3c-3.296 0-6 2.704-6 6s2.704 6 6 6 6-2.704 6-6-2.704-6-6-6zm0 3c1.675 0 3 1.325 3 3s-1.325 3-3 3-3-1.325-3-3 1.325-3 3-3zm0 13c3.65 0 6.8 1.435 8.783 3.596A12.957 12.957 0 0 1 16 29a12.957 12.957 0 0 1-8.783-3.404C9.2 23.435 12.35 22 16 22Zm-8.8 3.578C0 0 0 0 7.2 25.578Zm17.6 0C0 0 0 0 24.8 25.578Z"/></svg>