<svg xmlns="http://www.w3.org/2000/svg" viewBox="0 0 30 32"><path d="M1.5 0A1.5 1.5 0 0 0 0 1.5 1.5 1.5 0 0 0 1.5 3h27A1.5 1.5 0 0 0 30 1.5 1.5 1.5 0 0 0 28.5 0ZM15 8a1.5 1.5 0 0 0-1.5 1.5v17.229L7.59 20.47a1.5 1.5 0 0 0-2.12-.06 1.5 1.5 0 0 0-.06 2.118l8.5 9a1.5 1.5 0 0 0 .033.028 1.5 1.5 0 0 0 .028.033 1.5 1.5 0 0 0 .091.066 1.5 1.5 0 0 0 .1.078 1.5 1.5 0 0 0 .09.059 1.5 1.5 0 0 0 .184.082 1.5 1.5 0 0 0 .01.004 1.5 1.5 0 0 0 .01.006 1.5 1.5 0 0 0 .099.043 1.5 1.5 0 0 0 .056.013 1.5 1.5 0 0 0 .198.034 1.5 1.5 0 0 0 .168.021A1.5 1.5 0 0 0 15 32a1.5 1.5 0 0 0 .023-.004 1.5 1.5 0 0 0 .16-.021 1.5 1.5 0 0 0 .208-.034 1.5 1.5 0 0 0 .054-.013 1.5 1.5 0 0 0 .102-.045 1.5 1.5 0 0 0 .014-.006 1.5 1.5 0 0 0 .187-.084 1.5 1.5 0 0 0 .088-.057 1.5 1.5 0 0 0 .102-.08 1.5 1.5 0 0 0 .091-.066 1.5 1.5 0 0 0 .051-.053 1.5 1.5 0 0 0 .01-.008l.04-.045 8.46-8.955a1.5 1.5 0 0 0-.06-2.119 1.5 1.5 0 0 0-1.073-.41 1.5 1.5 0 0 0-1.047.47L16.5 26.73V9.5A1.5 1.5 0 0 0 15 8Z"/></svg>