<svg xmlns="http://www.w3.org/2000/svg" viewBox="0 0 30 32"><path d="M28.5 32a1.5 1.5 0 0 0 1.5-1.5 1.5 1.5 0 0 0-1.5-1.5h-27A1.5 1.5 0 0 0 0 30.5 1.5 1.5 0 0 0 1.5 32ZM15 24a1.5 1.5 0 0 0 1.5-1.5V5.272l5.91 6.257a1.5 1.5 0 0 0 2.12.06 1.5 1.5 0 0 0 .06-2.118l-8.5-9a1.5 1.5 0 0 0-.033-.028 1.5 1.5 0 0 0-.028-.033 1.5 1.5 0 0 0-.092-.066 1.5 1.5 0 0 0-.1-.078 1.5 1.5 0 0 0-.089-.059 1.5 1.5 0 0 0-.184-.082 1.5 1.5 0 0 0-.01-.004 1.5 1.5 0 0 0-.01-.006 1.5 1.5 0 0 0-.099-.043A1.5 1.5 0 0 0 15.39.06a1.5 1.5 0 0 0-.198-.034 1.5 1.5 0 0 0-.168-.021A1.5 1.5 0 0 0 15 0a1.5 1.5 0 0 0-.023.004 1.5 1.5 0 0 0-.16.021 1.5 1.5 0 0 0-.208.034 1.5 1.5 0 0 0-.054.013 1.5 1.5 0 0 0-.102.045 1.5 1.5 0 0 0-.014.006 1.5 1.5 0 0 0-.187.084 1.5 1.5 0 0 0-.088.057 1.5 1.5 0 0 0-.102.08 1.5 1.5 0 0 0-.091.066 1.5 1.5 0 0 0-.051.053 1.5 1.5 0 0 0-.01.008l-.04.045L5.41 9.47a1.5 1.5 0 0 0 .06 2.119 1.5 1.5 0 0 0 1.073.41 1.5 1.5 0 0 0 1.047-.47L13.5 5.27V22.5A1.5 1.5 0 0 0 15 24z"/></svg>