<svg xmlns="http://www.w3.org/2000/svg" viewBox="0 0 32 30"><path d="M32 1.5A1.5 1.5 0 0 0 30.5 0 1.5 1.5 0 0 0 29 1.5v27a1.5 1.5 0 0 0 1.5 1.5 1.5 1.5 0 0 0 1.5-1.5zM24 15a1.5 1.5 0 0 0-1.5-1.5H5.272l6.257-5.91a1.5 1.5 0 0 0 .06-2.12 1.5 1.5 0 0 0-2.118-.06l-9 8.5a1.5 1.5 0 0 0-.028.033 1.5 1.5 0 0 0-.033.028 1.5 1.5 0 0 0-.066.092 1.5 1.5 0 0 0-.078.1 1.5 1.5 0 0 0-.059.089 1.5 1.5 0 0 0-.082.184 1.5 1.5 0 0 0-.004.01 1.5 1.5 0 0 0-.006.01 1.5 1.5 0 0 0-.043.099 1.5 1.5 0 0 0-.014.056 1.5 1.5 0 0 0-.033.198 1.5 1.5 0 0 0-.021.168A1.5 1.5 0 0 0 0 15a1.5 1.5 0 0 0 .004.023 1.5 1.5 0 0 0 .021.16 1.5 1.5 0 0 0 .034.208 1.5 1.5 0 0 0 .013.054 1.5 1.5 0 0 0 .045.102 1.5 1.5 0 0 0 .006.014 1.5 1.5 0 0 0 .084.187 1.5 1.5 0 0 0 .057.088 1.5 1.5 0 0 0 .08.102 1.5 1.5 0 0 0 .066.091 1.5 1.5 0 0 0 .053.051 1.5 1.5 0 0 0 .008.01l.045.04 8.955 8.46a1.5 1.5 0 0 0 2.119-.06 1.5 1.5 0 0 0 .41-1.073 1.5 1.5 0 0 0-.47-1.047L5.27 16.5H22.5A1.5 1.5 0 0 0 24 15z"/></svg>