<svg xmlns="http://www.w3.org/2000/svg" viewBox="0 0 32 32"><path d="M13 0C9.704 0 7 2.704 7 6H5.5C2.48 6 0 8.48 0 11.5v15C0 29.52 2.48 32 5.5 32h15c3.02 0 5.5-2.48 5.5-5.5v-2c3.296 0 6-2.704 6-6s-2.704-6-6-6v-1C26 8.48 23.52 6 20.5 6H19c0-3.296-2.704-6-6-6Zm0 3c1.675 0 3 1.325 3 3v1.5A1.5 1.5 0 0 0 17.5 9h3c1.398 0 2.5 1.102 2.5 2.5V14a1.5 1.5 0 0 0 1.5 1.5H26c1.675 0 3 1.325 3 3s-1.325 3-3 3h-1.5A1.5 1.5 0 0 0 23 23v3.5c0 1.398-1.102 2.5-2.5 2.5h-15A2.478 2.478 0 0 1 3 26.5v-15C3 10.102 4.102 9 5.5 9h3A1.5 1.5 0 0 0 10 7.5V6c0-1.675 1.325-3 3-3z"/></svg>