<svg xmlns="http://www.w3.org/2000/svg" viewBox="0 0 32 23"><path d="M5.725 0c-.399 0-.78.158-1.062.44-6.217 6.202-6.217 15.918 0 22.12a1.504 1.504 0 0 0 2.124 0 1.498 1.498 0 0 0-.002-2.12c-5.131-5.12-5.131-12.76 0-17.88A1.498 1.498 0 0 0 5.725 0Zm20.55 0a1.498 1.498 0 0 0-1.06 2.56c5.131 5.12 5.131 12.76 0 17.88a1.498 1.498 0 0 0-.002 2.12 1.504 1.504 0 0 0 2.124 0c6.217-6.202 6.217-15.918 0-22.12A1.503 1.503 0 0 0 26.275 0ZM9.838 4.09c-.398 0-.78.157-1.062.437-3.944 3.93-3.944 10.106 0 14.035a1.504 1.504 0 0 0 2.125-.003 1.498 1.498 0 0 0-.002-2.121c-2.877-2.867-2.877-6.922 0-9.788a1.498 1.498 0 0 0-1.06-2.56zm12.324.014a1.498 1.498 0 0 0-1.06 2.56c2.877 2.868 2.877 6.906 0 9.773a1.498 1.498 0 0 0-.003 2.122 1.504 1.504 0 0 0 2.125.003c3.942-3.928 3.942-10.093 0-14.021a1.503 1.503 0 0 0-1.062-.437zM16 7c-2.471 0-4.507 2.032-4.507 4.5S13.53 16 16 16c2.471 0 4.507-2.032 4.507-4.5S18.47 7 16 7z"/></svg>