<svg xmlns="http://www.w3.org/2000/svg" viewBox="0 0 32 32"><path d="M16 0C7.181 0 0 7.181 0 16c0 8.819 7.181 16 16 16 8.261 0 15.088-6.291 15.916-14.348A1.507 1.507 0 0 0 30.576 16a1.506 1.506 0 0 0-1.644 1.346C28.259 23.896 22.742 29 16 29 8.803 29 3 23.197 3 16S8.803 3 16 3c5.026 0 9.362 2.844 11.53 7h-5.032c-.826 0-1.496.672-1.496 1.5s.67 1.5 1.496 1.5h7.475a2.005 2.005 135.07 0 0 2.005-2l.018-7.5a1.496 1.496 0 1 0-2.992 0l.025 3.229C26.126 2.659 21.368 0 16 0Z" color="#000" style="-inkscape-stroke:none"/></svg>