<svg xmlns="http://www.w3.org/2000/svg" viewBox="0 0 32 32"><path d="M25.502 0a1.5 1.5 0 0 0-1.06.438 1.5 1.5 0 0 0-.006 2.12L26.867 5H5.5A5.52 5.52 0 0 0 0 10.5v4c0 2 3 2 3 0v-4C3 9.1 4.1 8 5.5 8h21.387l-2.446 2.438a1.5 1.5 0 0 0-.005 2.12 1.5 1.5 0 0 0 2.123.005l5-4.981a1.5 1.5 0 0 0 .003-2.121l-5-5.02A1.5 1.5 0 0 0 25.503 0zM30.5 16c-.75 0-1.5.5-1.5 1.5v4c0 1.4-1.1 2.5-2.5 2.5H5.113l2.446-2.438a1.5 1.5 0 0 0 .005-2.12 1.5 1.5 0 0 0-2.123-.005l-5 4.981a1.5 1.5 0 0 0-.004 2.121l5 5.02A1.5 1.5 0 0 0 6.498 32a1.5 1.5 0 0 0 1.06-.438 1.5 1.5 0 0 0 .006-2.12L5.133 27H26.5a5.52 5.52 0 0 0 5.5-5.5v-4c0-1-.75-1.5-1.5-1.5z"/></svg>