<svg xmlns="http://www.w3.org/2000/svg" viewBox="0 0 32 32"><path d="M25.98 0a.94.94 0 0 0-.98.95V4H5.5A5.52 5.52 0 0 0 0 9.5v4a1.5 1.5 0 0 0 3 0v-4C3 8.1 4.1 7 5.5 7H25v3.05c0 .8.93 1.23 1.54.73l4.87-4c.8-.67.8-1.9 0-2.55L26.54.22a.94.94 0 0 0-.56-.22Zm4.53 17c-.83 0-1.5.67-1.5 1.5v4c0 1.4-1.1 2.5-2.5 2.5H7v-3.05a.94.94 0 0 0-1.55-.73l-4.86 4c-.8.67-.8 1.9 0 2.55l4.86 4.01a.94.94 0 0 0 1.55-.73V28h19.5c3.02 0 5.5-2.48 5.5-5.5v-4c0-.83-.68-1.5-1.5-1.5z" color="#000" style="-inkscape-stroke:none"/></svg>