<svg xmlns="http://www.w3.org/2000/svg" viewBox="0 0 32 32"><path d="M7.5 0c-.664 0-1.328.269-1.79.807L.362 7.047a1.5 1.5 0 0 0 .162 2.115A1.5 1.5 0 0 0 2.64 9L6 5.08v20.432c0 2.467 2.02 4.504 4.486 4.525l4 .033A1.5 1.5 0 0 0 16 28.584a1.5 1.5 0 0 0-1.486-1.514l-4-.033A1.504 1.504 0 0 1 9 25.512V5.08L12.361 9a1.5 1.5 0 0 0 2.116.162 1.5 1.5 0 0 0 .162-2.115L9.289.807A2.344 2.344 0 0 0 7.5 0zm10.014 2A1.5 1.5 0 0 0 16 3.486 1.5 1.5 0 0 0 17.486 5l4 .033c.855.008 1.514.67 1.514 1.526V26.99l-3.361-3.92a1.5 1.5 0 0 0-2.116-.162 1.5 1.5 0 0 0-.162 2.115l5.35 6.24a2.344 2.344 0 0 0 1.789.807c.664 0 1.328-.268 1.79-.806l5.349-6.24a1.5 1.5 0 0 0-.162-2.116 1.5 1.5 0 0 0-2.116.162L26 26.99V6.56c0-2.468-2.02-4.505-4.486-4.526l-4-.033z"/></svg>