<svg xmlns="http://www.w3.org/2000/svg" viewBox="0 0 32 30"><path d="M8.5 0a3.49 3.49 0 0 0-2.475 1.016L.44 6.602a1.5 1.5 0 0 0 2.122 2.12L7 4.284V28.51c0 .828.672 1.486 1.5 1.49a1.49 1.49 0 0 0 1.5-1.49V4.283l4.44 4.44a1.5 1.5 0 0 0 2.12-2.121l-5.585-5.586A3.489 3.489 0 0 0 8.5 0Zm15 0c-.828.004-1.5.662-1.5 1.49v24.227l-4.44-4.44a1.5 1.5 0 0 0-2.12 2.121l5.585 5.586A3.49 3.49 0 0 0 23.5 30a3.49 3.49 0 0 0 2.475-1.016l5.586-5.586a1.5 1.5 0 0 0-2.122-2.12L25 25.716V1.49A1.49 1.49 0 0 0 23.5 0Z"/></svg>