<svg xmlns="http://www.w3.org/2000/svg" viewBox="0 0 32 32"><g color="#000"><path d="M16 0C7.181 0 0 7.181 0 16c0 8.819 7.181 16 16 16 8.819 0 16-7.181 16-16 0-8.819-7.181-16-16-16Zm0 3c7.197 0 13 5.803 13 13s-5.803 13-13 13S3 23.197 3 16 8.803 3 16 3Z" style="-inkscape-stroke:none"/><path d="M26 16a1.5 1.5 0 0 0-.07-.434 1.5 1.5 0 0 0-.045-.109 1.5 1.5 0 0 0-.143-.281 1.5 1.5 0 0 0-.092-.12 1.5 1.5 0 0 0-.09-.117l-6-6a1.5 1.5 0 0 0-2.12 0 1.5 1.5 0 0 0 0 2.122l3.439 3.439H7.5A1.5 1.5 0 0 0 6 16a1.5 1.5 0 0 0 1.5 1.5h13.379l-3.44 3.44a1.5 1.5 0 0 0 0 2.12 1.5 1.5 0 0 0 2.122 0l5.943-5.945a1.5 1.5 0 0 0 .057-.054 1.5 1.5 0 0 0 .005-.008 1.5 1.5 0 0 0 .233-.303 1.5 1.5 0 0 0 .14-.34 1.5 1.5 0 0 0 .014-.045A1.5 1.5 0 0 0 26 16Z" style="-inkscape-stroke:none"/></g></svg>