<svg xmlns="http://www.w3.org/2000/svg" viewBox="0 0 32 32"><path d="M5.5 0C2.48 0 0 2.48 0 5.5v21C0 29.52 2.48 32 5.5 32h21c3.02 0 5.5-2.48 5.5-5.5v-21C32 2.48 29.52 0 26.5 0h-21zm12.766 8.52a1.5 1.5 0 0 1 1.295.42l6 6a1.5 1.5 0 0 1 .09.117 1.5 1.5 0 0 1 .091.119 1.5 1.5 0 0 1 .143.281 1.5 1.5 0 0 1 .045.11A1.5 1.5 0 0 1 26 16a1.5 1.5 0 0 1-.047.365 1.5 1.5 0 0 1-.014.045 1.5 1.5 0 0 1-.14.34 1.5 1.5 0 0 1-.233.303 1.5 1.5 0 0 1-.005.008 1.5 1.5 0 0 1-.057.054l-5.943 5.946a1.5 1.5 0 0 1-2.122 0 1.5 1.5 0 0 1 0-2.122l3.44-3.439H7.5A1.5 1.5 0 0 1 6 16a1.5 1.5 0 0 1 1.5-1.5h13.379l-3.44-3.44a1.5 1.5 0 0 1 0-2.12 1.5 1.5 0 0 1 .827-.42z"/></svg>