<svg xmlns="http://www.w3.org/2000/svg" viewport="0 0 32 28"><path style="stroke-linecap:round;stroke-linejoin:round" d="M16 0a2.5 2.5 0 0 0-2.5 2.5 2.5 2.5 0 0 0 1 1.992V6h-5C6.48 6 4 8.48 4 11.5v11C4 25.52 6.48 28 9.5 28h13c3.02 0 5.5-2.48 5.5-5.5v-11C28 8.48 25.52 6 22.5 6h-5V4.492a2.5 2.5 0 0 0 1-1.992A2.5 2.5 0 0 0 16 0ZM9.5 9h13c1.398 0 2.5 1.102 2.5 2.5v11c0 1.398-1.102 2.5-2.5 2.5h-13A2.478 2.478 0 0 1 7 22.5v-11C7 10.102 8.102 9 9.5 9Zm-8 3A1.5 1.5 0 0 0 0 13.5v6a1.5 1.5 0 0 0 3 0v-6A1.5 1.5 0 0 0 1.5 12Zm29 0a1.5 1.5 0 0 0-1.5 1.5v6a1.5 1.5 0 0 0 3 0v-6a1.5 1.5 0 0 0-1.5-1.5ZM12 15a2 2 0 1 0 0 4 2 2 0 0 0 0-4zm8 0a2 2 0 1 0 0 4 2 2 0 0 0 0-4z"/></svg>