<svg xmlns="http://www.w3.org/2000/svg" viewBox="0 0 32 32"><path d="M19.5 0a1.5 1.5 0 0 0-1.06.44l-4 4a1.5 1.5 0 0 0 0 2.12l4 4a1.5 1.5 0 0 0 2.12-2.12l-1.374-1.376A10.975 10.975 0 0 1 29 18c0 6.093-4.907 11-11 11-1.629 0-3.166-.351-4.553-.982a1.5 1.5 0 1 0-1.242 2.73A13.962 13.962 0 0 0 18 32c7.714 0 14-6.286 14-14 0-7.352-5.71-13.402-12.924-13.955l1.485-1.484A1.5 1.5 0 0 0 19.5 0ZM9 8a4.588 4.588 0 0 0-3.256 1.338l-4.406 4.406c-1.786 1.786-1.784 4.726.002 6.512l4.404 4.404c1.786 1.786 4.726 1.788 6.512.002l4.406-4.406c1.786-1.786 1.784-4.726-.002-6.512L12.256 9.34A4.593 4.593 0 0 0 9 8Zm1.135 3.46 4.404 4.405c.64.64.64 1.63 0 2.27l-4.406 4.404a1.58 1.58 0 0 1-2.268 0l-4.404-4.404a1.58 1.58 0 0 1 0-2.268l4.404-4.406c.64-.64 1.63-.64 2.27 0z"/></svg>