<svg xmlns="http://www.w3.org/2000/svg" viewBox="0 0 32 32"><path d="M5.67 0A5.69 5.68 0 0 0 0 5.66v20.67A5.7 5.7 0 0 0 5.67 32h2.82a1.5 1.5 0 0 0 .01 0 1.5 1.5 0 0 0 .03 0h14.95a1.5 1.5 0 0 0 .02 0 1.5 1.5 0 0 0 .03 0h2.8A5.7 5.7 0 0 0 32 26.33V9.55a1.5 1.5 0 0 0-.44-1.06L23.51.44A1.5 1.5 0 0 0 22.44 0H5.67Zm0 3H7v4.09A3.94 3.94 0 0 0 10.92 11h7.16A3.94 3.94 0 0 0 22 7.08v-3.9l7 7v16.15A2.65 2.65 0 0 1 26.33 29H25v-8.97a3.94 3.94 0 0 0-3.92-3.92H10.92A3.94 3.94 0 0 0 7 20.03V29H5.67A2.64 2.64 0 0 1 3 26.34V5.66A2.64 2.64 0 0 1 5.68 3zM10 3h9v4.08a.9.9 0 0 1-.92.92h-7.17A.9.9 0 0 1 10 7.1V3Zm.92 16.11h10.16c.53 0 .92.4.92.92V29H10v-8.98c0-.52.4-.91.92-.91z"/></svg>