<svg xmlns="http://www.w3.org/2000/svg" viewBox="0 0 32 32"><path d="M12.02 0a1.5 1.5 0 0 0-.69 2.84l2.21 1.1a5.5 5.5 0 0 0 4.92 0l2.21-1.1A1.5 1.5 0 0 0 19.33.16l-2.21 1.1a2.5 2.5 0 0 1-2.24 0L12.67.16a1.5 1.5 0 0 0-.65-.16ZM5.5 6A5.52 5.52 0 0 0 0 11.5v9C0 23.52 2.48 26 5.5 26h21c3.02 0 5.5-2.48 5.5-5.5v-9C32 8.48 29.52 6 26.5 6ZM16 27.47c-.84 0-1.69.2-2.46.58l-2.21 1.1a1.5 1.5 0 0 0 1.34 2.7l2.21-1.11a2.5 2.5 0 0 1 2.24 0l2.21 1.1a1.5 1.5 0 0 0 1.34-2.68l-2.21-1.1a5.5 5.5 0 0 0-2.46-.59Z"/></svg>