<svg xmlns="http://www.w3.org/2000/svg" xml:space="preserve" viewBox="0 0 32 32"><path d="M25.344 0c-3.076.02-7.154.421-11.166 1.947-4.012 1.526-8.007 4.236-10.711 8.805C.762 15.322-.617 21.668.266 30.33a1.5 1.5 0 0 0 1.242 1.326s8.29 1.45 16.314-1.603c4.012-1.526 8.007-4.236 10.711-8.805 2.705-4.57 4.084-10.916 3.201-19.578A1.5 1.5 0 0 0 30.49.344S28.42-.02 25.344 0zm-.073 3.018c2.097-.02 2.858.124 3.532.21.568 7.487-.665 12.799-2.852 16.493-2.314 3.91-5.657 6.181-9.195 7.527-6.186 2.353-11.984 1.725-13.559 1.523-.568-7.486.665-12.798 2.852-16.492 2.314-3.91 5.657-6.181 9.195-7.527 3.539-1.346 7.225-1.708 10.027-1.734zM23 7C7 7 7 23 7 23 13.4 10.2 23 7 23 7z"/></svg>