<svg xmlns="http://www.w3.org/2000/svg" viewBox="0 0 28 32"><path d="M14 0c-.823 0-1.646.259-2.303.78-1.2.951-3.638 2.36-8.295 2.661C1.552 3.561 0 5.083 0 7v6c0 1.089-.044 2.87.19 4.242 1.674 9.825 13.218 14.506 13.218 14.506l.592.254.592-.254s11.544-4.681 13.219-14.506C28.045 15.868 28 14.088 28 13v-6c0-1.916-1.553-3.438-3.402-3.558-4.657-.3-7.095-1.71-8.295-2.662A3.708 3.708 0 0 0 14 0Zm-.44 3.13c.411-.325.469-.325.88 0 1.69 1.34 4.79 2.97 9.964 3.304.355.022.596.273.596.566v6c0 1.12-.01 2.936-.146 3.738-1.18 6.915-9.303 11.18-10.854 11.944-1.551-.763-9.675-5.029-10.854-11.944C3.01 15.936 3 14.12 3 13V7c0-.293.241-.544.596-.566C8.77 6.1 11.87 4.47 13.56 3.13Z" color="#000" style="-inkscape-stroke:none"/></svg>