<svg xmlns="http://www.w3.org/2000/svg" viewBox="0 0 32 32"><path d="M1.5 0A1.5 1.5 0 0 0 0 1.5 1.5 1.5 0 0 0 1.5 3H4c.47 0 .87.31.97.78l3.13 14.1A4 4 0 0 0 12 21h12.5a4.32 4.32 0 0 0 4.07-2.9l3.23-9.27A3.67 3.67 0 0 0 28.37 4H12.5A1.5 1.5 0 0 0 11 5.5 1.5 1.5 0 0 0 12.5 7h15.88c.48 0 .75.39.6.84l-3.24 9.28a1.3 1.3 0 0 1-1.24.88H12a.98.98 0 0 1-.97-.78L7.9 3.12A4 4 0 0 0 4 0H1.5zm10 23A4.52 4.52 0 0 0 7 27.5c0 2.47 2.03 4.5 4.5 4.5s4.5-2.03 4.5-4.5-2.03-4.5-4.5-4.5zm13 0a4.52 4.52 0 0 0-4.5 4.5c0 2.47 2.03 4.5 4.5 4.5s4.5-2.03 4.5-4.5-2.03-4.5-4.5-4.5zm-13 3c.85 0 1.5.65 1.5 1.5s-.65 1.5-1.5 1.5-1.5-.65-1.5-1.5.65-1.5 1.5-1.5zm13 0c.85 0 1.5.65 1.5 1.5s-.65 1.5-1.5 1.5-1.5-.65-1.5-1.5.65-1.5 1.5-1.5z" color="#000" style="-inkscape-stroke:none"/></svg>