<svg xmlns="http://www.w3.org/2000/svg" viewBox="0 0 32 32"><path d="M5.5 0C2.48 0 0 2.48 0 5.5v21C0 29.52 2.48 32 5.5 32h14c3.02 0 5.5-2.48 5.5-5.5v-1a1.5 1.5 0 0 0-1.5-1.5 1.5 1.5 0 0 0-1.5 1.5v1c0 1.398-1.102 2.5-2.5 2.5h-14A2.478 2.478 0 0 1 3 26.5v-21C3 4.102 4.102 3 5.5 3h14C20.898 3 22 4.102 22 5.5v1A1.5 1.5 0 0 0 23.5 8 1.5 1.5 0 0 0 25 6.5v-1C25 2.48 22.52 0 19.5 0h-14zm8.65 8.486a1.5 1.5 0 0 0-1.05.44l-5.52 5.56c-.78.79-.79 2.05-.01 2.85l5.51 5.7c1.39 1.43 3.55-.66 2.15-2.1l-3.35-3.45H30.5c2 0 2-3 0-3H11.81l3.41-3.441c.945-.946.274-2.558-1.06-2.559h-.01z"/></svg>