<svg xmlns="http://www.w3.org/2000/svg" viewBox="0 0 32 32"><path d="M12.5 0C9.48 0 7 2.48 7 5.5v1A1.5 1.5 0 0 0 8.5 8 1.5 1.5 0 0 0 10 6.5v-1C10 4.102 11.102 3 12.5 3h14C27.898 3 29 4.102 29 5.5v21c0 1.398-1.102 2.5-2.5 2.5h-14a2.478 2.478 0 0 1-2.5-2.5v-1A1.5 1.5 0 0 0 8.5 24 1.5 1.5 0 0 0 7 25.5v1c0 3.02 2.48 5.5 5.5 5.5h14c3.02 0 5.5-2.48 5.5-5.5v-21C32 2.48 29.52 0 26.5 0h-14zm5.34 8.5c-1.334 0-2.005 1.615-1.06 2.56l3.41 3.44H1.5c-2 0-2 3 0 3h18.62l-3.35 3.45c-1.4 1.44.76 3.53 2.15 2.1l5.51-5.7c.78-.8.77-2.06-.01-2.85L18.9 8.94a1.5 1.5 0 0 0-1.05-.44h-.01z"/></svg>