<svg xmlns="http://www.w3.org/2000/svg"  viewBox="0 0 32 32"><path d="M26.91 0c-.18 0-.37.01-.55.03L12.8 1.56A6 6 0 0 0 7.5 7.5v1a1.5 1.5 0 1 0 3 0v-1a2.96 2.96 0 0 1 2.64-2.96L26.7 3.01c1.26-.14 2.31.8 2.31 2.07v21.84c0 1.26-1.05 2.2-2.3 2.06l-13.56-1.5a2.96 2.96 0 0 1-2.64-2.96v-1a1.5 1.5 0 1 0-3 0v1a6 6 0 0 0 5.3 5.93l13.56 1.52A5.1 5.1 0 0 0 32 26.92V5.08A5.1 5.1 0 0 0 26.91 0Zm-9.06 8.5a1.5 1.5 0 0 0-1.07 2.56l3.41 3.44H1.5c-2 0-2 3 0 3h18.62l-3.35 3.45c-1.4 1.44.76 3.53 2.15 2.1l5.51-5.7c.78-.8.77-2.06-.01-2.85L18.9 8.94a1.5 1.5 0 0 0-1.06-.44Z"/></svg>