<svg xmlns="http://www.w3.org/2000/svg" xml:space="preserve" viewBox="0 0 32 32"><path d="M5.09 32c.18 0 .37-.01.55-.03l13.55-1.53a6 6 0 0 0 5.31-5.94v-1a1.5 1.5 0 1 0-3 0v1a2.96 2.96 0 0 1-2.64 2.96L5.3 28.99c-1.26.14-2.31-.8-2.31-2.07V5.08c0-1.26 1.05-2.2 2.3-2.06l13.56 1.5a2.96 2.96 0 0 1 2.64 2.96v1a1.5 1.5 0 1 0 3 0v-1a6 6 0 0 0-5.3-5.93L5.63.03A5.1 5.1 0 0 0 0 5.08v21.84A5.1 5.1 0 0 0 5.09 32zm9.06-8.5a1.5 1.5 0 0 0 1.07-2.56l-3.41-3.44H30.5c2 0 2-3 0-3H11.88l3.35-3.45c1.4-1.44-.76-3.53-2.15-2.1l-5.51 5.7c-.78.8-.77 2.06.01 2.85l5.51 5.56c.28.28.66.44 1.06.44z" style="-inkscape-stroke:none"/></svg>