<svg xmlns="http://www.w3.org/2000/svg" viewport="0 0 32 32"><path d="M16 0C7.181 0 0 7.181 0 16v4.5C0 23.52 2.48 26 5.5 26h2.418l-.709 2.129C6.588 29.992 8.036 32 10 32h12c1.964 0 3.412-2.008 2.791-3.871L24.082 26H26.5c3.02 0 5.5-2.48 5.5-5.5V16c0-8.819-7.181-16-16-16Zm0 3c7.197 0 13 5.803 13 13v4.5c0 1.398-1.102 2.5-2.5 2.5H22a1.5 1.5 0 0 0-1.424 1.975L21.92 29H10.08l1.344-4.025A1.5 1.5 0 0 0 10 23H5.5A2.478 2.478 0 0 1 3 20.5V16C3 8.803 8.803 3 16 3ZM9.5 15a2.5 2.5 0 1 0 0 5 2.5 2.5 0 0 0 0-5Zm13 0a2.5 2.5 0 1 0 0 5 2.5 2.5 0 0 0 0-5Z"/></svg>