<svg xmlns="http://www.w3.org/2000/svg" viewBox="0 0 32 32"><path d="m15.176.023.176 2.995A12.977 12.977 0 0 1 29 16c0 7.197-5.803 13-13 13A12.975 12.975 0 0 1 3.121 17.771h.002a12.666 12.666 0 0 1-.115-1.51c-.008-.397-.001-.794.027-1.19L.04 14.882c-.027.372-.033.744-.033 1.117H0c0 .107.006.212.008.318.012.624.053 1.124.117 1.643.008.066.013.133.021.2H.15C1.21 25.96 7.914 32 16 32c8.819 0 16-7.181 16-16C32 8.03 26.134 1.4 18.496.197V.191a16.178 16.178 0 0 0-3.32-.168zm-3.242.512A15.996 15.996 0 0 0 8.83 1.71l1.346 2.68c.797-.401 1.635-.72 2.498-.95ZM6.029 3.498a15.936 15.936 0 0 0-2.35 2.309L6 7.709a12.961 12.961 0 0 1 1.926-1.887ZM16 6a1.5 1.5 0 0 0-1.5 1.5v9.607l7.559 2.327a1.5 1.5 0 1 0 .882-2.868L17.5 14.893V7.5A1.5 1.5 0 0 0 16 6ZM1.854 8.55c-.518.972-.93 2-1.235 3.057l2.881.84c.248-.864.587-1.701 1.008-2.496z"/></svg>