<svg xmlns="http://www.w3.org/2000/svg" viewBox="0 0 32 32"><path d="M22.25 6c-.084 0-.167.004-.25.006v3.002c.083-.003.166-.008.25-.008C25.971 9 29 12.092 29 16s-3.029 7-6.75 7c-.084 0-.167-.005-.25-.008v3.002c.083.002.166.006.25.006C27.642 26 32 21.481 32 16S27.642 6 22.25 6ZM22 12v8c2.195 0 4-1.805 4-4 0-2.195-1.805-4-4-4zM15.539.144c-.691.202-1.34.65-1.812 1.29L9.982 6.5c-.465.63-1.199 1-1.982 1H3.5C1.585 7.5 0 9.085 0 11v9c0 1.915 1.585 3.5 3.5 3.5H8c.752 0 1.45.372 1.87.996l4.042 6.027c.864 1.288 2.464 1.717 3.73 1.332C18.91 31.47 20 30.22 20 28.67V3.5C20 1.909 18.906.592 17.611.166A3.52 3.52 0 0 0 15.54.144Z" color="#000" style="-inkscape-stroke:none"/></svg>