<svg xmlns="http://www.w3.org/2000/svg" viewBox="0 0 32 32"><path d="M16.6 0a3.5 3.5 0 0 0-2.87 1.43L9.98 6.5c-.46.63-1.2 1-1.98 1H3.5A3.52 3.52 0 0 0 0 11v9c0 1.91 1.59 3.5 3.5 3.5h.44l-3.5 3.43a1.5 1.5 0 0 0-.01 2.12 1.5 1.5 0 0 0 2.12.02l27-26.5a1.5 1.5 0 0 0 .02-2.12A1.5 1.5 0 0 0 28.51 0a1.5 1.5 0 0 0-1.06.43L20 7.74V3.5C20 1.9 18.9.6 17.61.17 17.28.06 16.94 0 16.6 0zm-.07 3.01c.04 0 .1.02.14.04.2.06.33.14.33.45v7.19L7 20.5H3.5A.48.48 0 0 1 3 20v-9c0-.3.2-.5.5-.5H8c1.73 0 3.36-.82 4.4-2.22l3.74-5.06c.14-.2.26-.23.39-.21zm11.64 5.06-2.13 2.13A7.04 7.04 0 0 1 29 16c0 3.9-3.03 7-6.75 7H22v3h.25c5.4 0 9.75-4.52 9.75-10 0-3.21-1.5-6.1-3.83-7.93zm-4.37 4.37-1.8 1.8V20c2.2 0 4-1.8 4-4 0-1.55-.9-2.9-2.2-3.56zm-3.8 3.8-3 3v9.43c0 .25-.08.27-.23.31-.15.05-.23.08-.37-.13l-3.61-5.4-2.17 2.17 3.3 4.9a3.37 3.37 0 0 0 3.72 1.34A3.38 3.38 0 0 0 20 28.67V16.24z"/></svg>