<svg xmlns="http://www.w3.org/2000/svg" viewBox="0 0 32 32"><path d="M30.5 0a1.5 1.5 0 0 0-1.06.44l-29 29a1.5 1.5 0 0 0 0 2.12 1.5 1.5 0 0 0 2.12 0l29-29a1.5 1.5 0 0 0 0-2.12A1.5 1.5 0 0 0 30.5 0ZM16.592 0a3.609 3.609 0 0 0-1.053.145c-.69.202-1.34.649-1.812 1.289L9.982 6.5c-.465.63-1.199 1-1.982 1H3.5C1.585 7.5 0 9.085 0 11v9c0 1.915 1.585 3.5 3.5 3.5h.758l3-3H3.5A.479.479 0 0 1 3 20v-9c0-.294.206-.5.5-.5H8a5.468 5.468 0 0 0 4.395-2.217l3.746-5.066c.187-.254.326-.238.53-.17.206.068.329.138.329.453v7.258l3-3V3.5C20 1.909 18.906.592 17.611.166A3.386 3.386 0 0 0 16.591 0Zm11.582 8.068L26.043 10.2C27.827 11.451 29 13.568 29 16c0 3.908-3.029 7-6.75 7-.084 0-.167-.005-.25-.008v3.002c.083.002.166.006.25.006C27.642 26 32 21.481 32 16c0-3.214-1.5-6.096-3.826-7.932Zm-4.371 4.371L22 14.242V20c2.195 0 4-1.805 4-4 0-1.547-.9-2.896-2.197-3.56zM20 16.242l-3 3v9.428c0 .254-.077.266-.23.312-.154.047-.226.08-.368-.13l-3.617-5.395-2.162 2.162 3.29 4.904c.863 1.288 2.463 1.718 3.73 1.332C18.909 31.47 20 30.22 20 28.67Z" color="#000" style="-inkscape-stroke:none"/></svg>