<svg xmlns="http://www.w3.org/2000/svg" viewBox="0 0 32 32"><path d="M22 12v8c2.195 0 4-1.805 4-4 0-2.195-1.805-4-4-4zM15.539.144c-.691.202-1.34.65-1.812 1.29L9.982 6.5c-.465.63-1.199 1-1.982 1H3.5C1.585 7.5 0 9.085 0 11v9c0 1.915 1.585 3.5 3.5 3.5H8c.752 0 1.45.372 1.87.996l4.042 6.027c.864 1.288 2.464 1.717 3.73 1.332C18.91 31.47 20 30.22 20 28.67V3.5C20 1.909 18.906.592 17.611.166A3.52 3.52 0 0 0 15.54.144Zm1.133 2.903c.205.068.328.138.328.453v25.17c0 .254-.077.266-.23.312-.154.047-.226.08-.368-.13l-4.043-6.028A5.253 5.253 0 0 0 8 20.5H3.5A.479.479 0 0 1 3 20v-9c0-.294.206-.5.5-.5H8a5.468 5.468 0 0 0 4.395-2.217l3.746-5.066c.187-.254.326-.238.53-.17z"/></svg>