<svg xmlns="http://www.w3.org/2000/svg" viewBox="0 0 32 32"><path d="M16.6 0a3.5 3.5 0 0 0-2.87 1.43L9.98 6.5c-.46.63-1.2 1-1.98 1H3.5A3.52 3.52 0 0 0 0 11v9c0 1.91 1.59 3.5 3.5 3.5h.44l-3.5 3.43a1.5 1.5 0 0 0 2.11 2.14l27-26.5a1.5 1.5 0 0 0-2.1-2.14L20 7.74V3.5C20 1.9 18.9.6 17.61.17 17.28.06 16.94 0 16.6 0Zm11.57 8.07-2.13 2.13A7.04 7.04 0 0 1 29 16c0 3.9-3.03 7-6.75 7H22v3h.25c5.4 0 9.75-4.52 9.75-10 0-3.21-1.5-6.1-3.83-7.93Zm-4.37 4.37-1.8 1.8V20c2.2 0 4-1.8 4-4 0-1.55-.9-2.9-2.2-3.56zm-3.8 3.8-9.38 9.38 3.3 4.9a3.37 3.37 0 0 0 3.72 1.34A3.38 3.38 0 0 0 20 28.67Z" style="-inkscape-stroke:none"/></svg>