<svg xmlns="http://www.w3.org/2000/svg" viewBox="0 0 26 32"><path d="M5.5 0C2.48 0 0 2.48 0 5.5v21C0 29.52 2.48 32 5.5 32h15c3.02 0 5.5-2.48 5.5-5.5v-21C26 2.48 23.52 0 20.5 0h-15zm0 3h15C21.898 3 23 4.102 23 5.5v21c0 1.398-1.102 2.5-2.5 2.5h-15A2.478 2.478 0 0 1 3 26.5v-21C3 4.102 4.102 3 5.5 3zM13 6a1.5 1.5 0 0 0-1.5 1.5A1.5 1.5 0 0 0 13 9a1.5 1.5 0 0 0 1.5-1.5A1.5 1.5 0 0 0 13 6zm0 6c-3.848 0-7 3.152-7 7s3.152 7 7 7 7-3.152 7-7-3.152-7-7-7zm0 3c2.227 0 4 1.773 4 4 0 2.227-1.773 4-4 4-2.227 0-4-1.773-4-4 0-2.227 1.773-4 4-4z" color="#000" style="-inkscape-stroke:none"/></svg>