<svg xmlns="http://www.w3.org/2000/svg" viewBox="0 0 32 30"><path d="M3.5 0C1.585 0 0 1.585 0 3.5v3C0 11.177 3.823 15 8.5 15H14c.17 0 .336-.017.5-.041V28.5a1.5 1.5 0 0 0 3 0v-5.541c.164.024.33.041.5.041h5.5c4.677 0 8.5-3.823 8.5-8.5v-3C32 9.585 30.415 8 28.5 8H23a8.455 8.455 0 0 0-5.5 2.035V8.5C17.5 3.823 13.677 0 9 0Zm0 3H9c3.055 0 5.5 2.445 5.5 5.5v3c0 .294-.206.5-.5.5H8.5A5.477 5.477 0 0 1 3 6.5v-3c0-.294.206-.5.5-.5ZM23 11h5.5c.294 0 .5.206.5.5v3c0 3.055-2.445 5.5-5.5 5.5H18a.479.479 0 0 1-.5-.5v-3c0-3.055 2.445-5.5 5.5-5.5Z" color="#000" style="-inkscape-stroke:none"/></svg>