<svg xmlns="http://www.w3.org/2000/svg" viewBox="0 0 32 32"><path d="M16 0C10.76.02 6.7 1.2 3.94 3.95 1.21 6.7.02 10.77 0 16l1.5.01-1.5.01c.04 5.22 1.23 9.3 3.96 12.05C6.7 30.8 10.78 32 16 32c5.22 0 9.31-1.2 12.06-3.94C30.81 25.31 32 21.22 32 16c0-5.22-1.19-9.32-3.94-12.07C25.32 1.18 21.22-.02 16 0Zm0 3c4.78-.02 7.93 1.04 9.94 3.05 2 2 3.06 5.18 3.06 9.95s-1.06 7.94-3.06 9.94c-2 2-5.17 3.06-9.94 3.06s-7.92-1.06-9.91-3.06c-2-2-3.05-5.17-3.09-9.94.02-4.77 1.08-7.93 3.07-9.93 2-2 5.16-3.05 9.94-3.07Z" color="#000" style="-inkscape-stroke:none"/></svg>