<svg xmlns="http://www.w3.org/2000/svg" viewBox="0 0 32 32"><path d="M8.5 0a6.364 6.364 0 0 0-6.232 5.143L.028 16.715A1.5 1.5 0 0 0 0 17v9.5C0 29.52 2.48 32 5.5 32h21c3.02 0 5.5-2.48 5.5-5.5V17a1.5 1.5 0 0 0-.027-.285l-2.24-11.572A6.364 6.364 0 0 0 23.5 0h-15zm0 3h15a3.334 3.334 0 0 1 3.287 2.713L28.78 16H21.5a1.5 1.5 0 0 0-1.5 1.5V20h-8v-2.5a1.5 1.5 0 0 0-1.5-1.5H3.22L5.214 5.713A3.334 3.334 0 0 1 8.5 3zM3 19h6v2.5a1.5 1.5 0 0 0 1.5 1.5h11a1.5 1.5 0 0 0 1.5-1.5V19h6v7.5c0 1.398-1.102 2.5-2.5 2.5h-21A2.478 2.478 0 0 1 3 26.5V19z"/></svg>