<svg xmlns="http://www.w3.org/2000/svg" xml:space="preserve" viewBox="0 0 32 30"><path d="M8 0a5.543 5.543 0 0 0-5.299 3.941l-1.62 5.407c-.037.12-.478.883-.79 1.656-.439 1.088-.445 1.948.023 3.055a4.004 4.004 0 0 0 2.127 2.127c.56.236 1.05.277 1.559.277V25.5C4 27.968 6.032 30 8.5 30h15c2.468 0 4.5-2.032 4.5-4.5v-9.037c.509 0 1-.04 1.559-.277a4.004 4.004 0 0 0 2.127-2.127c.236-.56.277-1.05.277-1.559 0-.509-.043-1-.28-1.559-.303-.716-.721-1.454-.763-1.593L29.299 3.94A5.543 5.543 0 0 0 24 0Zm0 3h16c1.125 0 2.103.727 2.426 1.805l1.62 5.404c.276.918.77 1.65.876 1.902-.023-.053.04.179.04.391.001.212-.063.441-.04.387-.1.237-.296.433-.533.533.054-.023-.177.04-.389.04-.212 0-.443-.063-.389-.04a1.017 1.017 0 0 1-.533-.533C26.712 12.024 25.9 11 24.5 11h-1c-1.4 0-2.212 1.024-2.578 1.889-.1.237-.296.433-.533.533.054-.023-.177.04-.389.04-.212 0-.443-.063-.389-.04a1.017 1.017 0 0 1-.533-.533C18.712 12.024 17.9 11 16.5 11h-1c-1.4 0-2.212 1.024-2.578 1.889-.1.237-.296.433-.533.533.054-.023-.177.04-.389.04-.212 0-.443-.063-.389-.04a1.017 1.017 0 0 1-.533-.533C10.712 12.024 9.9 11 8.5 11h-1c-1.4 0-2.212 1.024-2.578 1.889-.1.237-.296.433-.533.533.054-.023-.177.04-.389.04-.212 0-.443-.063-.389-.04a1.017 1.017 0 0 1-.533-.533c-.087-.975.525-1.754.875-2.68l1.621-5.404A2.521 2.521 0 0 1 8 3Zm0 10.836c.2 0 .287.158.314.223a4.004 4.004 0 0 0 2.127 2.127c.56.236 1.05.277 1.559.277.509 0 1-.04 1.559-.277a4.004 4.004 0 0 0 2.127-2.127c.025-.061.082-.226.314-.223.202.003.264.103.314.223a4.004 4.004 0 0 0 2.127 2.127c.56.236 1.05.277 1.559.277.509 0 1-.04 1.559-.277a4.004 4.004 0 0 0 2.127-2.127c.019-.045.11-.225.314-.227.214-.002.31.215.314.227.17.4.404.763.686 1.084V25.5c0 .846-.654 1.5-1.5 1.5H23v-4.502c0-1.915-1.587-3.501-3.502-3.5l-3 .004c-1.915.001-3.498 1.585-3.498 3.5V27H8.5c-.846 0-1.5-.654-1.5-1.5V15.143c.282-.32.486-.698.686-1.084.075-.146.135-.224.314-.223Zm11.502 8.162c.293 0 .498.207.498.5V27h-4v-4.498c0-.295.207-.5.502-.5z" color="#000" style="-inkscape-stroke:none"/></svg>