<svg xmlns="http://www.w3.org/2000/svg" viewBox="0 0 32 30"><path d="M8 0a5.543 5.543 0 0 0-5.299 3.941l-1.62 5.407c-.037.12-.478.883-.79 1.656-.439 1.088-.445 1.948.023 3.055a4.004 4.004 0 0 0 2.127 2.127c.56.236 1.05.277 1.559.277V25.5C4 27.968 6.032 30 8.5 30h15c2.468 0 4.5-2.032 4.5-4.5v-9.037c.509 0 1-.04 1.559-.277a4.004 4.004 0 0 0 2.127-2.127c.236-.56.277-1.05.277-1.559 0-.509-.043-1-.28-1.559-.303-.716-.721-1.454-.763-1.593L29.299 3.94A5.543 5.543 0 0 0 24 0H8zm8.5 20.5h3a2 2 0 0 1 2 2V27h-7v-4.5a2 2 0 0 1 2-2z"/></svg>