<svg xmlns="http://www.w3.org/2000/svg" viewBox="0 0 32 32"><path d="M10.5 15A1.5 1.5 0 0 0 9 16.5a1.5 1.5 0 0 0 1.5 1.5h11a1.5 1.5 0 0 0 1.5-1.5 1.5 1.5 0 0 0-1.5-1.5ZM9.004-.049a5.176 5.176 0 0 0-4.352 2.354L.533 8.645l.008.005A3.454 3.454 0 0 0 0 10.5v16C0 29.52 2.48 32 5.5 32h21c3.02 0 5.5-2.48 5.5-5.5v-16a3.44 3.44 0 0 0-.346-1.496l.006-.002-3.4-6.434a4.837 4.837 0 0 0-4.256-2.574Zm-.008 3 15 .043c.68.002 1.294.374 1.611.975L27.21 7H5.179l1.989-3.06a2.168 2.168 0 0 1 1.828-.989ZM3.5 10h25c.18 0 .32.085.406.213l.063.117a.538.538 0 0 1 .031.17v16c0 1.398-1.102 2.5-2.5 2.5h-21A2.478 2.478 0 0 1 3 26.5v-16c0-.082.02-.155.049-.22.076-.17.24-.28.451-.28Z"/></svg>