<svg xmlns="http://www.w3.org/2000/svg" viewBox="0 0 32 32"><path d="M27.5 13.5a1.5 1.5 0 0 0 0 3h3a1.5 1.5 0 0 0 0-3zm-1-9.5a1.5 1.5 0 0 0-1.06.44l-2.122 2.12a1.5 1.5 0 0 0 2.121 2.122l2.122-2.121A1.5 1.5 0 0 0 26.5 4ZM16 26a1.5 1.5 0 0 0-1.5 1.5v3a1.5 1.5 0 0 0 3 0v-3A1.5 1.5 0 0 0 16 26Zm-9.44-2.682L4.44 25.44a1.5 1.5 0 0 0 2.12 2.122l2.122-2.122a1.5 1.5 0 0 0-2.121-2.12zM1.5 13.5a1.5 1.5 0 0 0 0 3h3a1.5 1.5 0 0 0 0-3Zm22.879 9.379a1.5 1.5 0 0 0-1.06 2.56l2.12 2.122a1.5 1.5 0 0 0 2.122-2.122l-2.122-2.12a1.5 1.5 0 0 0-1.06-.44ZM5.5 4a1.5 1.5 0 0 0-1.06 2.56l2.12 2.122A1.5 1.5 0 0 0 8.683 6.56L6.56 4.439A1.5 1.5 0 0 0 5.5 4ZM16 0a1.5 1.5 0 0 0-1.5 1.5v3a1.5 1.5 0 0 0 3 0v-3A1.5 1.5 0 0 0 16 0Zm0 8c-4.4 0-8 3.6-8 8s3.6 8 8 8 8-3.6 8-8-3.6-8-8-8z" color="#000" style="-inkscape-stroke:none"/></svg>