<svg xmlns="http://www.w3.org/2000/svg" viewBox="0 0 32 32"><path d="M27.5 13.5A1.5 1.5 0 0 0 26 15a1.5 1.5 0 0 0 1.5 1.5h3A1.5 1.5 0 0 0 32 15a1.5 1.5 0 0 0-1.5-1.5Zm-1-9.5a1.5 1.5 0 0 0-1.06.44l-2.122 2.12a1.5 1.5 0 0 0 0 2.122 1.5 1.5 0 0 0 2.121 0l2.122-2.121a1.5 1.5 0 0 0 0-2.122A1.5 1.5 0 0 0 26.5 4ZM16 26a1.5 1.5 0 0 0-1.5 1.5v3A1.5 1.5 0 0 0 16 32a1.5 1.5 0 0 0 1.5-1.5v-3A1.5 1.5 0 0 0 16 26Zm-9.44-2.682L4.44 25.44a1.5 1.5 0 0 0 0 2.122 1.5 1.5 0 0 0 2.12 0l2.122-2.122a1.5 1.5 0 0 0 0-2.12 1.5 1.5 0 0 0-2.121 0zM1.5 13.5A1.5 1.5 0 0 0 0 15a1.5 1.5 0 0 0 1.5 1.5h3A1.5 1.5 0 0 0 6 15a1.5 1.5 0 0 0-1.5-1.5Zm22.879 9.379a1.5 1.5 0 0 0-1.06.44 1.5 1.5 0 0 0 0 2.12l2.12 2.122a1.5 1.5 0 0 0 2.122 0 1.5 1.5 0 0 0 0-2.122l-2.122-2.12a1.5 1.5 0 0 0-1.06-.44ZM5.5 4a1.5 1.5 0 0 0-1.06.44 1.5 1.5 0 0 0 0 2.12l2.12 2.122a1.5 1.5 0 0 0 2.122 0 1.5 1.5 0 0 0 0-2.121L6.56 4.439A1.5 1.5 0 0 0 5.5 4ZM16 0a1.5 1.5 0 0 0-1.5 1.5v3A1.5 1.5 0 0 0 16 6a1.5 1.5 0 0 0 1.5-1.5v-3A1.5 1.5 0 0 0 16 0Zm0 8c-4.4 0-8 3.6-8 8s3.6 8 8 8 8-3.6 8-8-3.6-8-8-8zm0 3c2.78 0 5 2.22 5 5s-2.22 5-5 5-5-2.22-5-5 2.22-5 5-5z" color="#000" style="-inkscape-stroke:none"/></svg>