<svg xmlns="http://www.w3.org/2000/svg" viewBox="0 0 32 32"><path d="M1.5 0A1.5 1.5 0 0 0 0 1.5v6c0 1.71.77 3.34 2.09 4.43l15.17 12.5-2.36 2.55a1.5 1.5 0 0 0 .08 2.12 1.5 1.5 0 0 0 2.12-.08l2.48-2.69 6.47 5.33a1.5 1.5 0 0 0 2.01-.1l3.5-3.5a1.5 1.5 0 0 0 .1-2.01l-5.57-6.77 3.01-3.26a1.5 1.5 0 0 0-.08-2.12 1.5 1.5 0 0 0-1.08-.4 1.5 1.5 0 0 0-1.04.48l-2.74 2.97L11.93 2.09A5.74 5.74 0 0 0 7.5 0h-6zM3 3h4.5c.82 0 1.6.37 2.11 1l12.5 15.17-2.81 3.04L4 9.61c-.63-.52-1-1.3-1-2.11V3zm21.03 18.5 4.45 5.4-1.58 1.58-5.28-4.36 2.41-2.61z"/></svg>