<svg xmlns="http://www.w3.org/2000/svg" viewBox="0 0 32 32"><path d="M10.5 6A4.52 4.52 0 0 0 6 10.5c0 2.47 2.03 4.5 4.5 4.5s4.5-2.03 4.5-4.5S12.97 6 10.5 6Zm0 3c.85 0 1.5.65 1.5 1.5s-.65 1.5-1.5 1.5S9 11.35 9 10.5 9.65 9 10.5 9ZM5.44 0a5.52 5.52 0 0 0-5.5 5.5v8c0 1.7.7 3.3 1.93 4.47l13.17 12.5a5.62 5.62 0 0 0 7.82-.1l7.46-7.48a5.62 5.62 0 0 0 .1-7.82L17.89 1.91A6.16 6.16 0 0 0 13.43 0Zm0 3h7.99c.87 0 1.7.36 2.3.98l12.52 13.16a2.58 2.58 0 0 1-.05 3.63l-7.46 7.47a2.58 2.58 0 0 1-3.64.05L3.93 15.8a3.15 3.15 0 0 1-.99-2.29v-8c0-1.4 1.1-2.5 2.5-2.5z" color="#000" style="-inkscape-stroke:none"/></svg>