<svg xmlns="http://www.w3.org/2000/svg" xml:space="preserve" viewBox="0 0 32 32"><path d="M16 0C7.181 0 0 7.181 0 16c0 8.819 7.181 16 16 16 8.819 0 16-7.181 16-16 0-8.819-7.181-16-16-16zm0 3c7.197 0 13 5.803 13 13s-5.803 13-13 13S3 23.197 3 16 8.803 3 16 3zm0 3C10.495 6 6 10.495 6 16s4.495 10 10 10 10-4.495 10-10S21.505 6 16 6zm0 3c3.884 0 7 3.116 7 7s-3.116 7-7 7-7-3.116-7-7 3.116-7 7-7zm0 3c-2.191 0-4 1.809-4 4s1.809 4 4 4 4-1.809 4-4-1.809-4-4-4zm0 3c.57 0 1 .43 1 1 0 .57-.43 1-1 1-.57 0-1-.43-1-1 0-.57.43-1 1-1z" color="#000" style="-inkscape-stroke:none"/></svg>