<svg xmlns="http://www.w3.org/2000/svg" viewBox="0 0 32 30"><path d="M10.003 29.5a4.9 4.9 0 0 0 4.159-2.55l6.84-10.05V3.5c0-1.92-1.58-3.5-3.5-3.5H5.263a3.8 3.8 0 0 0-3.75 3.3L.023 14.82a3.29 3.29 0 0 0 3.24 3.68h5.6l-2.59 7.1a2.94 2.94 0 0 0 2.73 3.9zm0-3h-.86l2.59-7.1a2.94 2.94 0 0 0-2.73-3.9h-5.74c-.19 0-.29-.11-.26-.3l1.49-11.52a.76.76 0 0 1 .77-.68h12.239c.3 0 .5.2.5.5v12.6l-6.43 9.34c-.4.7-.97 1.06-1.57 1.06zM28.5 18a3.52 3.52 0 0 0 3.5-3.5v-11C32 1.58 30.42 0 28.5 0h-2c-1.92 0-3.499 1.58-3.499 3.5v11c0 1.92 1.58 3.5 3.5 3.5zm0-3h-2c-.3 0-.5-.2-.5-.5v-11c0-.3.2-.5.5-.5h2c.3 0 .5.2.5.5v11c0 .3-.2.5-.5.5z"/></svg>