<svg xmlns="http://www.w3.org/2000/svg" viewBox="0 0 32 32"><path d="M10.49 0C9.14 0 7.8.28 6.56.8a1.5 1.5 0 0 0-.53 2.4l4.7 5.12-2.41 2.42L3.2 6.03a1.5 1.5 0 0 0-2.4.53 10.5 10.5 0 0 0-.8 3.93 1.5 1.5 0 0 0 0 .01C0 16.28 4.72 21 10.5 21a1.5 1.5 0 0 0 .01 0c.98 0 1.91-.3 2.85-.57L23.9 30.98a3.52 3.52 0 0 0 4.95 0l2.12-2.12a3.52 3.52 0 0 0 0-4.95L20.43 13.36c.27-.94.56-1.87.57-2.85a1.5 1.5 0 0 0 0-.01C21 4.72 16.28 0 10.5 0a1.5 1.5 0 0 0-.01 0zm.02 3a7.47 7.47 0 0 1 6.93 10.3 1.5 1.5 0 0 0 .32 1.63l11.1 11.1c.2.2.2.5 0 .7l-2.12 2.13c-.21.2-.5.2-.7 0l-11.1-11.1a1.5 1.5 0 0 0-1.64-.32A7.47 7.47 0 0 1 3 10.5c0-.17.09-.33.1-.5l4.25 3.9a1.5 1.5 0 0 0 2.07-.04l4.46-4.45a1.5 1.5 0 0 0 .04-2.07l-3.9-4.25c.16-.01.32-.1.49-.1z" color="#000" style="-inkscape-stroke:none"/></svg>