<svg xmlns="http://www.w3.org/2000/svg" viewBox="0 0 32 28"><path d="M4.5 0C2.032 0 0 2.032 0 4.5v12c0 2.116 1.496 3.908 3.479 4.377A4.94 4.94 0 0 0 3 23c0 2.744 2.256 5 5 5s5-2.256 5-5c0-.71-.15-1.386-.422-2h5.844A4.939 4.939 0 0 0 18 23c0 2.744 2.256 5 5 5s5-2.256 5-5c0-.71-.15-1.386-.422-2H30.5a1.5 1.5 0 0 0 1.5-1.5v-7.453a1.5 1.5 0 0 0-.44-1.06l-3.955-3.548A1.5 1.5 0 0 0 26.545 7H23V4.5C23 2.032 20.968 0 18.5 0Zm0 3h14c.846 0 1.5.654 1.5 1.5v3.592L19.998 18H4.5c-.846 0-1.5-.654-1.5-1.5v-12C3 3.654 3.654 3 4.5 3ZM23 10h2.924L29 12.668V18h-6ZM8 21c1.122 0 2 .878 2 2 0 1.122-.878 2-2 2-1.122 0-2-.878-2-2 0-1.122.878-2 2-2zm15 0c1.122 0 2 .878 2 2 0 1.122-.878 2-2 2-1.122 0-2-.878-2-2 0-1.122.878-2 2-2z"/></svg>