<svg xmlns="http://www.w3.org/2000/svg" viewBox="0 0 32 30"><path d="M8.879.004a1.5 1.5 0 0 0-1.022.523 1.5 1.5 0 0 0 .17 2.116l3.895 3.314H5.5c-3.02 0-5.5 2.48-5.5 5.5v13c0 3.02 2.48 5.5 5.5 5.5h21c3.02 0 5.5-2.48 5.5-5.5v-13c0-3.02-2.48-5.5-5.5-5.5h-5.922l3.895-3.314a1.5 1.5 0 0 0 .17-2.116A1.5 1.5 0 0 0 23.62.004a1.5 1.5 0 0 0-1.094.353L16.25 5.7 9.973.357A1.5 1.5 0 0 0 8.879.004zM5.5 8.957h21c1.398 0 2.5 1.102 2.5 2.5v13c0 1.399-1.102 2.5-2.5 2.5h-21a2.478 2.478 0 0 1-2.5-2.5v-13c0-1.398 1.102-2.5 2.5-2.5z"/></svg>