<svg xmlns="http://www.w3.org/2000/svg" viewBox="0 0 32 32"><path d="M5.5 0C2.48 0 0 2.48 0 5.5v21C0 29.52 2.48 32 5.5 32h21c3.02 0 5.5-2.48 5.5-5.5v-21C32 2.48 29.52 0 26.5 0h-21zM16 6a1.5 1.5 0 0 1 .365.047 1.5 1.5 0 0 1 .045.014 1.5 1.5 0 0 1 .34.14 1.5 1.5 0 0 1 .303.233 1.5 1.5 0 0 1 .008.005 1.5 1.5 0 0 1 .054.057l5.946 5.943a1.5 1.5 0 0 1 0 2.122 1.5 1.5 0 0 1-2.122 0L17.5 11.12V24.5A1.5 1.5 0 0 1 16 26a1.5 1.5 0 0 1-1.5-1.5V11.121l-3.44 3.44a1.5 1.5 0 0 1-2.12 0 1.5 1.5 0 0 1 0-2.122l6-6a1.5 1.5 0 0 1 .117-.09 1.5 1.5 0 0 1 .119-.091 1.5 1.5 0 0 1 .281-.143 1.5 1.5 0 0 1 .11-.045A1.5 1.5 0 0 1 16 6z" color="#000" style="-inkscape-stroke:none"/></svg>