<svg xmlns="http://www.w3.org/2000/svg" viewBox="0 0 32 32"><path d="M13 0C8.875 0 5.5 3.374 5.5 7.5c0 4.125 3.375 7.5 7.5 7.5.77 0 1.514-.118 2.215-.336L12.879 17H3.473C1.572 16.999 0 18.549 0 20.42v1.4c0 2.256.754 4.343 2.025 6.034L.44 29.439a1.5 1.5 0 0 0 0 2.122 1.5 1.5 0 0 0 2.122 0l29-29a1.5 1.5 0 0 0 0-2.122A1.5 1.5 0 0 0 30.5 0a1.5 1.5 0 0 0-1.06.44l-4.014 4.013C24.388 1.836 22.018 0 18.976 0c-.51 0-1.006.052-1.488.15a7.543 7.543 0 0 1 5.729 5.334 7.646 7.646 0 0 1 .199.979l-3.252 3.252c.218-.7.336-1.445.336-2.215C20.5 3.374 17.125 0 13 0zm0 2.813A4.666 4.666 0 0 1 17.688 7.5 4.666 4.666 0 0 1 13 12.188 4.666 4.666 0 0 1 8.312 7.5 4.666 4.666 0 0 1 13 2.812zM21.121 17l-2.976 2.977h4.38c.267 0 .45.18.45.443v1.402c0 3.995-3.259 7.203-7.319 7.203h-5.314c-.392 0-.774-.04-1.149-.097l-2.437 2.437a10.41 10.41 0 0 0 3.586.635h5.314C21.35 32 26 27.425 26 21.82v-1.4c0-1.871-1.574-3.42-3.475-3.42h-1.404zm4.404 0C27.426 17 29 18.549 29 20.42v1.4C29 27.425 24.35 32 18.656 32h2.977c5.694 0 10.344-4.575 10.344-10.18v-1.4c0-1.871-1.574-3.42-3.475-3.42h-2.977zM3.473 19.977h6.43l-5.73 5.728a7.092 7.092 0 0 1-1.15-3.883V20.42c0-.263.183-.443.45-.443z"/></svg>