<svg xmlns="http://www.w3.org/2000/svg" viewBox="0 0 32 32"><path d="M16 0c-4.125 0-7.5 3.374-7.5 7.5 0 3.771 2.825 6.907 6.46 7.418L12.88 17H6.473C4.572 16.999 3 18.549 3 20.42v1.4c0 1.477.33 2.88.91 4.149l-3.47 3.47a1.5 1.5 0 0 0 0 2.122 1.5 1.5 0 0 0 2.12 0l29-29a1.5 1.5 0 0 0 0-2.122A1.5 1.5 0 0 0 30.5 0a1.5 1.5 0 0 0-1.06.44l-6.022 6.02C22.907 2.825 19.772 0 16 0zm0 2.813A4.666 4.666 0 0 1 20.688 7.5a4.666 4.666 0 0 1-.584 2.275l-1.829 1.829a4.666 4.666 0 0 1-2.275.584A4.666 4.666 0 0 1 11.312 7.5 4.666 4.666 0 0 1 16 2.812zM21.121 17l-2.976 2.977h7.38c.267 0 .45.18.45.443v1.402c0 3.995-3.259 7.203-7.319 7.203h-5.314a7.409 7.409 0 0 1-3.416-.83L7.75 30.371A10.382 10.382 0 0 0 13.342 32h5.314C24.35 32 29 27.425 29 21.82v-1.4c0-1.871-1.574-3.42-3.475-3.42h-4.404zM6.473 19.977h3.43l-3.647 3.646a7.119 7.119 0 0 1-.233-1.8V20.42c0-.263.183-.443.45-.443z"/></svg>