<svg xmlns="http://www.w3.org/2000/svg" viewBox="0 0 32 32"><path d="M13 0C8.875 0 5.5 3.374 5.5 7.5c0 4.125 3.375 7.5 7.5 7.5s7.5-3.375 7.5-7.5C20.5 3.374 17.125 0 13 0Zm16.242 16.008a1.5 1.5 0 0 0-2.121 0l-3.182 3.182-3.182-3.182c-1.415-1.414-3.536.707-2.122 2.121l3.182 3.182-3.182 3.182c-1.414 1.415.707 3.536 2.122 2.122l3.182-3.182 3.182 3.182c1.414 1.414 3.535-.707 2.121-2.122l-3.182-3.182 3.182-3.182a1.5 1.5 0 0 0 0-2.121zM3.473 17C1.572 16.999 0 18.549 0 20.42v1.4C0 27.424 4.648 32 10.342 32h5.314c1.58 0 3.08-.353 4.422-.982A10.5 10.5 0 0 1 14 21.5a10.5 10.5 0 0 1 1.025-4.5z"/></svg>