<svg xmlns="http://www.w3.org/2000/svg" viewBox="0 0 32 32"><path d="M18.977 0c-.51 0-1.007.052-1.489.15a7.543 7.543 0 0 1 5.729 5.334 7.646 7.646 0 0 1 0 4.032 7.545 7.545 0 0 1-5.729 5.334c.482.098.979.15 1.489.15C23.102 15 26 11.625 26 7.5 26 3.374 23.102 0 18.977 0Zm6.548 17C27.426 17 29 18.549 29 20.42v1.4C29 27.425 24.35 32 18.656 32h2.977c5.694 0 10.344-4.575 10.344-10.18v-1.4c0-1.871-1.574-3.42-3.475-3.42ZM13 0C8.875 0 5.5 3.374 5.5 7.5c0 4.125 3.375 7.5 7.5 7.5 3.343 0 6.194-2.217 7.154-5.254.225-.71.346-1.464.346-2.246C20.5 3.374 17.125 0 13 0ZM3.473 17C1.572 16.999 0 18.548 0 20.419v1.402C0 27.425 4.648 32 10.342 32h5.314C21.35 32 26 27.425 26 21.82v-1.4c0-1.871-1.574-3.42-3.475-3.42Z"/></svg>