<svg xmlns="http://www.w3.org/2000/svg" viewBox="0 0 32 32"><path d="M13 0C8.875 0 5.5 3.374 5.5 7.5c0 4.125 3.375 7.5 7.5 7.5s7.5-3.375 7.5-7.5C20.5 3.374 17.125 0 13 0Zm0 2.813A4.666 4.666 0 0 1 17.688 7.5 4.666 4.666 0 0 1 13 12.188 4.666 4.666 0 0 1 8.312 7.5 4.666 4.666 0 0 1 13 2.812ZM18.5 20a1.5 1.5 0 0 0 0 3h12a1.5 1.5 0 0 0 0-3ZM3.473 17C1.572 16.999 0 18.549 0 20.42v1.4C0 27.424 4.648 32 10.342 32h5.314c1.58 0 3.08-.353 4.422-.982a10.5 10.5 0 0 1-3.002-2.13c-.459.089-.933.137-1.42.137h-5.314c-4.06 0-7.319-3.208-7.319-7.203V20.42c0-.263.183-.443.45-.443h10.64A10.5 10.5 0 0 1 15.025 17Z"/></svg>