<svg xmlns="http://www.w3.org/2000/svg" xml:space="preserve" viewBox="0 0 32 32"><path d="M13 0C8.875 0 5.5 3.374 5.5 7.5c0 4.125 3.375 7.5 7.5 7.5.77 0 1.514-.118 2.215-.336L12.879 17H3.473C1.572 16.999 0 18.549 0 20.42v1.4c0 2.256.754 4.343 2.025 6.034L.44 29.439a1.5 1.5 0 0 0 2.122 2.122l29-29A1.5 1.5 0 0 0 29.439.439l-4.013 4.014C24.388 1.836 22.018 0 18.976 0c-.51 0-1.006.052-1.488.15a7.543 7.543 0 0 1 5.729 5.334c.087.322.154.649.199.979l-3.252 3.252c.218-.7.336-1.445.336-2.215C20.5 3.374 17.125 0 13 0Zm8.121 17L6.756 31.365a10.41 10.41 0 0 0 3.586.635h5.314C21.35 32 26 27.425 26 21.82v-1.4c0-1.871-1.574-3.42-3.475-3.42Zm4.404 0C27.426 17 29 18.549 29 20.42v1.4C29 27.425 24.35 32 18.656 32h2.977c5.694 0 10.344-4.575 10.344-10.18v-1.4c0-1.871-1.574-3.42-3.475-3.42Z" style="-inkscape-stroke:none"/></svg>