<svg xmlns="http://www.w3.org/2000/svg" viewBox="0 0 32 24"><path d="M5.5-.021c-3.02 0-5.5 2.48-5.5 5.5V18.52c0 3.02 2.48 5.5 5.5 5.5h12c3.02 0 5.5-2.48 5.5-5.5v-1.195l5.002 3.342v-.002C29.639 21.762 32 20.502 32 18.531v-13c0-1.487-1.268-2.714-2.754-2.664h-.002c-.429.015-.849.134-1.223.346L23 6.059v-.58c0-3.02-2.48-5.5-5.5-5.5zm0 3h12c1.398 0 2.5 1.101 2.5 2.5V18.52c0 1.399-1.102 2.5-2.5 2.5h-12a2.478 2.478 0 0 1-2.5-2.5V5.48c0-1.399 1.102-2.5 2.5-2.5zM29 6.105v11.622l-5.818-3.89a.37.37 0 0 1-.168-.31l-.012-3.896c0-.08.039-.147.107-.186z" color="#000" style="-inkscape-stroke:none"/></svg>