<svg xmlns="http://www.w3.org/2000/svg" viewBox="0 0 32 32"><path d="M30.5 0a1.5 1.5 0 0 0-1.06.44l-6.885 6.884C21.71 5.364 19.757 3.98 17.5 3.98h-12C2.48 3.98 0 6.46 0 9.48v13.04c0 1.983 1.073 3.729 2.662 4.697L.44 29.439a1.5 1.5 0 0 0 0 2.122 1.5 1.5 0 0 0 2.122 0L6.1 28.02l3-3L20 14.12l5.451-5.451 6.11-6.11a1.5 1.5 0 0 0 0-2.12A1.5 1.5 0 0 0 30.5 0zm-25 6.98h12c1.398 0 2.5 1.101 2.5 2.5v.399L4.941 24.938A2.478 2.478 0 0 1 3 22.52V9.48c0-1.399 1.102-2.5 2.5-2.5zm25.443.44-3.658 3.658L29 10.105v11.622l-5.818-3.89a.37.37 0 0 1-.168-.31l-.006-2.172L20 18.363v4.157c0 1.399-1.102 2.5-2.5 2.5h-4.156l-3 3H17.5c3.02 0 5.5-2.48 5.5-5.5v-1.194l5.002 3.342v-.002C29.639 25.763 32 24.502 32 22.531v-13c0-.854-.42-1.621-1.057-2.111z" style="-inkscape-stroke:none"/></svg>