<svg xmlns="http://www.w3.org/2000/svg" viewBox="0 0 32 28"><path d="M16 4.879c-1.299.002-2.597.621-3.328 1.857L.588 27.162C-.866 29.62.989 32.87 3.844 32.87h24.398c2.854 0 4.705-3.252 3.246-5.705L19.334 6.73C18.6 5.494 17.299 4.878 16 4.879Zm.004 2.912c.282 0 .565.157.752.47l12.152 20.436c.345.58.01 1.172-.666 1.172H3.844c-.68 0-1.02-.595-.674-1.18L15.254 8.265c.186-.315.468-.473.75-.473zM16 24.87a1.5 1.5 0 1 0 0 3 1.5 1.5 0 0 0 0-3zm0-11.496a1.5 1.5 0 0 0-1.5 1.5v6.496a1.5 1.5 0 0 0 3 0v-6.496a1.5 1.5 0 0 0-1.5-1.5z" color="#000" style="-inkscape-stroke:none" transform="translate(0 -4.87)"/></svg>