<svg xmlns="http://www.w3.org/2000/svg" viewBox="0 0 22 32"><path d="M8.008 0C5.787-.009 4.194 1.866 4.01 3.88l-.002.005-.447 4.021A10.964 10.964 0 0 0 0 15.988c0 3.189 1.373 6.069 3.557 8.08l.45 4.047C4.19 30.131 5.788 32.01 8.01 32l5.984-.021c2.207.009 3.818-1.847 4-3.864l.45-4.047A10.968 10.968 0 0 0 22 15.988c0-3.19-1.374-6.068-3.559-8.08l-.447-4.023-.002-.004C17.808 1.865 16.2.013 13.994.02L8.008 0zm-.012 2.998 5.998.022h.012c.53-.003.936.428 1 1.134l.004.032.183 1.644a10.927 10.927 0 0 0-8.385-.002l.184-1.642.004-.03c.064-.707.486-1.16 1-1.158zM11 10a1.5 1.5 0 0 1 1.5 1.5v3.78l1.938 1.548a1.5 1.5 0 1 1-1.876 2.344l-2.5-2A1.5 1.5 0 0 1 9.5 16v-4.5A1.5 1.5 0 0 1 11 10zM6.807 26.148a10.926 10.926 0 0 0 8.388 0l-.185 1.668-.004.03c-.064.706-.468 1.135-.998 1.133h-.014l-5.998.023c-.514.002-.934-.449-.998-1.156a1.502 1.502 0 0 0-.006-.03l-.185-1.668z"/></svg>