<svg xmlns="http://www.w3.org/2000/svg" viewBox="0 0 32 32"><path d="M16 0C7.181 0 0 7.181 0 16c0 8.819 7.181 16 16 16 8.819 0 16-7.181 16-16 0-8.819-7.181-16-16-16zm3.227 3.402c3.239.823 5.985 2.86 7.734 5.598h-5.018a28.142 28.142 0 0 0-2.716-5.598zm-6.66.057C11.311 5.317 10.416 7.176 9.81 9H5.039a12.982 12.982 0 0 1 7.527-5.541zm3.386.432A25.597 25.597 0 0 1 18.736 9H12.95c.671-1.664 1.646-3.374 3.004-5.11zM3.625 12h5.428c-.497 2.86-.34 5.574.168 8H3.625A13.048 13.048 0 0 1 3 16c0-1.397.22-2.74.625-4zm8.416 0h7.672c.602 2.413.838 5.115.246 8h-7.672c-.602-2.413-.838-5.115-.246-8zm10.738 0h5.596c.405 1.26.625 2.603.625 4 0 1.397-.22 2.74-.625 4h-5.428c.497-2.86.34-5.574-.168-8zM5.04 23h5.018a28.142 28.142 0 0 0 2.716 5.598A12.982 12.982 0 0 1 5.04 23zm8.225 0h5.787c-.671 1.664-1.646 3.374-3.004 5.11A25.597 25.597 0 0 1 13.264 23zm8.925 0h4.772a12.982 12.982 0 0 1-7.527 5.541c1.254-1.858 2.148-3.717 2.755-5.541z" color="#000" style="-inkscape-stroke:none"/></svg>