<svg xmlns="http://www.w3.org/2000/svg" viewBox="0 0 32 25"><path d="M15.996 0C6.376.025.43 6.064.43 6.064a1.5 1.5 0 0 0 .02 2.122 1.5 1.5 0 0 0 2.12-.018S7.624 3.021 16.004 3c8.37-.021 13.422 5.174 13.422 5.174a1.5 1.5 0 0 0 2.12.03 1.5 1.5 0 0 0 .028-2.122S25.626-.025 15.996 0zm-.004 6.99C9.014 7.027 4.81 11.568 4.81 11.568a1.5 1.5 0 0 0 .084 2.121 1.5 1.5 0 0 0 2.119-.085s3.292-3.584 8.996-3.614c5.564-.03 8.984 3.62 8.984 3.62a1.5 1.5 0 0 0 2.121.07 1.5 1.5 0 0 0 .07-2.12s-4.295-4.606-11.19-4.57zM16 14c-4.381.003-6.85 3.166-6.85 3.166a1.5 1.5 0 0 0 .278 2.102 1.5 1.5 0 0 0 2.103-.276S13.018 17.002 16 17c2.91-.002 4.48 2.006 4.48 2.006a1.5 1.5 0 0 0 2.106.248 1.5 1.5 0 0 0 .248-2.108S20.334 13.997 16 14zm0 7a2 2 0 0 0-2 2 2 2 0 0 0 2 2 2 2 0 0 0 2-2 2 2 0 0 0-2-2z"/></svg>