<svg xmlns="http://www.w3.org/2000/svg" viewBox="0 0 32 32"><path d="M30.5 0a1.5 1.5 0 0 0-1.06.44l-5.137 5.136A22.52 22.52 0 0 0 15.986 4C6.366 4.025.422 10.064.422 10.064a1.5 1.5 0 0 0 .02 2.122 1.5 1.5 0 0 0 2.119-.018S7.614 7.021 15.994 7a19.717 19.717 0 0 1 5.975.91l-3.307 3.307a15.107 15.107 0 0 0-2.678-.227h-.002c-6.978.037-11.181 4.578-11.181 4.578a1.5 1.5 0 0 0 .084 2.121 1.5 1.5 0 0 0 2.119-.085s3.248-3.532 8.88-3.61L.44 29.44a1.5 1.5 0 0 0 0 2.122 1.5 1.5 0 0 0 2.122 0l8.007-8.008 5.547-5.547 3.5-3.5 2.338-2.338 3.04-3.04 2.2-2.2 4.368-4.367a1.5 1.5 0 0 0 0-2.122A1.5 1.5 0 0 0 30.5 0zm-.723 8.586-2.134 2.135c1.15.82 1.775 1.453 1.775 1.453a1.5 1.5 0 0 0 2.12.03 1.5 1.5 0 0 0 .026-2.122s-.627-.637-1.787-1.496zm-5.035 5.035-2.166 2.166c1.552.91 2.408 1.822 2.408 1.822a1.5 1.5 0 0 0 2.121.07 1.5 1.5 0 0 0 .07-2.118s-.865-.924-2.433-1.94zm-5.152 5.152-2.358 2.358c2.11.44 3.239 1.875 3.239 1.875a1.5 1.5 0 0 0 2.105.248 1.5 1.5 0 0 0 .248-2.108s-1.149-1.441-3.234-2.373zM15.99 25a2 2 0 0 0-2 2 2 2 0 0 0 2 2 2 2 0 0 0 2-2 2 2 0 0 0-2-2z"/></svg>