<svg xmlns="http://www.w3.org/2000/svg" viewBox="0 0 32 32"><path d="M22.2.002c-.902.004-1.8.358-2.46 1.06L4.775 17.017A6.556 6.556 0 0 0 3 21.5V26h4.5a6.21 6.21 0 0 0 4.469-1.898L27.03 8.48a3.603 3.603 0 0 0 .01-4.962L24.67 1.039A3.386 3.386 0 0 0 22.2.002zm.015 2.977c.1-.001.201.043.287.132l2.371 2.48a.562.562 0 0 1 0 .807L9.809 22.02A3.205 3.205 0 0 1 7.5 23H6v-1.5c0-.904.344-1.772.963-2.432L21.928 3.115a.4.4 0 0 1 .287-.136zM1.5 29A1.5 1.5 0 0 0 0 30.5 1.5 1.5 0 0 0 1.5 32h29a1.5 1.5 0 0 0 1.5-1.5 1.5 1.5 0 0 0-1.5-1.5h-29z"/></svg>